<?xml version="1.0" encoding="UTF-8"?><svg xmlns="http://www.w3.org/2000/svg" viewBox="0 0 288 288"><defs><style>.cls-1{fill:none;}.cls-2{fill:#bbb;}</style></defs><g id="Border"><rect class="cls-1" width="288" height="288"/></g><g id="Main"><path class="cls-2" d="M252,27h-54c-29.82,0-54,24.18-54,54h0s0,0,0,0h0c0-29.82-24.18-54-54-54H36L0,63H0V243H0s0,0,0,0H90c9.94,0,18,8.06,18,18h36s0,0,0,0h36c0-9.94,8.06-18,18-18h90s0,0,0,0V63h0s-36-36-36-36Zm-49.11,95c-9.32,0-17.79,.15-24.98,1.81-6.62,1.53-12.51,4.6-18.1,9.01,9.1-11.63,21.61-20.82,38.18-20.82h36v10h-31.11Zm31.11,34.59v10h-31.11c-9.32,0-17.79,.15-24.98,1.81-6.62,1.53-12.51,4.6-18.1,9.01,9.1-11.63,21.61-20.82,38.18-20.82h36Zm-31.11-79.18c-9.32,0-17.79,.15-24.98,1.81-6.62,1.53-12.51,4.6-18.1,9.01,9.1-11.63,21.61-20.82,38.18-20.82h36v10h-31.11ZM54,156.59h36c16.57,0,29.08,9.19,38.18,20.82-5.59-4.41-11.48-7.48-18.1-9.01-7.19-1.66-15.66-1.81-24.98-1.81h-31.11v-10Zm56.09-32.78c-7.19-1.66-15.66-1.81-24.98-1.81h-31.11v-10h36c16.57,0,29.08,9.19,38.18,20.82-5.59-4.41-11.48-7.48-18.1-9.01Zm0-44.59c-7.19-1.66-15.66-1.81-24.98-1.81h-31.11v-10h36c16.57,0,29.08,9.19,38.18,20.82-5.59-4.41-11.48-7.48-18.1-9.01Zm6.07,171.78c-4.03-10.52-14.24-18-26.15-18H10l26-26h54c26.4,0,48.37,18.96,53.06,44h-26.91Zm81.85-18c-11.92,0-22.12,7.48-26.15,18h-26.91c4.69-25.04,26.66-44,53.06-44h54l26,26h-80Z"/></g></svg>