<?xml version="1.0" encoding="UTF-8"?><svg xmlns="http://www.w3.org/2000/svg" viewBox="0 0 288.01 288"><defs><style>.cls-1{fill:none;}.cls-2{fill:#bbb;}</style></defs><g id="Border"><rect class="cls-1" width="288" height="288"/></g><g id="Main"><g><path class="cls-2" d="M68.08,239.15h-4.13l-2.92-2.92c-22.65-22.65-35.13-52.77-35.13-84.8V58.81H0V196.27c0,30.37,12.31,57.86,32.21,77.76H252.13c-9.92-9.92-17.91-21.76-23.47-34.87H68.08Z"/><path class="cls-2" d="M288,229.19c-2.49-2.49-4.86-5.09-7.1-7.81-1.12-1.36-2.21-2.74-3.26-4.15-4.22-5.65-7.91-11.71-11-18.12-.99-2.06-1.9-4.16-2.76-6.28-.99-2.42-1.89-4.89-2.7-7.4-.26-.81-.52-1.63-.76-2.45-1.36-4.54-2.44-9.21-3.2-13.98-.08-.51-.16-1.01-.24-1.52-.77-5.24-1.18-10.59-1.18-16.05V13.98H35.87V151.43c0,30.37,12.31,57.86,32.21,77.76h219.92Zm-82.31-43.83c-2.35,1.15-3.66,3.07-4.55,5.49-1.48,4.09-4.82,8-9.04,9.58-8.07,3.08-15.9,.81-23.23-1.95-6.33-2.38-11.79-6.58-18.16-9.22-6.85-2.77-17.07-6.59-21.29,1.6-3.52,8.34-13.21,10.87-21.07,8.45-6.91-1.93-13-5.46-18.41-9.97,6.35,2.51,12.87,4.7,19.23,5.15,4.44,.32,8.59-.2,11.29-3.42,1.98-2.77,2.53-6.29,5.11-8.9,10.9-10.78,27.64-3.38,38.78,2.96,7.04,4.01,16.53,9.02,24.65,7.12,4.45-1.05,5.37-6.84,8.72-9.68,10.97-9.36,26.39-.71,35.69,6.76-8.78-3.2-18.99-7.43-27.72-3.97ZM104,59.89c3.89-3.61,7.3-7.82,12.22-10.13,8.84-4.94,20.35-3,28.41,2.57,3.92,2.52,7.13,6.44,11.57,8.32,7.83,3.94,15.92,2.24,22.73-3.86,11.95-11.24,28.71-9.81,38.63,2.76-9.39-6.36-21.39-8.13-29.92-.36-3.89,3.61-7.3,7.82-12.22,10.13-6.97,3.93-16.23,3.54-23.33,.24-4.33-1.9-7.71-4.55-11.24-7.75-6.94-5.76-17-7.64-24.6-2.16-4.26,2.96-8.02,6.92-13.04,8.66-10.27,4.57-22.94-.51-29.12-8.77,9.4,6.35,21.38,8.11,29.91,.34Zm0,66.02c3.89-3.61,7.3-7.82,12.22-10.13,8.84-4.94,20.35-3,28.41,2.57,3.92,2.52,7.13,6.44,11.57,8.32,7.83,3.94,15.92,2.24,22.73-3.86,11.95-11.24,28.71-9.81,38.63,2.76-9.39-6.36-21.39-8.13-29.92-.36-3.89,3.61-7.3,7.82-12.22,10.13-6.97,3.93-16.23,3.54-23.33,.24-4.33-1.9-7.71-4.55-11.24-7.75-6.94-5.76-17-7.64-24.6-2.16-4.26,2.96-8.02,6.92-13.04,8.66-10.27,4.57-22.94-.51-29.12-8.77,9.4,6.35,21.38,8.11,29.91,.34Z"/></g></g></svg>