<svg xmlns="http://www.w3.org/2000/svg" viewBox="0 0 288 288"><defs><style>.cls-1{fill:none;}.cls-2{fill:#fff;}</style></defs><g id="Border"><rect class="cls-1" width="288" height="288"/></g><g id="Assassin"><polygon points="144 0 32.11 77.18 57.7 221.1 144 288 230.3 221.1 255.89 77.18 144 0"/><path class="cls-2" d="M92.28,205.77c16.08-22.13,34.42-42.19,53.37-61.77,19.12-19.41,38.76-38.21,60.52-54.78-16.06,22.14-34.4,42.2-53.37,61.77-19.14,19.4-38.77,38.19-60.52,54.78Z"/><path class="cls-2" d="M81.83,93.7c20.92,14.34,39.83,31,58.26,48.25,18.27,17.44,35.93,35.4,51.39,55.51-20.94-14.32-39.84-31-58.26-48.25C115,131.76,97.31,113.8,81.83,93.7Z"/></g></svg>