<svg xmlns="http://www.w3.org/2000/svg" viewBox="0 0 288 288"><defs><style>.cls-1{fill:none;}.cls-2{fill:#fff;}.cls-3{fill:#fda6ff;}</style></defs><g id="Border"><rect class="cls-1" width="288" height="288"/></g><g id="Leader"><path class="cls-2" d="M223.62,73.28,219.45,28.7,177,55,144,5.85,111,55,68.55,28.7,64.38,73.28,26.16,58.67l21.17,60.57v58.19c0,72.5,48.34,104.72,96.67,104.72s96.67-32.22,96.67-104.72V119.24l21.17-60.57Z"/><polygon class="cls-3" points="144 41.86 111.7 90.02 144 138.18 176.3 90.02 144 41.86"/><polygon class="cls-3" points="237 84.81 207.01 96.27 223.33 123.92 237 84.81"/><polygon class="cls-3" points="51 84.81 80.99 96.27 64.67 123.92 51 84.81"/></g></svg>