<svg xmlns="http://www.w3.org/2000/svg" viewBox="0 0 288 288"><defs><style>.cls-1{fill:none;}.cls-2{fill:#fff;}.cls-3{fill:#8ff4ff;}</style></defs><g id="Border"><rect class="cls-1" width="288" height="288"/></g><g id="Skeptic"><path class="cls-2" d="M144,0C79.39,18.46,33.23,46.15,33.23,120v48c0,73.85,46.16,101.54,110.77,120,64.61-18.46,110.77-46.15,110.77-120V120C254.77,46.15,208.61,18.46,144,0Z"/><path class="cls-3" d="M144,104.33c-43.27,0-78.35,39.67-78.35,39.67s35.08,39.67,78.35,39.67c0,0-20.09-17.76-20.09-39.67S144,104.33,144,104.33"/><path class="cls-3" d="M144,183.67c43.27,0,78.35-39.67,78.35-39.67S187.27,104.33,144,104.33c0,0,20.09,17.76,20.09,39.67S144,183.67,144,183.67"/></g></svg>