<svg xmlns="http://www.w3.org/2000/svg" viewBox="0 0 288 288"><defs><style>.cls-1{fill:none;}.cls-2{fill:#fff;}.cls-3{fill:#2cff5e;}</style></defs><g id="Border"><rect class="cls-1" width="288" height="288"/></g><g id="Survivor"><path class="cls-2" d="M144,0C88.62,0,33.23,36.92,33.23,120v48c0,83.08,55.39,120,110.77,120s110.77-36.92,110.77-120V120C254.77,36.92,199.38,0,144,0Z"/><path class="cls-3" d="M138.22,166.47c-4.49-5.49-11.83-8.47-18-4.87-5.76,3.8-8.37,9.09-12.17,15.56-4.38,8.05-10.36,17-19.59,20.32-9.28,4.16-21.4,3.69-28.8-4-6.8-6.47-6.78-23.63,4.67-24.59A6.94,6.94,0,0,1,71.2,174a6,6,0,0,0-6.55-2.65c-4.82,1.63-4.75,7.35-3.27,11.48,2.26,6.4,9.82,8,15.79,6.52a16.88,16.88,0,0,0,10.31-6.82c4.11-5.37,7.61-14.22,12.47-20.37,4.1-5.31,9.88-10.41,16.72-11.82,10.59-2.44,21.91,5,21.55,16.13Z"/><path class="cls-3" d="M149.78,166.47c-.38-11.05,11-18.59,21.55-16.13,6.84,1.41,12.62,6.51,16.72,11.82,4.85,6.15,8.36,15,12.47,20.37a16.91,16.91,0,0,0,10.31,6.82c6,1.44,13.54-.12,15.79-6.52,1.49-4.13,1.55-9.85-3.27-11.48A6,6,0,0,0,216.8,174a6.94,6.94,0,0,1,6.86-5.07c11.46,1,11.47,18.11,4.67,24.59-7.41,7.65-19.52,8.12-28.8,4-9.23-3.37-15.21-12.27-19.59-20.32-3.8-6.47-6.41-11.76-12.17-15.56-6.16-3.6-13.5-.62-18,4.87Z"/></g></svg>