<?xml version="1.0" encoding="UTF-8"?><svg xmlns="http://www.w3.org/2000/svg" viewBox="0 0 288 288"><defs><style>.c{fill:none;}.d{fill:#bbb;}</style></defs><g id="a"><rect class="c" width="288" height="288"/></g><g id="b"><path class="d" d="M188.02,259.99v21.88h27.48c0-11.93-2.94-23.17-8.11-33.06l-19.37,11.18Z"/><path class="d" d="M147.06,232.81l37.9,21.88,19.37-11.18c-12.18-19.11-33.17-32.04-57.26-33.06v22.36Z"/><path class="d" d="M99.98,259.99l-19.37-11.18c-5.17,9.89-8.11,21.13-8.11,33.06h27.48v-21.88Z"/><path class="d" d="M103.04,254.69l37.9-21.88v-22.36c-24.09,1.02-45.08,13.95-57.26,33.06l19.37,11.18Z"/><path class="d" d="M63.02,260.48c9.48-35.85,42.19-62.37,80.98-62.37s71.5,26.51,80.98,62.37l41.96-54.11-47.88,6.12,26.78-82.75-76.51,55.34-25.32-42.5-25.32,42.5-76.51-55.34,26.78,82.75-47.88-6.12,41.96,54.11Z"/><polygon class="d" points="144 238.11 106.1 259.99 106.1 281.87 181.9 281.87 181.9 259.99 144 238.11"/></g></svg>