<svg xmlns="http://www.w3.org/2000/svg" viewBox="0 0 288 288"><defs><style>.cls-1{fill:none;}.cls-2{fill:#bbb;}</style></defs><g id="Border"><rect class="cls-1" width="288" height="288"/></g><g id="True"><path class="cls-2" d="M195.57,207.47V233.1h32.18a83.42,83.42,0,0,0-9.49-38.73Z"/><path class="cls-2" d="M147.59,175.63,192,201.26l22.68-13.1a83.66,83.66,0,0,0-67.07-38.72Z"/><path class="cls-2" d="M92.43,207.47l-22.69-13.1a83.42,83.42,0,0,0-9.49,38.73H92.43Z"/><path class="cls-2" d="M96,201.26l44.39-25.63V149.44a83.66,83.66,0,0,0-67.07,38.72Z"/><path class="cls-2" d="M49.15,208a98.11,98.11,0,0,1,189.7,0L288,144.66l-56.09,7.17L263.28,54.9l-89.62,64.82L144,69.94l-29.66,49.78L24.72,54.9l31.37,96.93L0,144.66Z"/><polygon class="cls-2" points="144 181.84 99.61 207.47 99.61 233.1 188.39 233.1 188.39 207.47 144 181.84"/></g></svg>