<?xml version="1.0" encoding="UTF-8"?><svg xmlns="http://www.w3.org/2000/svg" viewBox="0 0 288 288"><defs><style>.c{fill:none;}.d{fill:#bbb;}</style></defs><g id="a"><rect class="c" width="288" height="288"/></g><g id="b"><g><path class="d" d="M236.46,25.02c-8.77,0-14.86,8.39-9.92,16.06,.36-12.93,16.32-9.65,13.53,2.44-2.54,11-17.65,14.19-26.2,3.98-13.18-15.75,1.63-41.36,1.63-41.36h-27.48c0,24.28-19.75,44.03-44.02,44.03S99.98,30.4,99.98,6.13h-27.48s14.81,25.61,1.63,41.36c-8.55,10.22-23.65,7.03-26.2-3.98-2.79-12.08,13.16-15.37,13.53-2.44,4.94-7.67-1.15-16.06-9.92-16.06-14.39,0-24.29,22.36-9.44,39.26,12.71,14.46,33.42,16.68,50.96,11.13-2.38,4.63-3.69,9.67-3.69,14.94,0,18.48,16.07,34.12,38.21,39.39-7.23-5.14-11.96-13.59-11.96-23.14,0-15.67,12.71-28.38,28.38-28.38s28.38,12.71,28.38,28.38c0,9.55-4.72,18-11.96,23.14,22.15-5.27,38.21-20.91,38.21-39.39,0-5.27-1.31-10.31-3.69-14.94,17.54,5.55,38.25,3.33,50.96-11.13,14.85-16.9,4.95-39.26-9.44-39.26Z"/><rect class="d" x="136.47" y="99.06" width="15.07" height="15.07" transform="translate(-33.2 133.05) rotate(-45)"/></g><path class="d" d="M113.9,29.11l8.82-10.7-13.7,2.29c1.26,3.02,2.91,5.84,4.87,8.4Z"/><path class="d" d="M178.98,20.71l-13.7-2.29,8.82,10.7c1.96-2.57,3.61-5.39,4.87-8.41Z"/><path class="d" d="M144,44.03c1.65,0,3.27-.12,4.86-.32l-4.86-13-4.86,13c1.59,.2,3.21,.32,4.86,.32Z"/></g></svg>