<svg xmlns="http://www.w3.org/2000/svg" viewBox="0 0 288 288"><defs><style>.cls-1{fill:none;}.cls-2{fill:#bbb;}</style></defs><g id="Border"><rect class="cls-1" width="288" height="288"/></g><g id="Umbradiant_Conglomerate" data-name="Umbradiant Conglomerate"><path class="cls-2" d="M188,130.26v21.88H215.5a71.18,71.18,0,0,0-8.1-33.07Z"/><path class="cls-2" d="M147.06,103.07,185,125l19.37-11.18a71.46,71.46,0,0,0-57.27-33.06Z"/><path class="cls-2" d="M100,130.26,80.6,119.07a71.18,71.18,0,0,0-8.1,33.07H100Z"/><path class="cls-2" d="M103,125l37.9-21.88V80.71a71.46,71.46,0,0,0-57.27,33.06Z"/><path class="cls-2" d="M63,130.75a83.76,83.76,0,0,1,162,0l42-54.12-47.88,6.12L245.84,0,169.32,55.34,144,12.84l-25.32,42.5L42.16,0,68.94,82.75,21.06,76.63Z"/><path class="cls-2" d="M236.46,183.28c-8.77,0-14.86,8.4-9.92,16.06.37-12.93,16.32-9.64,13.53,2.44-2.54,11-17.65,14.19-26.2,4-13.18-15.76,1.63-41.37,1.63-41.37H188a44,44,0,1,1-88,0H72.49S87.3,190,74.12,205.76c-8.55,10.21-23.65,7-26.19-4-2.79-12.08,13.16-15.37,13.52-2.44,4.94-7.66-1.15-16.06-9.92-16.06-14.39,0-24.29,22.37-9.43,39.26C54.81,237,75.52,239.22,93.05,233.67a32.5,32.5,0,0,0-3.69,14.94c0,18.48,16.07,34.12,38.22,39.39a28.38,28.38,0,1,1,32.84,0c22.15-5.27,38.22-20.91,38.22-39.39A32.5,32.5,0,0,0,195,233.67c17.53,5.55,38.24,3.33,51-11.13C260.75,205.65,250.85,183.28,236.46,183.28Z"/><rect class="cls-2" x="136.47" y="257.33" width="15.07" height="15.07" transform="translate(-145.11 179.4) rotate(-45)"/><path class="cls-2" d="M113.9,187.38l8.82-10.7L109,179A38.06,38.06,0,0,0,113.9,187.38Z"/><path class="cls-2" d="M179,179l-13.7-2.29,8.82,10.7A38.06,38.06,0,0,0,179,179Z"/><path class="cls-2" d="M144,202.29a38.89,38.89,0,0,0,4.86-.32L144,189l-4.86,13A38.89,38.89,0,0,0,144,202.29Z"/><polygon class="cls-2" points="144 108.38 106.1 130.26 106.1 152.14 181.9 152.14 181.9 130.26 144 108.38"/></g></svg>