<svg xmlns="http://www.w3.org/2000/svg" viewBox="0 0 288 288"><defs><style>.cls-1{fill:none;}</style></defs><g id="Border"><rect class="cls-1" width="288" height="288"/></g><g id="Umbral_Plane" data-name="Umbral Plane"><path d="M265.85,87.45c-11.55,0-19.58,11.06-13.07,21.16.48-17,21.51-12.71,17.83,3.21-3.35,14.51-23.26,18.71-34.53,5.24-17.36-20.76,2.15-54.51,2.15-54.51H202a58,58,0,0,1-116,0H49.77s19.51,33.75,2.15,54.51c-11.27,13.47-31.18,9.27-34.53-5.24-3.68-15.92,17.35-20.25,17.83-3.21,6.51-10.1-1.52-21.16-13.07-21.16-19,0-32,29.47-12.44,51.73,16.75,19,44,22,67.15,14.67A42.77,42.77,0,0,0,72,173.54c0,24.35,21.17,45,50.36,51.91a37.4,37.4,0,1,1,43.28,0c29.19-6.94,50.36-27.56,50.36-51.91a42.77,42.77,0,0,0-4.86-19.69c23.11,7.32,50.4,4.38,67.15-14.67C297.86,116.92,284.82,87.45,265.85,87.45Z"/><rect x="134.07" y="185.03" width="19.86" height="19.86" transform="translate(-95.68 158.93) rotate(-45)"/><path d="M104.33,92.84,116,78.74l-18,3A49.58,49.58,0,0,0,104.33,92.84Z"/><path d="M190.1,81.77l-18-3,11.62,14.1A50,50,0,0,0,190.1,81.77Z"/><path d="M144,112.5a50.25,50.25,0,0,0,6.41-.43L144,94.94l-6.4,17.13A50,50,0,0,0,144,112.5Z"/></g></svg>