<?xml version="1.0" encoding="UTF-8"?><svg xmlns="http://www.w3.org/2000/svg" viewBox="0 0 288 288"><defs><style>.cls-1{fill:none;}.cls-2{fill:#bbb;}</style></defs><g id="Border"><rect class="cls-1" y="0" width="288" height="288"/></g><g id="Main"><g><path class="cls-2" d="M146.04,176.34c8.32-17.07,8.32-51.21,0-68.28-8.32,17.07-8.32,51.21,0,68.28Z"/><path class="cls-2" d="M270.08,117.79l-15.05-6.49,32.97-21.25-55.99,20.67,1.58-15.58-11.27,19.16-5.48,2.02c-8.06-7.32-16.72-13.32-25.82-17.9l9.22-11.55,27.03-12.17,2.67-1.2c-.11-1.02-.99-9.23-1.34-12.47l21.05-10.55-24,7.44-1.04,.32c-.05,.28-1.03,6.36-1.63,10.1l-25.26,5.87c-5.77-4.25-13.27-9.77-18.12-13.33l12.07-8.4,1.75-1.22c-.22-.45-6.1-12.92-6.51-13.76l1.19,11.56c-2.67,1.22-7.58,3.46-12.24,5.58l-18.28-2.78-25.65-26.4,20.97,30.4-2.39,11.71-14.41,2.16-.73,.11-.18,.41-4.17,9.48,5.52-7.87,17.25,3.35,1.97,.38c.89-1.39,5.67-8.76,8.6-13.29l7.15,3.43c4.77,4.66,11.12,10.86,15.66,15.29l-12.43,10.87c-9.09-2.75-18.5-4.19-28.11-4.19-.2,0-.39,.01-.58,.01-.2,0-.39-.01-.58-.01-13.3,0-26.21,2.72-38.42,7.93l-7.82-18.11,12.97-13.55,1.64-1.71-.55-1.32-7.13-17.11,1.25,16.12-16.68,8.7-29.11-7.51,9.28-15.6,.48-.8-.49-.56-16.4-18.71s13.04,17.85,14.1,19.31c-3.65,3.78-17.39,18.08-19.36,20.1,1.97,.86,26.63,11.65,36.17,15.82l6.45,22.97c-8.83,5.59-17.16,12.58-24.83,20.86l-14.6-5.68-1.26-18.73-.12-1.86-1.22-.46-28.51-10.81,24.84,14.11c-1.29,5.35-5.73,23.88-5.81,24.21,1.63,1.21,10.19,7.61,16.1,12.03-1.17,1.59-2.34,3.21-3.47,4.87-6.42,7.24-12.21,13.72-18.56,17.95,1.9,.37,5.55,2.16,6.39,2.55,3.49,1.6,6.16,3.83,9.22,6.1,2.9,2.16,5.91,4.17,9,6.05l-24.24,12.72-23.51,1.33,18.46,5.08-6.59,27.3L0,235.7l26.07-11.03,.52-.22,.53-.95,13.64-24.18,12.32-4.88,1.34,16.38,.1,1.27,.57,.4,14.69,10.21-11.21-12.27,5.02-20.15,14.7-5.83c.44,.18,.88,.36,1.33,.53,12.19,4.78,24.97,7.97,37.93,9.83l-6.53,13.43c-6.35,2.37-20.49,7.66-21.22,7.93l-.35,1.94-3.41,18.86c-1.64,1.26-14.25,10.95-14.25,10.95l17.53-7.69,.63-.27,.42-1.09,6.15-15.9c2.9-.49,8.56-1.43,13.52-2.26l3.1,21.71,.2,1.41,.46,.47,18.11,18.27-12.35-20.93,2.53-26.38c1.04-1.46,2.31-3.23,3.67-5.13l17.95,20.13-10.34-30.78c.76-1.06,1.46-2.05,2.09-2.93,3.33,.17,6.66,.26,9.99,.26,.19,0,.39,0,.58,0,.19,0,.39,0,.58,0,6.41,0,12.81-.31,19.19-.93,2.39-.23,4.77-.51,7.15-.84l3.8,23.57c-3.75,1.8-9.88,4.76-10.22,4.92l.2,1.3,3.24,21.01,.79-19.45c3.56-.74,12.34-2.57,13.42-2.79,0-.13,.61-16.04,.99-26.05l72.51,41.95-31.02-26.85,29.86-7.26-37.8,.39-18.98-16.43c4.29-1.27,8.52-2.71,12.69-4.35,4.79-1.88,9.48-4.01,14.04-6.41l25.26,9.8-15.33-15.62c1.93-1.26,3.83-2.57,5.68-3.95,3.05-2.27,5.72-4.5,9.22-6.1,.84-.39,4.5-2.18,6.39-2.55-6.35-4.23-12.14-10.72-18.56-17.95-3.35-4.92-6.9-9.52-10.6-13.82l19.17-12.36,22.36,1.78Zm-55.67,51.88c-8.37,3.82-17.43,6.83-26.89,9.04l-.07-.06c-.51,.12-1.01,.25-1.52,.36l-.06,.09c-.46,.1-.93,.19-1.4,.29l-11.28-10.94-3.69-10.88,1.33,11.85v.12l.24,.39,3.26,5.57-1.47,.34-7.31-1.5,7.02,3.38,.12,.06,.32-.02,2.56-.13,1.82,3.11c-10.23,1.74-20.79,2.61-31.35,2.58-14.69,.04-29.4-1.64-43.2-5.03,4.8-2.58,9.94-5.33,10.15-5.44l-1.23-1.65-1.86-2.49,9.07-1.09-10.86-1.31-3.28-4.38,4.1-7.76-5.9,7.35-.31,.38,.3,.58,4.4,8.6-14.01,4.56c-5.45-1.71-10.72-3.72-15.73-6.01-5.4-2.47-9.88-7.93-10.57-13.87-.1-.86-.13-1.72-.1-2.57,.13-4.71,2.12-9.27,4.67-13.27l30.26,4.45-13.18-5.11,2.82-.79,.32-.09,.11-.14,4.1-5.18-5.12,3.57-5.98,1.18-9.14-3.54c4.26-5.02,9.46-9.51,14.57-13.5,5.1-3.99,10.57-7.52,16.35-10.46l6.71,7.38,.54,.59,2.32,4.94-.11-4.89,5.96-1,6.62,4.24-5.86-5.87-.15-.15-.44-.05-6.06-.67-3.64-7.25c10.36-4.35,21.51-6.72,32.77-6.72,.2,0,.39,0,.58,.01,.2,0,.39-.01,.58-.01,12.46,0,24.79,2.89,36.05,8.17,2.65,1.24,5.24,2.62,7.76,4.1l-11.32,11.3-8.81,3.31,9.81-.97h.14l.37-.24,6.92-4.34,1.5,5.44,.22-6.52,6.91-4.33c1.86,1.27,3.68,2.59,5.45,3.98,5.97,4.66,12.06,9.99,16.63,16.06,3.51,4.67,6.65,10.39,6.82,16.37,.02,.73,0,1.46-.08,2.19l-8.83-3.34-.73-.28-3.4-2.68-2.96-4.72,1.38,5.76,.03,.12,.21,.22,2.19,2.29-8.61,4.82-4.96-7.09-.15-.21-.16-.05-8.2-2.76,7.45,3.86,4.51,8.65,.49,.93,1.17-.42,10.47-3.77,8.14,4.87c-1.94,3.5-5.08,6.43-8.64,8.05Z"/></g></g></svg>