<svg xmlns="http://www.w3.org/2000/svg" viewBox="0 0 288 288"><defs><style>.cls-1{fill:none;}.cls-2{fill:#bbb;}</style></defs><g id="Border"><rect class="cls-1" width="288" height="288"/></g><g id="Main"><polygon class="cls-2" points="144 185.49 170.56 288 117.44 288 144 185.49"/><polygon class="cls-2" points="102.51 144 0 170.56 0 117.44 102.51 144"/><polygon class="cls-2" points="185.49 144 288 117.44 288 170.56 185.49 144"/><circle class="cls-2" cx="144" cy="144" r="12.8"/><path class="cls-2" d="M144,60.14A83.86,83.86,0,1,1,60.14,144,84,84,0,0,1,144,60.14m0-36.55A120.41,120.41,0,1,0,264.41,144,120.41,120.41,0,0,0,144,23.59Z"/><polygon class="cls-2" points="144 102.51 117.44 0 170.56 0 144 102.51"/></g></svg>