<?xml version="1.0" encoding="UTF-8"?><svg xmlns="http://www.w3.org/2000/svg" viewBox="0 0 288 288"><defs><style>.cls-1{fill:none;}.cls-2{fill:#bbb;}</style></defs><g id="Border"><rect class="cls-1" width="288" height="288"/></g><g id="Main"><path class="cls-2" d="m144,214.1l-5.68-49.04-18.76-9.19c-33.06-16.19-52.8-43.57-52.8-73.22v-4.25l4.08-1.2c55.6-16.34,67.22-55.73,67.69-57.4l5.55-19.81,5.41,19.82c.46,1.65,12.08,41.04,67.69,57.38l10.04,2.95s-28.22,16.15-32.09,55.08c-2.03-23.65,4.25-37.47,10.39-49.88-36.39-13.06-53.79-35.61-61.5-49.79-8.01,14.71-26.45,38.45-65.73,51.23,1.79,23.64,18.8,45.42,46.28,58.88l25.13,12.31-5.68,56.12Z"/><path class="cls-2" d="m144,73.9l5.68,49.04,18.76,9.19c33.06,16.19,52.8,43.57,52.8,73.22v4.25l-4.08,1.2c-55.6,16.34-67.22,55.73-67.69,57.4l-5.55,19.81-5.41-19.82c-.46-1.65-12.08-41.04-67.69-57.38l-10.04-2.95s28.22-16.15,32.09-55.08c2.03,23.65-4.25,37.47-10.39,49.88,36.39,13.06,53.79,35.61,61.5,49.79,8.01-14.71,26.45-38.45,65.73-51.23-1.79-23.64-18.8-45.42-46.28-58.88l-25.13-12.31,5.68-56.12Z"/></g></svg>