<?xml version="1.0" encoding="UTF-8"?><svg xmlns="http://www.w3.org/2000/svg" viewBox="0 0 288 288"><defs><style>.cls-1{fill:none;}.cls-2{fill:#bbb;}</style></defs><g id="Border"><rect class="cls-1" width="288" height="288"/></g><g id="Main"><path class="cls-2" d="M143.67,0c-28.8,57.6-56.61,70.38-60.63,109.1,10.75,6.32,20.85,14.1,29.7,23.05,8.62-8.61,15.99-18.42,21.43-29.52,4.62-9.4,7.75-19.73,9.51-30.62,1.71,10.89,1.28,22.37-1.48,33.48-3.52,14.12-10.23,27.06-19.04,38.52h0c-1.35,1.75-2.75,3.47-4.19,5.15l-.04,.05c-4.34,5.06-9.09,9.79-14.16,14.16l-.04,.04c-1.63,1.41-3.3,2.78-5,4.11-.12,.09-.23,.18-.35,.27-1.62,1.26-3.26,2.49-4.92,3.69-.15,.11-.31,.22-.46,.33-1.67,1.19-3.36,2.34-5.06,3.45-.13,.08-.25,.17-.38,.25-1.82,1.18-3.65,2.31-5.51,3.4,4.02,38.72,31.82,51.5,60.62,109.1,28.8-57.6,56.61-70.37,60.63-109.09-10.75-6.32-20.85-14.1-29.7-23.05-8.62,8.61-15.99,18.42-21.43,29.52-4.62,9.4-7.75,19.73-9.51,30.62-1.71-10.89-1.28-22.37,1.48-33.48,3.52-14.12,10.23-27.06,19.04-38.52h0c1.35-1.75,2.75-3.47,4.19-5.15l.04-.05c4.34-5.06,9.09-9.79,14.16-14.16l.04-.03c1.64-1.41,3.3-2.78,5-4.12,.11-.09,.23-.18,.34-.27,1.62-1.27,3.26-2.5,4.93-3.69,.15-.11,.3-.22,.45-.32,1.67-1.19,3.36-2.34,5.08-3.46,.12-.08,.25-.16,.37-.24,1.82-1.18,3.66-2.32,5.52-3.41-4.02-38.72-31.83-51.5-60.63-109.1Z"/><path class="cls-2" d="M89.52,155.18l.18-.14,.14-.11c1.53-1.2,3.02-2.43,4.43-3.64l.1-.09,.02-.02c2.66-2.3,5.2-4.69,7.6-7.16l-.63-.64c-4.76-4.82-9.96-9.28-15.52-13.34-5.06,2.48-22.51,9.89-57.12,13.95,34.6,4.06,52.05,11.47,57.11,13.95,1.25-.91,2.49-1.83,3.69-2.77Z"/><path class="cls-2" d="M201.78,129.86c-1.34,.97-2.67,1.96-3.96,2.97l-.16,.13-.14,.11c-1.53,1.21-3.03,2.44-4.41,3.63l-.11,.1-.02,.02c-2.65,2.29-5.19,4.69-7.61,7.17l.63,.64c4.83,4.89,10.11,9.42,15.78,13.53,4.5-2.26,21.95-9.97,57.51-14.15-35.53-4.17-52.98-11.87-57.5-14.14Z"/></g></svg>