<?xml version="1.0" encoding="UTF-8"?><svg xmlns="http://www.w3.org/2000/svg" viewBox="0 0 288 288"><defs><style>.c{fill:none;}.d{fill:#bbb;}</style></defs><g id="a"><rect class="c" width="288" height="288"/></g><g id="b"><g><path class="d" d="M0,144c0,9.22,.88,18.23,2.53,26.96H285.47c1.66-8.74,2.53-17.75,2.53-26.96H0Z"/><path class="d" d="M80.5,273.28h0l3.01,14.72h120.97l3-14.72h0c31.66-15.58,56.75-42.45,70.05-75.36H10.45c13.3,32.9,38.39,59.78,70.05,75.36Z"/></g><path class="d" d="M60.63,91.44c6.77,9.86,4.87,19.71,2.59,25.6h27.91c2.33-11.3,1.93-26.01-8.27-40.86-10.05-14.64-.99-29.29,.07-30.91l-.07,.11C83.56,44.35,97.16,24.04,90.41,0h-29.33c9.31,14.41,.53,28.63-.52,30.22l.07-.11c-.86,1.25-20.81,31.01,0,61.32Z"/><path class="d" d="M132.89,91.44c6.77,9.86,4.87,19.71,2.59,25.6h27.91c2.33-11.3,1.93-26.01-8.27-40.86-10.05-14.64-.99-29.29,.07-30.91l-.07,.11C155.82,44.35,169.42,24.04,162.66,0h-29.33c9.31,14.41,.53,28.63-.52,30.22l.07-.11c-.86,1.25-20.81,31.01,0,61.32Z"/><path class="d" d="M206.22,91.44c6.77,9.86,4.87,19.71,2.59,25.6h27.91c2.33-11.3,1.93-26.01-8.27-40.86-10.05-14.64-.99-29.29,.07-30.91l-.07,.11C229.15,44.35,242.75,24.04,236,0h-29.33c9.31,14.41,.53,28.63-.52,30.22l.07-.11c-.86,1.25-20.81,31.01,0,61.32Z"/></g></svg>