<?xml version="1.0" encoding="UTF-8"?><svg xmlns="http://www.w3.org/2000/svg" viewBox="0 0 288 288"><defs><style>.c{fill:none;}.d{fill:#bbb;}</style></defs><g id="a"><rect class="c" x="0" width="288" height="288"/></g><g id="b"><polygon class="d" points="205.5 135.56 163.75 7.05 124.25 7.05 102.22 74.86 130.8 74.86 144 34.23 182.38 152.36 205.5 135.56"/><polygon class="d" points="147.33 88.45 12.2 88.45 0 126.02 57.69 167.93 66.52 140.75 31.95 115.64 156.16 115.64 147.33 88.45"/><polygon class="d" points="84.55 129.23 42.8 257.74 74.75 280.95 132.44 239.04 109.32 222.24 74.75 247.35 113.13 129.23 84.55 129.23"/><polygon class="d" points="103.93 201.53 213.25 280.95 245.2 257.74 223.17 189.92 200.05 206.72 213.25 247.35 112.76 174.35 103.93 201.53"/><polygon class="d" points="178.68 205.44 288 126.02 275.8 88.45 204.49 88.45 213.32 115.64 256.05 115.64 155.56 188.64 178.68 205.44"/></g></svg>