<?xml version="1.0" encoding="UTF-8"?><svg xmlns="http://www.w3.org/2000/svg" viewBox="0 0 288 288"><defs><style>.c{fill:none;}.d{fill:#bbb;}</style></defs><g id="a"><rect class="c" x="0" width="288" height="288"/></g><g id="b"><polygon class="d" points="189.26 146.33 144 7.05 113.26 101.67 134.28 101.67 144 71.77 172.24 158.69 189.26 146.33"/><polygon class="d" points="86.99 150.15 61.55 131.67 152.95 131.67 146.45 111.67 0 111.67 80.49 170.15 86.99 150.15"/><polygon class="d" points="118.48 210.11 93.05 228.59 121.29 141.67 100.26 141.67 55 280.95 135.49 222.47 118.48 210.11"/><polygon class="d" points="202.25 186.33 185.24 198.69 194.95 228.59 121.02 174.87 114.52 194.87 233 280.95 202.25 186.33"/><polygon class="d" points="226.45 131.67 152.51 185.39 169.52 197.75 288 111.67 188.51 111.67 195.01 131.67 226.45 131.67"/></g></svg>