<?xml version="1.0" encoding="UTF-8"?><svg xmlns="http://www.w3.org/2000/svg" viewBox="0 0 288 288"><defs><style>.cls-1{fill:none;}.cls-2{fill:#bbb;}</style></defs><g id="Border"><rect class="cls-1" width="288" height="288"/></g><g id="Main"><polygon class="cls-2" points="105.82 105.82 111.62 86.51 65.58 65.58 86.51 111.62 105.82 105.82"/><polygon class="cls-2" points="182.18 105.82 201.49 111.62 222.42 65.58 176.38 86.51 182.18 105.82"/><polygon class="cls-2" points="105.82 182.18 86.51 176.38 65.58 222.42 111.62 201.49 105.82 182.18"/><polygon class="cls-2" points="182.18 182.18 176.38 201.49 222.42 222.42 201.49 176.38 182.18 182.18"/><path class="cls-2" d="M283.16,132.3c-2.51-2.51-5.62-4.03-8.87-4.59-1.69-13.58-5.52-26.94-11.44-39.55,1.93-2.07,3.12-4.84,3.12-7.89,0-6.39-5.18-11.58-11.58-11.58s-11.58,5.18-11.58,11.58,5.18,11.58,11.58,11.58c.55,0,1.09-.05,1.63-.13,5.43,11.65,8.98,23.96,10.58,36.47h0c-2.5,.77-4.85,2.13-6.83,4.11-3.21,3.21-4.82,7.4-4.84,11.61l-110.92,.2,31.99-32.1-24.25-80.85c1.42-.75,2.76-1.73,3.96-2.93,1.98-1.98,3.34-4.33,4.11-6.83h0c12.52,1.6,24.83,5.15,36.47,10.58-.08,.53-.13,1.08-.13,1.63,0,6.39,5.18,11.58,11.58,11.58s11.58-5.18,11.58-11.58-5.18-11.58-11.58-11.58c-3.05,0-5.82,1.19-7.89,3.12-12.62-5.92-25.97-9.75-39.55-11.43-.56-3.25-2.08-6.37-4.59-8.88C152.47,1.61,148.23,0,144,0s-8.47,1.61-11.7,4.84c-2.51,2.51-4.03,5.62-4.59,8.87-13.58,1.69-26.93,5.52-39.55,11.45-2.07-1.93-4.84-3.12-7.89-3.12-6.39,0-11.58,5.18-11.58,11.58s5.18,11.58,11.58,11.58,11.58-5.18,11.58-11.58c0-.55-.05-1.1-.13-1.63,11.65-5.43,23.96-8.98,36.47-10.58h0c.77,2.5,2.13,4.86,4.11,6.83,3.18,3.18,7.35,4.79,11.52,4.84l.2,110.93-32.08-31.97-80.78,24.23c-.75-1.42-1.73-2.76-2.93-3.96-1.98-1.98-4.33-3.34-6.83-4.11,1.6-12.52,5.15-24.83,10.58-36.47,.53,.08,1.08,.13,1.63,.13,6.39,0,11.58-5.18,11.58-11.58s-5.18-11.58-11.58-11.58-11.58,5.18-11.58,11.58c0,3.05,1.19,5.82,3.12,7.89-5.92,12.62-9.74,25.97-11.43,39.55-3.25,.56-6.38,2.08-8.89,4.59-6.46,6.46-6.46,16.93,0,23.39,2.51,2.51,5.63,4.03,8.88,4.59h0c1.69,13.58,5.52,26.93,11.44,39.55-1.93,2.07-3.12,4.84-3.12,7.89,0,6.39,5.18,11.58,11.58,11.58s11.58-5.18,11.58-11.58-5.18-11.58-11.58-11.58c-.55,0-1.09,.05-1.63,.13-5.43-11.65-8.98-23.96-10.58-36.47h0c2.5-.77,4.85-2.13,6.83-4.11,3.18-3.18,4.79-7.33,4.84-11.5h0l110.93-.2-31.97,32.07,24.23,80.76h0c-1.42,.75-2.76,1.73-3.96,2.93-1.98,1.98-3.34,4.33-4.11,6.83h0c-12.52-1.6-24.83-5.15-36.47-10.58,.08-.53,.13-1.08,.13-1.63,0-6.39-5.18-11.58-11.58-11.58s-11.58,5.18-11.58,11.58,5.18,11.58,11.58,11.58c3.05,0,5.82-1.19,7.89-3.12,12.62,5.92,25.97,9.75,39.55,11.43,.56,3.25,2.08,6.37,4.59,8.88,3.23,3.23,7.46,4.84,11.7,4.84s8.47-1.61,11.7-4.84c2.51-2.51,4.03-5.62,4.59-8.87h0c13.58-1.69,26.94-5.52,39.55-11.45,2.07,1.93,4.84,3.12,7.89,3.12,6.39,0,11.58-5.18,11.58-11.58s-5.18-11.58-11.58-11.58-11.58,5.18-11.58,11.58c0,.55,.05,1.1,.13,1.63-11.65,5.43-23.96,8.98-36.47,10.58h0c-.77-2.5-2.13-4.86-4.11-6.83-3.19-3.19-7.35-4.79-11.52-4.84h0l-.2-110.82,32.01,31.9v-.02l80.85-24.25c.75,1.42,1.73,2.76,2.93,3.96,1.98,1.98,4.33,3.34,6.83,4.11h0c-1.6,12.52-5.15,24.83-10.58,36.47-.53-.08-1.08-.13-1.63-.13-6.39,0-11.58,5.18-11.58,11.58s5.18,11.58,11.58,11.58,11.58-5.18,11.58-11.58c0-3.05-1.19-5.82-3.12-7.89,5.92-12.61,9.74-25.97,11.43-39.55h0c3.26-.56,6.38-2.08,8.89-4.59,6.46-6.46,6.46-16.93,0-23.39ZM160.49,17.69c0-.08,0-.17,.01-.26,0,.09,0,.17-.01,.26Zm.02-1.9c0-.08,0-.15-.01-.23,0,.08,0,.15,.01,.23Zm-33-.25c0,.08,0,.16-.01,.24,0-.08,0-.16,.01-.24Zm0,2.15c0-.09,0-.18-.01-.27,0,.09,0,.18,.01,.27Zm.22,1.82h0Zm10.02-9.21c1.67-1.67,3.89-2.59,6.25-2.59s4.58,.92,6.25,2.59c3.45,3.45,3.45,9.05,0,12.5-1.67,1.67-3.89,2.59-6.25,2.59s-4.58-.92-6.25-2.59c-3.45-3.45-3.45-9.05,0-12.5Zm12.21,21.67c-.13,.05-.27,.09-.4,.14,.13-.05,.27-.09,.4-.14Zm-1.85,.58c-.15,.04-.3,.08-.45,.11,.15-.03,.3-.07,.45-.11Zm-2.11,.4c-.06,0-.13,.02-.19,.03,.06,0,.13-.02,.19-.03ZM17.69,127.51c-.08,0-.17,0-.25-.01,.08,0,.17,0,.25,.01Zm-1.9-.02c-.08,0-.15,0-.22,.01,.08,0,.15,0,.22-.01Zm-.24,33c.08,0,.16,0,.24,.01-.08,0-.16,0-.24-.01Zm1.88,0c.09,0,.17,0,.26-.01-.09,0-.17,0-.26,.01Zm5.37-10.25c-1.67,1.67-3.89,2.59-6.25,2.59s-4.58-.92-6.25-2.59c-3.45-3.45-3.45-9.05,0-12.5,1.67-1.67,3.89-2.59,6.25-2.59s4.58,.92,6.25,2.59c3.45,3.45,3.45,9.05,0,12.5Zm10.16-8.21s.02,.1,.02,.15c0-.05-.02-.1-.02-.15Zm-.99-4c.05,.13,.09,.27,.14,.4-.05-.13-.09-.27-.14-.4Zm.59,1.86c.04,.15,.07,.29,.11,.44-.03-.15-.07-.29-.11-.44Zm95.19,128.59h0Zm-.22,1.83c0,.09,0,.17-.01,.26,0-.09,0-.17,.01-.26Zm-.02,1.9c0,.08,0,.15,.01,.23,0-.08,0-.15-.01-.23Zm33,.25c0-.08,0-.16,.01-.24,0,.08,0,.16-.01,.24Zm-.23-3.96v0Zm.23,2.08c0-.09,0-.18-.01-.27,0,.09,0,.18,.01,.27Zm-10.25,7.12c-1.67,1.67-3.89,2.59-6.25,2.59s-4.58-.92-6.25-2.59c-3.45-3.45-3.45-9.05,0-12.5,1.67-1.67,3.89-2.59,6.25-2.59s4.58,.92,6.25,2.59c3.45,3.45,3.45,9.05,0,12.5Zm-8.26-22.65c.07,0,.13-.02,.2-.03-.07,0-.13,.02-.2,.03Zm-3.95,.98c.13-.05,.27-.09,.41-.14-.14,.05-.27,.09-.41,.14Zm1.85-.58c.15-.04,.3-.08,.45-.11-.15,.03-.3,.07-.45,.11Zm116.01-105.89c.05,.14,.09,.28,.15,.42-.05-.14-.1-.28-.15-.42Zm-.87-3.74c.01,.13,.04,.25,.05,.37-.02-.13-.04-.25-.05-.37Zm.32,1.84c.04,.17,.08,.34,.12,.51-.04-.17-.09-.34-.12-.51Zm17.11-20.16c-.08,0-.16,0-.24-.01,.08,0,.16,0,.24,.01Zm-1.88,0c-.09,0-.17,0-.26,.01,.09,0,.17,0,.26-.01Zm-.26,32.98c.08,0,.17,0,.25,.01-.08,0-.17,0-.25-.01Zm1.9,.02c.08,0,.15,0,.23-.01-.08,0-.15,0-.23,.01Zm5.49-10.25c-1.67,1.67-3.89,2.59-6.25,2.59s-4.58-.92-6.25-2.59c-3.45-3.45-3.45-9.05,0-12.5,1.67-1.67,3.89-2.59,6.25-2.59s4.58,.92,6.25,2.59c3.45,3.45,3.45,9.05,0,12.5Z"/></g></svg>