<?xml version="1.0" encoding="UTF-8"?><svg xmlns="http://www.w3.org/2000/svg" viewBox="0 0 288 288"><defs><style>.cls-1{fill:none;}.cls-2{fill:#bbb;}</style></defs><g id="Border"><rect class="cls-1" width="288" height="288"/></g><g id="Main"><path class="cls-2" d="M284.3,111.42c-6.55-28.32-21.46-53.43-41.98-72.62-11.38,3.03-23.91,1.72-34.91-4.63-11.02-6.36-18.41-16.58-21.48-27.96C172.66,2.18,158.59,0,144,0s-28.66,2.18-41.93,6.21c-3.06,11.38-10.46,21.6-21.48,27.96-11,6.35-23.53,7.65-34.91,4.63C25.16,57.99,10.25,83.1,3.7,111.42c8.33,8.34,13.48,19.86,13.48,32.58s-5.15,24.24-13.48,32.58c6.55,28.32,21.46,53.43,41.98,72.62,11.38-3.03,23.91-1.72,34.91,4.63,11.02,6.36,18.41,16.58,21.48,27.96,13.27,4.03,27.35,6.21,41.93,6.21s28.66-2.18,41.93-6.21c3.06-11.38,10.46-21.6,21.48-27.96,11-6.35,23.53-7.65,34.91-4.63,20.52-19.19,35.43-44.3,41.98-72.62-8.33-8.34-13.48-19.86-13.48-32.58s5.15-24.24,13.48-32.58ZM144,30.79c12.51,0,22.64,10.14,22.64,22.64,0,9.84-6.29,18.2-15.07,21.32l10.15,28.55-11.01,19.07c-2.12-.66-4.38-1.01-6.71-1.01s-4.59,.35-6.71,1.01l-11.01-19.07,10.15-28.55c-8.77-3.12-15.07-11.47-15.07-21.32,0-12.51,10.14-22.64,22.64-22.64Zm12.64,113.21c0,6.97-5.67,12.64-12.64,12.64s-12.64-5.67-12.64-12.64,5.67-12.64,12.64-12.64,12.64,5.67,12.64,12.64ZM45.96,87.39c6.25-10.83,20.1-14.54,30.93-8.29,8.52,4.92,12.61,14.55,10.93,23.71l29.8,5.49,11.02,19.08c-3.3,3.05-5.69,7.08-6.71,11.62h-22.03l-19.65-23.07c-7.09,6.04-17.47,7.31-25.99,2.39-10.83-6.25-14.54-20.1-8.29-30.93Zm41.86,97.79c1.68,9.16-2.4,18.78-10.93,23.71-10.83,6.25-24.68,2.54-30.93-8.29-6.25-10.83-2.54-24.68,8.29-30.93,8.52-4.92,18.9-3.65,25.99,2.39l19.65-23.07h22.03c1.02,4.54,3.41,8.57,6.71,11.62l-11.02,19.08-29.8,5.49Zm56.19,72.02c-12.51,0-22.64-10.14-22.64-22.64,0-9.84,6.29-18.2,15.07-21.32l-10.15-28.55,11.01-19.07c2.12,.66,4.38,1.01,6.71,1.01s4.59-.35,6.71-1.01l11.01,19.07-10.15,28.55c8.77,3.12,15.07,11.47,15.07,21.32,0,12.51-10.14,22.64-22.64,22.64Zm98.05-56.61c-6.25,10.83-20.1,14.54-30.93,8.29-8.52-4.92-12.61-14.55-10.93-23.71l-29.8-5.49-11.02-19.08c3.3-3.05,5.69-7.08,6.71-11.62h22.03l19.65,23.07c7.09-6.04,17.47-7.31,25.99-2.39,10.83,6.25,14.54,20.1,8.29,30.93Zm-8.29-82.28c-8.52,4.92-18.9,3.65-25.99-2.39l-19.65,23.07h-22.03c-1.02-4.54-3.41-8.57-6.71-11.62l11.02-19.08,29.8-5.49c-1.68-9.16,2.4-18.78,10.93-23.71,10.83-6.25,24.68-2.54,30.93,8.29,6.25,10.83,2.54,24.68-8.29,30.93Z"/></g></svg>