<?xml version="1.0" encoding="UTF-8"?><svg xmlns="http://www.w3.org/2000/svg" viewBox="0 0 288 288"><defs><style>.cls-1{fill:none;}.cls-2{fill:#bbb;}</style></defs><g id="Border"><rect class="cls-1" width="288" height="288"/></g><g id="Main"><g><path class="cls-2" d="M144,0c-10.71,64.26-42.84,85.69-42.84,85.69l.04,.04,.08,.08,.06,.06s.09,.09,.15,.14l.09,.08c.07,.06,.14,.13,.22,.21l.08,.07c3.15,2.97,16.32,14.74,31.38,19.09h0c3.51,1.01,7.13,1.64,10.74,1.64s7.23-.62,10.74-1.64h0c15.06-4.35,28.23-16.12,31.38-19.09l.08-.07c.08-.08,.16-.15,.22-.21l.09-.08c.05-.05,.11-.1,.15-.14l.06-.06,.08-.08,.04-.04S154.71,64.26,144,0Z"/><path class="cls-2" d="M246.05,84.81c-1.18,7.09-2.8,13.29-4.66,18.68-.62,1.8-1.27,3.51-1.93,5.13-.33,.81-.67,1.6-1.01,2.37-7.83,17.69-17.59,24.2-17.59,24.2h.01l.05,.06,.05,.05c.06,.06,.15,.15,.27,.26l.02,.02c1.82,1.72,9.57,8.67,18.45,11.24h0c2.07,.6,4.2,.97,6.34,.97s4.24-.36,6.3-.96h0c8.89-2.56,16.67-9.53,18.49-11.25l.02-.02c.12-.11,.22-.21,.28-.27l.02-.02,.08-.08s-18.9-12.6-25.19-50.39Z"/><path class="cls-2" d="M41.95,84.81c-6.3,37.79-25.19,50.39-25.19,50.39l.08,.08,.02,.02c.06,.06,.16,.15,.28,.27l.02,.02c1.82,1.72,9.6,8.69,18.49,11.25h0c2.06,.59,4.18,.96,6.3,.96s4.26-.37,6.34-.97h0c8.88-2.57,16.64-9.53,18.46-11.24h.01c.12-.13,.21-.22,.28-.28l.03-.03,.07-.07s-18.9-12.6-25.19-50.39Z"/><path class="cls-2" d="M246.05,159.69c-2.46,0-4.87-.31-7.21-.83-5.1,38.69-30.58,47-30.58,47,0,0-47.01-15.27-52.93-88.24-3.68,.87-7.48,1.38-11.33,1.38s-7.65-.51-11.33-1.38c-5.92,72.98-52.93,88.24-52.93,88.24,0,0-25.48-8.31-30.58-47-2.34,.52-4.75,.83-7.21,.83-2.14,0-4.25-.23-6.3-.63v84.28c72.01,0,86.5,44.65,86.5,44.65v-25.84c0-35.25,21.86-42.34,21.86-42.34,0,0,21.86,7.09,21.86,42.34v25.84s14.48-44.65,86.5-44.65v-84.28c-2.05,.4-4.16,.63-6.3,.63Z"/></g></g></svg>