<?xml version="1.0" encoding="UTF-8"?><svg xmlns="http://www.w3.org/2000/svg" viewBox="0 0 288 288"><defs><style>.cls-1{fill:none;}.cls-2{fill:#bbb;}</style></defs><g id="Border"><rect class="cls-1" width="288" height="288"/></g><g id="Main"><path class="cls-2" d="M128.49,253.52c-22.53-37.98-13.53-86.06,19.16-113.64-25.96-4.18-60.44-19.76-75.03-46.74C51.27,53.64,64.83,18.76,78.72,0,10,29.77-5.31,110.93,9.36,171.16c18.73,76.95,86.47,114.26,156.45,116.84-15.03-7.37-28.15-19.04-37.31-34.48Z"/><path class="cls-2" d="M281.03,152.5c-5.42-25.96-18.87-50.55-37.86-69.22-16.7-16.42-37.19-27.93-59.99-33.82,11.66,16.18,20.18,38.28,18.29,59.42-1.7,19.04-11.61,34.45-28.65,44.56-30.1,17.86-40.07,56.87-22.21,86.98,11.38,19.19,32.32,31.11,54.66,31.11,11.33,0,22.51-3.07,32.32-8.89,18.62-11.05,32.38-27.52,39.77-47.65,6.97-18.98,8.24-40.58,3.67-62.47Zm-67.08,70.27c-8.14,4.83-18.66,2.14-23.49-6-4.83-8.14-2.14-18.66,6-23.49,8.14-4.83,18.66-2.14,23.49,6,4.83,8.14,2.14,18.66-6,23.49Zm23.8-50.59c-4.85,2.88-11.12,1.28-14-3.58-2.88-4.85-1.28-11.12,3.58-14,4.85-2.88,11.12-1.28,14,3.58,2.88,4.85,1.28,11.12-3.58,14Z"/></g></svg>