<?xml version="1.0" encoding="UTF-8"?><svg xmlns="http://www.w3.org/2000/svg" viewBox="0 0 288 288"><defs><style>.cls-1{fill:none;}.cls-2{fill:#bbb;}</style></defs><g id="Border"><rect class="cls-1" width="288" height="288"/></g><g id="Main"><circle class="cls-2" cx="144" cy="113.67" r="13.95"/><path class="cls-2" d="M25.38,276.59h59.21v-70.23c0-23.36-18.94-42.29-42.29-42.29S0,183,0,206.36c0,17.34,10.44,32.24,25.38,38.76v31.46Zm16.92-84.18c7.71,0,13.95,6.25,13.95,13.95s-6.25,13.95-13.95,13.95-13.95-6.25-13.95-13.95,6.25-13.95,13.95-13.95Z"/><path class="cls-2" d="M262.62,276.59v-31.46c14.94-6.53,25.38-21.42,25.38-38.76,0-23.36-18.94-42.29-42.29-42.29s-42.29,18.94-42.29,42.29v70.23h59.21Zm-16.92-84.18c7.71,0,13.95,6.25,13.95,13.95s-6.25,13.95-13.95,13.95-13.95-6.25-13.95-13.95,6.25-13.95,13.95-13.95Z"/><path class="cls-2" d="M99.59,206.36v55.23h88.82v-55.23c0-31.59,25.7-57.29,57.29-57.29,.2,0,.39,.01,.59,.02v-35.38c0-56.5-45.8-102.3-102.3-102.3S41.7,57.21,41.7,113.71v35.38c.2,0,.39-.02,.59-.02,31.59,0,57.29,25.7,57.29,57.29Zm44.41,33.21c-4.14,0-7.5-3.36-7.5-7.5s3.36-7.5,7.5-7.5,7.5,3.36,7.5,7.5-3.36,7.5-7.5,7.5Zm0-29.52c-4.14,0-7.5-3.36-7.5-7.5s3.36-7.5,7.5-7.5,7.5,3.36,7.5,7.5-3.36,7.5-7.5,7.5Zm-33.6-119.91c4.76-.02,9.44,1.21,13.58,3.55-2.34-4.14-3.56-8.82-3.54-13.58,0-14.21,10.54-25.74,23.56-25.74s23.56,11.53,23.56,25.74c.02,4.76-1.2,9.44-3.54,13.58,4.14-2.34,8.82-3.57,13.58-3.55,14.21,0,25.74,10.55,25.74,23.57s-11.53,23.56-25.74,23.56c-4.76,.02-9.44-1.2-13.58-3.55,2.34,4.15,3.56,8.83,3.54,13.59,0,14.21-10.54,25.74-23.56,25.74s-23.56-11.52-23.56-25.74c-.02-4.76,1.2-9.45,3.54-13.59-4.14,2.35-8.82,3.57-13.58,3.55-14.21,0-25.74-10.54-25.74-23.56s11.53-23.57,25.74-23.57Z"/></g></svg>