<svg xmlns="http://www.w3.org/2000/svg" viewBox="0 0 288 288"><defs><style>.cls-1{fill:none;}.cls-2{fill:#222;fill-rule:evenodd;}</style></defs><g id="Border"><rect class="cls-1" width="288" height="288"/></g><g id="Main"><path class="cls-2" d="M126,60.56c-6.62-2.53-17.79-.29-30,4.3l-.06,0c-.59-.21-1.19-.41-1.79-.6s-1.21-.33-1.81-.48l-.91-.21-.93-.17a35.52,35.52,0,0,0-3.71-.49c-.62,0-1.25-.07-1.87-.09s-1.25,0-1.88,0-1.25.07-1.87.13-1.25.15-1.87.25-1.24.23-1.85.4c-.31.08-.61.16-.92.26s-.61.2-.9.33c.62.19,1.22.35,1.82.51l1.8.44c.59.15,1.19.28,1.78.4l.88.2.88.18,1.76.36c.58.12,1.17.24,1.75.34,1.16.24,2.33.43,3.49.66l.11,0A208.36,208.36,0,0,0,48.79,90.71c0-.87-.06-1.74,0-2.62a46.62,46.62,0,0,1,.64-6.47c.18-1.1.39-2.21.62-3.33s.5-2.27.76-3.49a9.58,9.58,0,0,0-1.36,1.26c-.22.22-.41.46-.61.7s-.38.48-.56.73a17.94,17.94,0,0,0-1.83,3.22A19.28,19.28,0,0,0,44.78,88a18.44,18.44,0,0,0,.31,3.78c.1.52.23,1,.38,1.55-4.54,3.75-7.52,7-8.16,9.28-1.09,3.85,2.59,10.42,6.43,11.51,2.26.63,6.63-.2,12.22-2.11a8.64,8.64,0,0,1,1.18,8c7.4-2.81,8.49-8.19,8.28-11.79C89.25,97.77,123.15,75.83,126,60.56Z"/><path class="cls-2" d="M39.63,72.59a12.24,12.24,0,0,1,2.15-1.88,19.13,19.13,0,0,1,2.64-1.47,11.49,11.49,0,0,0-3.11.47,10.79,10.79,0,0,0-2.94,1.42,12,12,0,0,0-2.46,2.25,17.24,17.24,0,0,0-1.85,2.7C33,78,32.21,79.87,31.36,81.57A15.69,15.69,0,0,1,30,83.9a6.55,6.55,0,0,1-1.64,1.64,4.91,4.91,0,0,1-4.09.78,5,5,0,0,1-1.91-1,4.25,4.25,0,0,1-1.22-1.75A3.9,3.9,0,0,1,21,81.38a3.69,3.69,0,0,1,.4-1,2.67,2.67,0,0,1,.71-.82,2.42,2.42,0,0,1,1-.46,2.45,2.45,0,0,1,1.2,0,2.51,2.51,0,0,1,.58.26,2.24,2.24,0,0,1,.51.42,3,3,0,0,1,.65,1.3,2.77,2.77,0,0,0-.13-1.6,3.07,3.07,0,0,0-.44-.76,3.55,3.55,0,0,0-.67-.61,3.59,3.59,0,0,0-1.73-.6,4.14,4.14,0,0,0-1.9.28,4.55,4.55,0,0,0-1.6,1.12,5.57,5.57,0,0,0-1.06,1.6,6.46,6.46,0,0,0-.53,1.83,6.21,6.21,0,0,0,.06,2,6.67,6.67,0,0,0,.64,1.87,7.25,7.25,0,0,0,1.12,1.61A8.08,8.08,0,0,0,27,90.26a8.53,8.53,0,0,0,1.89-.53,9.6,9.6,0,0,0,1.7-.92c.14-.09.26-.19.39-.29l.38-.3c.13-.1.23-.21.35-.32l.33-.33c.21-.23.42-.47.62-.71s.37-.48.53-.72a16.7,16.7,0,0,0,1.57-3c.83-2,1.38-3.91,2.08-5.7A21.33,21.33,0,0,1,38,74.87,12.77,12.77,0,0,1,39.63,72.59Z"/><path class="cls-2" d="M85.31,52.77a3,3,0,0,0,1.76-.34,4.59,4.59,0,0,1-.27.63,3.34,3.34,0,0,1-.51.76,1.89,1.89,0,0,1-.54.43,2.36,2.36,0,0,1-.62.24,4.7,4.7,0,0,1-.84.12,11.87,11.87,0,0,1-2.15-.13c-.77-.11-1.59-.26-2.44-.42l-2.59-.51-1.37-.23c-.47-.08-.93-.14-1.43-.19a8.55,8.55,0,0,0,.9,1.16,12.24,12.24,0,0,0,1,1A15.67,15.67,0,0,0,78.59,57a12.75,12.75,0,0,0,2.72,1.17,9.46,9.46,0,0,0,3.21.42,6.75,6.75,0,0,0,1.82-.36,5.11,5.11,0,0,0,1.75-1,4.91,4.91,0,0,0,1.22-1.6,5.88,5.88,0,0,0,.5-1.74,7.7,7.7,0,0,0,0-.83c0-.27,0-.53,0-.79s0-.26,0-.39,0-.25-.07-.37-.12-.49-.18-.73-.15-.47-.24-.71-.18-.45-.29-.67-.22-.44-.35-.65-.4-.6-.41-.6a3.05,3.05,0,0,0-5.62,1.28A3.06,3.06,0,0,0,85.31,52.77Z"/><path class="cls-2" d="M51.71,43.76a4.37,4.37,0,0,0,1.9-.6A12.93,12.93,0,0,0,55,45a15.47,15.47,0,1,0,14.21,3.23A12.62,12.62,0,0,0,75.72,42a4.43,4.43,0,0,0,1.58.2c3-.2,5.32-3.59,5.06-7.57s-2.93-7-6-6.86a4.5,4.5,0,0,0-2.27.82,12.61,12.61,0,0,0-20.63,1.56,4.55,4.55,0,0,0-2.87-.78c-3,.23-5.27,3.65-5,7.63S48.67,44,51.71,43.76Z"/><path class="cls-2" d="M28.3,55.3a3.05,3.05,0,0,0,1.56-5.88c.43-.19.85-.38,1.26-.54.8-.35,1.6-.61,2.37-.86l.59-.17.59-.14.29-.07.29,0c.2,0,.39-.09.59-.11s.38-.07.58-.08l.59-.07.59,0h.6a18.67,18.67,0,0,1,2.46.12,22.71,22.71,0,0,1,2.6.43c.91.18,1.81.41,2.81.68a6.11,6.11,0,0,0-.83-1.3,8.63,8.63,0,0,0-1.07-1.11,10.44,10.44,0,0,0-2.62-1.7,11.22,11.22,0,0,0-3.08-.88l-.82-.08-.81,0-.82,0c-.27,0-.54.07-.81.11a6.66,6.66,0,0,0-.8.16,7.06,7.06,0,0,0-.79.21c-.25.09-.52.16-.76.27l-.74.32a11.25,11.25,0,0,0-2.65,1.71A12,12,0,0,0,27.4,48.5c-.29.42-.55.85-.8,1.29s-.39.83-.55,1.27A3.06,3.06,0,0,0,28.3,55.3Z"/><path class="cls-2" d="M270,204.56c-6.62-2.53-17.79-.29-30,4.3l-.06,0c-.59-.21-1.19-.41-1.79-.6s-1.21-.33-1.81-.48l-.91-.21-.93-.17a35.52,35.52,0,0,0-3.71-.49c-.62,0-1.25-.07-1.87-.09s-1.25,0-1.88,0-1.25.07-1.87.13-1.25.15-1.87.25-1.24.23-1.85.4c-.31.08-.61.16-.92.26s-.61.2-.9.33c.62.19,1.22.35,1.82.51l1.8.44c.59.15,1.19.28,1.78.4l.88.2.88.18,1.76.36c.58.12,1.17.24,1.75.34,1.16.24,2.33.43,3.49.66l.11,0a208.36,208.36,0,0,0-41.09,23.41c0-.87-.06-1.74,0-2.62a46.62,46.62,0,0,1,.64-6.47c.18-1.1.39-2.21.62-3.33s.5-2.27.76-3.49a9.58,9.58,0,0,0-1.36,1.26c-.22.22-.41.46-.61.7s-.38.48-.56.73a17.94,17.94,0,0,0-1.83,3.22,19.28,19.28,0,0,0-1.62,7.3,18.44,18.44,0,0,0,.31,3.78c.1.52.23,1,.38,1.55-4.54,3.75-7.52,7-8.16,9.28-1.09,3.85,2.59,10.42,6.43,11.51,2.26.63,6.63-.2,12.22-2.11a8.64,8.64,0,0,1,1.18,8.05c7.4-2.81,8.49-8.19,8.28-11.79C233.25,241.77,267.15,219.83,270,204.56Z"/><path class="cls-2" d="M183.63,216.59a12.24,12.24,0,0,1,2.15-1.88,19.13,19.13,0,0,1,2.64-1.47,11.49,11.49,0,0,0-3.11.47,10.79,10.79,0,0,0-2.94,1.42,12,12,0,0,0-2.46,2.25,17.24,17.24,0,0,0-1.85,2.7c-1.07,1.87-1.85,3.79-2.7,5.49A15.69,15.69,0,0,1,174,227.9a6.55,6.55,0,0,1-1.64,1.64,4.91,4.91,0,0,1-4.09.78,5,5,0,0,1-1.91-1,4.25,4.25,0,0,1-1.22-1.75,3.9,3.9,0,0,1-.11-2.18,3.69,3.69,0,0,1,.4-1,2.67,2.67,0,0,1,.71-.82,2.42,2.42,0,0,1,1-.46,2.45,2.45,0,0,1,1.2,0,2.51,2.51,0,0,1,.58.26,2.24,2.24,0,0,1,.51.42,3,3,0,0,1,.65,1.3,2.77,2.77,0,0,0-.13-1.6,3.07,3.07,0,0,0-.44-.76,3.55,3.55,0,0,0-.67-.61,3.59,3.59,0,0,0-1.73-.6,4.14,4.14,0,0,0-1.9.28,4.55,4.55,0,0,0-1.6,1.12,5.57,5.57,0,0,0-1.06,1.6,6.46,6.46,0,0,0-.53,1.83,6.21,6.21,0,0,0,.06,2,6.67,6.67,0,0,0,.64,1.87,7.25,7.25,0,0,0,1.12,1.61,8.08,8.08,0,0,0,7.15,2.48,8.53,8.53,0,0,0,1.89-.53,9.6,9.6,0,0,0,1.7-.92c.14-.09.26-.19.39-.29l.38-.3c.13-.1.23-.21.35-.32l.33-.33c.21-.23.42-.47.62-.71s.37-.48.53-.72a16.7,16.7,0,0,0,1.57-3c.83-2,1.38-3.91,2.08-5.7a21.33,21.33,0,0,1,1.18-2.56A12.77,12.77,0,0,1,183.63,216.59Z"/><path class="cls-2" d="M229.31,196.77a3,3,0,0,0,1.76-.34,4.59,4.59,0,0,1-.27.63,3.34,3.34,0,0,1-.51.76,1.89,1.89,0,0,1-.54.43,2.36,2.36,0,0,1-.62.24,4.7,4.7,0,0,1-.84.12,11.87,11.87,0,0,1-2.15-.13c-.77-.11-1.59-.26-2.44-.42l-2.59-.51-1.37-.23c-.47-.08-.93-.14-1.43-.19a8.55,8.55,0,0,0,.9,1.16,12.24,12.24,0,0,0,1,1,15.67,15.67,0,0,0,2.35,1.68,12.75,12.75,0,0,0,2.72,1.17,9.46,9.46,0,0,0,3.21.42,6.75,6.75,0,0,0,1.82-.36,5.11,5.11,0,0,0,1.75-1,4.91,4.91,0,0,0,1.22-1.6,5.88,5.88,0,0,0,.5-1.74,7.7,7.7,0,0,0,.05-.83c0-.27,0-.53,0-.79s0-.26,0-.39-.05-.25-.07-.37-.12-.49-.18-.73-.15-.47-.24-.71-.18-.45-.29-.67-.22-.44-.35-.65-.4-.6-.41-.6a3.05,3.05,0,0,0-5.62,1.28A3.06,3.06,0,0,0,229.31,196.77Z"/><path class="cls-2" d="M195.71,187.76a4.37,4.37,0,0,0,1.9-.6A12.93,12.93,0,0,0,199,189a15.47,15.47,0,1,0,14.21,3.23,12.62,12.62,0,0,0,6.56-6.21,4.43,4.43,0,0,0,1.58.2c3-.2,5.32-3.59,5.06-7.57s-2.93-7.05-6-6.86a4.5,4.5,0,0,0-2.27.82,12.61,12.61,0,0,0-20.63,1.56,4.55,4.55,0,0,0-2.87-.78c-3.05.23-5.27,3.65-5,7.63S192.67,188,195.71,187.76Z"/><path class="cls-2" d="M172.3,199.3a3.05,3.05,0,0,0,1.56-5.88c.43-.19.85-.38,1.26-.54.8-.35,1.6-.61,2.37-.86l.59-.17.59-.14.29-.07.29,0c.2,0,.39-.09.59-.11s.38-.07.58-.08l.59-.07.59,0h.6a18.67,18.67,0,0,1,2.46.12,22.71,22.71,0,0,1,2.6.43c.91.18,1.81.41,2.81.68a6.11,6.11,0,0,0-.83-1.3,8.63,8.63,0,0,0-1.07-1.11,10.44,10.44,0,0,0-2.62-1.7,11.22,11.22,0,0,0-3.08-.88l-.82-.08-.81,0-.82,0c-.27,0-.54.07-.81.11a6.66,6.66,0,0,0-.8.16,7.06,7.06,0,0,0-.79.21c-.25.09-.52.16-.76.27l-.74.32a11.25,11.25,0,0,0-2.65,1.71,12,12,0,0,0-2.07,2.26c-.29.42-.55.85-.8,1.29s-.39.83-.55,1.27a3.06,3.06,0,0,0,2.25,4.24Z"/></g></svg>