<?xml version="1.0" encoding="UTF-8"?><svg xmlns="http://www.w3.org/2000/svg" viewBox="0 0 288 288"><defs><style>.cls-1{fill:none;}.cls-2{fill:#bbb;}</style></defs><g id="Border"><rect class="cls-1" width="288" height="288"/></g><g id="Amphyllate"><g><path class="cls-2" d="M222.78,160.74l-38.68-58.02s0,0,0-.01c-.25-.37-.52-.74-.8-1.08-.11-.14-.24-.26-.36-.4-.17-.19-.33-.38-.51-.56-.22-.22-.45-.42-.68-.62-.1-.08-.19-.17-.28-.25-.22-.18-.46-.35-.69-.52-.12-.09-.24-.18-.36-.26-.2-.14-.41-.25-.62-.38-.17-.1-.34-.21-.51-.3-.17-.09-.34-.17-.52-.25-.22-.11-.45-.22-.68-.32-.13-.05-.27-.1-.4-.15-.27-.1-.55-.21-.83-.29-.11-.03-.23-.06-.34-.09-.3-.08-.61-.17-.92-.23-.22-.04-.43-.07-.65-.1-.21-.03-.42-.07-.63-.1-.45-.05-.9-.07-1.35-.07,0,0-.01,0-.02,0h-8.09c-6.21,3.42-13.34,5.37-20.92,5.37s-14.71-1.95-20.92-5.37h-8.09s-.01,0-.02,0c-.43,0-.85,.02-1.27,.06-.34,.03-.67,.09-1,.14-.11,.02-.23,.03-.34,.05-.34,.07-.68,.16-1.01,.25-.08,.02-.17,.04-.25,.06-.3,.09-.59,.2-.89,.31-.12,.04-.24,.08-.35,.13-.25,.1-.48,.22-.72,.34-.16,.08-.32,.15-.47,.23-.19,.1-.36,.21-.54,.32-.2,.12-.4,.23-.59,.36-.13,.09-.26,.19-.39,.28-.23,.16-.45,.32-.67,.5-.11,.09-.2,.19-.31,.28-.22,.19-.45,.39-.66,.6-.19,.19-.37,.4-.55,.6-.11,.12-.22,.23-.33,.36-.29,.35-.55,.71-.81,1.09,0,0,0,0,0,.01l-38.68,58.02c-4.11,6.17-2.45,14.51,3.73,18.63,2.29,1.53,4.88,2.26,7.44,2.26,4.34,0,8.6-2.1,11.19-5.98l23.75-35.62v37.17l-9.6,96.04c-.74,7.38,4.65,13.96,12.03,14.7,.45,.05,.91,.07,1.35,.07,6.82,0,12.66-5.17,13.35-12.1l8.46-84.61h14.37l8.46,84.61c.69,6.93,6.53,12.1,13.35,12.1,.45,0,.9-.02,1.35-.07,7.38-.74,12.77-7.32,12.03-14.7l-9.6-96.04v-37.17l23.75,35.62c2.59,3.88,6.85,5.98,11.19,5.98,2.56,0,5.15-.73,7.44-2.26,6.17-4.11,7.84-12.45,3.73-18.63Z"/><path class="cls-2" d="M148.26,26.11l-4.35-11.6-4.35,11.6c-16.04,2.13-28.42,15.85-28.42,32.48,0,18.1,14.67,32.77,32.77,32.77s32.77-14.67,32.77-32.77c0-16.62-12.38-30.35-28.42-32.48Z"/><path class="cls-2" d="M176.69,2.39s-16.66,27.17-32.77,11.81c2.61-22.1,32.77-11.81,32.77-11.81Z"/><path class="cls-2" d="M111.14,2.39s16.66,27.17,32.77,11.81c-2.61-22.1-32.77-11.81-32.77-11.81Z"/></g></g></svg>