<?xml version="1.0" encoding="UTF-8"?><svg xmlns="http://www.w3.org/2000/svg" viewBox="0 0 288 288"><defs><style>.cls-1{fill-rule:evenodd;}.cls-1,.cls-2{fill:#bbb;}.cls-3{fill:none;}</style></defs><g id="Border"><rect class="cls-3" width="288" height="288"/></g><g id="Devil"><g><path class="cls-2" d="M229.23,197.62l-49.96-41.38v-27.53l25.56,38.34c2.79,4.18,7.37,6.44,12.04,6.44,2.76,0,5.54-.79,8.01-2.43,6.64-4.43,8.44-13.41,4.01-20.05l-41.64-62.46s0,0,0-.01c-.27-.4-.56-.79-.87-1.17-.11-.14-.24-.26-.36-.39-.19-.22-.38-.43-.58-.64-.23-.23-.48-.44-.72-.66-.11-.09-.21-.19-.32-.28-.24-.2-.49-.37-.73-.55-.13-.1-.26-.2-.4-.29-.21-.14-.44-.27-.66-.4-.19-.11-.37-.23-.56-.33-.18-.09-.36-.17-.54-.26-.25-.12-.49-.24-.74-.35-.14-.06-.28-.1-.42-.15-.3-.11-.6-.23-.91-.32-.11-.03-.23-.06-.34-.09-.34-.09-.67-.19-1.02-.25-.2-.04-.4-.06-.6-.09-.26-.04-.52-.09-.78-.12-.48-.05-.96-.07-1.44-.07,0,0-.01,0-.02,0h-8.71c-6.69,3.68-14.36,5.78-22.52,5.78s-15.83-2.1-22.52-5.78h-8.71s-.01,0-.02,0c-.48,0-.96,.02-1.43,.07-.3,.03-.58,.08-.88,.13-.17,.03-.34,.04-.51,.08-.36,.07-.7,.17-1.05,.26-.1,.03-.21,.05-.31,.08-.32,.1-.62,.21-.93,.33-.13,.05-.27,.09-.4,.15-.26,.11-.51,.23-.76,.35-.18,.09-.36,.16-.53,.26-.19,.1-.38,.22-.57,.34-.22,.13-.44,.26-.65,.4-.14,.09-.27,.2-.4,.29-.25,.18-.5,.35-.73,.55-.11,.09-.21,.19-.32,.29-.24,.21-.49,.42-.72,.66-.2,.2-.39,.42-.58,.64-.12,.13-.25,.26-.36,.4-.31,.37-.6,.76-.87,1.17,0,0,0,0,0,.01l-41.64,62.46c-4.43,6.64-2.63,15.62,4.01,20.05,2.46,1.64,5.25,2.43,8.01,2.43,4.67,0,9.26-2.26,12.04-6.44l25.56-38.34v37.32l-19.29,38.59c-2.32,4.64-1.98,10.17,.9,14.49l15.47,23.21-15.47,23.21c-4.43,6.64-2.63,15.62,4.01,20.05,2.46,1.64,5.25,2.43,8.01,2.43,4.67,0,9.26-2.26,12.04-6.44l20.82-31.23c3.24-4.86,3.24-11.18,0-16.04l-16.17-24.25,13.07-26.14h23.77l13.07,26.14-16.17,24.25c-3.24,4.86-3.24,11.18,0,16.04l20.82,31.23c2.79,4.18,7.37,6.44,12.04,6.44,2.76,0,5.54-.79,8.01-2.43,6.64-4.43,8.44-13.41,4.01-20.05l-15.47-23.21,15.47-23.21c2.88-4.32,3.22-9.84,.9-14.49l-4.44-8.89,29.27,11.71c.7,.28,1.43,.41,2.15,.41,1.99,0,3.9-1.03,4.97-2.83,1.45-2.45,.91-5.59-1.28-7.41Z"/><path class="cls-1" d="M179.28,0l-19.41,9.55c-4.77-2.41-10.16-3.77-15.86-3.77s-11.09,1.36-15.86,3.77L108.72,0l5.89,21.55c-3.72,5.59-5.89,12.3-5.89,19.51,0,19.48,15.79,35.28,35.28,35.28s35.28-15.79,35.28-35.28c0-7.22-2.17-13.92-5.89-19.51L179.28,0Z"/></g></g></svg>