<svg xmlns="http://www.w3.org/2000/svg" viewBox="0 0 288 291"><defs><style>.cls-1{fill:none;}.cls-2{fill:#bbb;}</style></defs><g id="Border"><rect class="cls-1" width="288" height="288"/></g><g id="Devil"><path class="cls-2" d="M177.42,1.09,155.8,13.63a32.69,32.69,0,0,0-24.14,0L110,1.09l5.24,26.81a32.71,32.71,0,1,0,56.9,0Z"/><path class="cls-2" d="M189.07,214l-15.23-97.36L241,150,173.77,76.74h-8A39.07,39.07,0,0,1,144,83.36l-.06.55-.21-.55a39.07,39.07,0,0,1-21.8-6.62h-8L46.73,150l67.16-33.36L98.66,214l12.54,35.41L88.66,291,128,251l-4.72-35,20.6-38.71,20.59,38.71-4.72,35,39.33,40-22.54-41.61Z"/><path class="cls-2" d="M192.79,195a105.53,105.53,0,0,0,42.05-3.69c-19.68-.44-34.11-5.72-44.55-12.3Z"/></g></svg>