<?xml version="1.0" encoding="UTF-8"?><svg xmlns="http://www.w3.org/2000/svg" viewBox="0 0 288 291"><defs><style>.cls-1{fill:none;}.cls-2{fill:#bbb;}</style></defs><g id="Border"><rect class="cls-1" width="288" height="288"/></g><g id="Human"><circle class="cls-2" cx="144" cy="36" r="36"/><path class="cls-2" d="M230.64,148.21l-42.49-63.74s0,0,0-.01c-.28-.41-.57-.81-.88-1.19-.13-.15-.27-.29-.4-.44-.19-.21-.37-.42-.56-.62-.24-.24-.49-.46-.74-.68-.11-.09-.21-.19-.32-.28-.24-.2-.5-.38-.76-.57-.13-.1-.26-.2-.4-.29-.22-.15-.45-.28-.68-.41-.19-.11-.37-.23-.57-.34-.18-.1-.37-.18-.55-.27-.25-.12-.5-.25-.76-.35-.14-.06-.29-.1-.43-.16-.31-.12-.61-.23-.93-.33-.11-.03-.23-.06-.34-.09-.35-.1-.69-.19-1.05-.26-.19-.04-.39-.06-.58-.09-.28-.04-.55-.1-.83-.13-.49-.05-.98-.07-1.47-.07,0,0-.01,0-.02,0h-8.89c-6.82,3.76-14.66,5.9-22.98,5.9s-16.16-2.14-22.98-5.9h-8.89s-.02,0-.03,0c-.45,0-.89,.03-1.34,.07-.43,.04-.86,.1-1.28,.18-.08,.02-.17,.02-.25,.04-.39,.08-.77,.18-1.14,.29-.08,.02-.16,.04-.24,.06-.34,.1-.67,.23-.99,.35-.12,.05-.24,.08-.36,.13-.27,.11-.54,.25-.8,.37-.17,.08-.34,.16-.51,.25-.21,.11-.4,.24-.6,.36-.22,.13-.44,.25-.65,.39-.15,.1-.29,.21-.43,.31-.25,.18-.49,.35-.73,.54-.12,.1-.23,.21-.34,.31-.24,.21-.49,.42-.72,.65-.21,.21-.41,.44-.6,.66-.12,.13-.24,.25-.36,.39-.31,.38-.61,.78-.88,1.19,0,0,0,0,0,.01l-42.49,63.74c-4.52,6.78-2.69,15.94,4.09,20.46,2.52,1.68,5.36,2.48,8.17,2.48,4.77,0,9.45-2.31,12.29-6.57l26.08-39.13v40.83l-10.55,105.5c-.81,8.11,5.1,15.34,13.21,16.15,.5,.05,.99,.07,1.49,.07,7.49,0,13.9-5.68,14.66-13.29l9.29-92.94h15.79l9.29,92.94c.76,7.61,7.18,13.29,14.66,13.29,.49,0,.99-.02,1.49-.07,8.11-.81,14.02-8.04,13.21-16.15l-10.55-105.5v-40.83l26.08,39.13c2.84,4.26,7.52,6.57,12.29,6.57,2.81,0,5.65-.8,8.17-2.48,6.78-4.52,8.61-13.68,4.09-20.46Z"/></g></svg>