<?xml version="1.0" encoding="UTF-8"?><svg xmlns="http://www.w3.org/2000/svg" viewBox="0 0 288 288"><defs><style>.cls-1{fill:none;}.cls-2{fill:#bbb;}</style></defs><g id="Border"><rect class="cls-1" width="288" height="288"/></g><g id="Reptilian"><g><path class="cls-2" d="M144,0c-19.88,0-36,16.12-36,36,0,15.9,11.78,28.3,22.47,38.65,3.77,3.65,8.14,6.35,13.53,6.35s9.77-2.7,13.53-6.35c10.69-10.35,22.47-22.76,22.47-38.65,0-19.88-16.12-36-36-36Z"/><path class="cls-2" d="M230.98,195.77l-50.98-42.22v-28.09l26.08,39.13c2.84,4.26,7.52,6.57,12.29,6.57,2.81,0,5.65-.8,8.17-2.48,6.78-4.52,8.61-13.68,4.09-20.46l-42.49-63.74s0,0,0-.01c-.28-.41-.57-.81-.88-1.19-.12-.14-.25-.27-.37-.4-.2-.22-.39-.44-.59-.65-.24-.24-.49-.45-.74-.67-.11-.09-.21-.2-.32-.29-.24-.2-.5-.38-.75-.56-.14-.1-.27-.2-.41-.3-.22-.15-.45-.28-.67-.41-.19-.11-.38-.23-.57-.34-.18-.1-.37-.18-.55-.27-.25-.12-.5-.25-.76-.35-.14-.06-.29-.1-.43-.16-.31-.12-.61-.23-.93-.33-.11-.03-.23-.06-.35-.09-.34-.09-.69-.19-1.04-.26-.2-.04-.41-.06-.62-.09-.26-.04-.53-.09-.79-.12-.49-.05-.98-.07-1.47-.07,0,0-.01,0-.02,0h-4.83c-1.87,1.92-3.67,3.66-5.29,5.23-6.62,6.42-13.94,9.67-21.75,9.67s-15.12-3.25-21.75-9.67c-1.62-1.57-3.42-3.31-5.29-5.23h-4.83s-.01,0-.02,0c-.49,0-.98,.02-1.46,.07-.3,.03-.6,.09-.89,.13-.17,.03-.35,.05-.52,.08-.36,.07-.72,.17-1.07,.27-.1,.03-.21,.05-.31,.08-.32,.1-.64,.22-.95,.34-.14,.05-.28,.09-.41,.15-.26,.11-.52,.24-.77,.36-.18,.09-.36,.17-.54,.26-.2,.11-.39,.23-.58,.34-.22,.13-.45,.26-.67,.41-.14,.09-.27,.2-.41,.3-.25,.18-.51,.36-.75,.56-.11,.09-.21,.2-.32,.29-.25,.22-.5,.43-.74,.67-.21,.21-.4,.43-.59,.65-.12,.14-.25,.26-.37,.41-.31,.38-.61,.78-.88,1.19,0,0,0,0,0,.01l-42.49,63.74c-4.52,6.78-2.69,15.94,4.09,20.46,2.52,1.68,5.36,2.48,8.17,2.48,4.77,0,9.45-2.31,12.29-6.57l26.08-39.13v40.83l-10.55,105.5c-.81,8.11,5.1,15.34,13.21,16.15,.5,.05,.99,.07,1.49,.07,7.49,0,13.9-5.68,14.66-13.29l9.29-92.94h15.79l9.29,92.94c.76,7.61,7.18,13.29,14.66,13.29,.49,0,.99-.02,1.49-.07,8.11-.81,14.02-8.04,13.21-16.15l-8.31-83.1,42.78,17.12c.72,.29,1.46,.42,2.19,.42,2.03,0,3.98-1.05,5.08-2.89,1.48-2.5,.93-5.71-1.31-7.56Z"/></g></g></svg>