<svg xmlns="http://www.w3.org/2000/svg" viewBox="0 0 288 288.17"><defs><style>.cls-1{fill:none;}.cls-2{fill:#bbb;}</style></defs><g id="Border"><rect class="cls-1" width="288" height="288"/></g><g id="Reptilian"><path class="cls-2" d="M191.47,201.18c12.35,1.69,26.88,1.18,43.37-3.52-20.32-.46-35.07-6.07-45.58-12.95Z"/><path class="cls-2" d="M144,24c-40.7,0-38.84,24.5-31.85,37.93,8.34,16,20.57,22.28,31.85,22.28s23.51-6.24,31.86-22.28C182.82,48.45,184.67,24,144,24Z"/><path class="cls-2" d="M241.27,154.71,174,81.47h-5.29a37.63,37.63,0,0,1-49.56,0H114L46.73,154.71l67.16-33.36L91.56,288.17,144,182.67l52.44,105.5L174.11,121.35Z"/></g></svg>