<?xml version="1.0" encoding="UTF-8"?><svg xmlns="http://www.w3.org/2000/svg" viewBox="0 0 288 288"><defs><style>.cls-1{fill:none;}.cls-2{fill:#bbb;}</style></defs><g id="Border"><rect class="cls-1" width="288" height="288"/></g><g id="Synthient"><g><path class="cls-2" d="M180,166.28v-21.1h-10.11c-2.69,11.81-13.27,20.65-25.89,20.65s-23.2-8.84-25.89-20.65h-10.11v21.1l-10.55,105.5c-.81,8.11,5.1,15.34,13.21,16.15,.5,.05,.99,.07,1.49,.07,7.49,0,13.9-5.68,14.66-13.29l9.29-92.94h15.79l9.29,92.94c.76,7.61,7.18,13.29,14.66,13.29,.49,0,.99-.02,1.49-.07,8.11-.81,14.02-8.04,13.21-16.15l-10.55-105.5Z"/><rect class="cls-2" x="108" width="72" height="72" rx="20" ry="20"/><path class="cls-2" d="M230.63,148.21l-42.49-63.74s0,0,0-.01c-.28-.41-.57-.81-.88-1.19-.14-.17-.29-.32-.43-.48-.17-.19-.34-.39-.52-.58-.25-.25-.51-.47-.77-.7-.1-.09-.19-.18-.29-.26-.25-.21-.51-.39-.77-.58-.13-.09-.25-.19-.38-.28-.23-.15-.46-.28-.69-.42-.18-.11-.36-.23-.55-.33-.19-.1-.38-.18-.57-.27-.25-.12-.49-.24-.74-.35-.15-.06-.3-.11-.44-.16-.3-.11-.6-.23-.92-.32-.12-.04-.24-.06-.36-.09-.34-.09-.68-.19-1.03-.26-.2-.04-.41-.06-.61-.09-.27-.04-.53-.09-.8-.12-.47-.05-.95-.07-1.43-.07-5.6,3.72-12.32,5.9-19.54,5.9h-24.78c-7.22,0-13.94-2.18-19.54-5.9-.44,0-.88,.03-1.31,.07-.41,.04-.81,.1-1.22,.17-.1,.02-.21,.03-.31,.05-.38,.08-.75,.18-1.12,.28-.09,.02-.18,.04-.27,.07-.33,.1-.65,.22-.97,.34-.13,.05-.26,.09-.39,.14-.27,.11-.52,.24-.78,.37-.18,.09-.36,.16-.53,.26-.2,.11-.39,.23-.58,.35-.22,.13-.45,.26-.66,.4-.14,.1-.27,.2-.41,.3-.25,.18-.5,.36-.75,.56-.11,.09-.21,.19-.32,.29-.25,.22-.5,.43-.74,.67-.19,.19-.37,.4-.55,.61-.13,.15-.28,.29-.41,.45-.31,.38-.61,.78-.88,1.19,0,0,0,0,0,.01l-42.49,63.74c-4.52,6.78-2.69,15.94,4.09,20.46,2.52,1.68,5.36,2.48,8.17,2.48,4.77,0,9.45-2.31,12.29-6.57l26.08-39.13v7.93h10.11c2.69-11.81,13.27-20.65,25.89-20.65s23.2,8.84,25.89,20.65h10.11v-7.93l26.08,39.13c2.84,4.26,7.52,6.57,12.29,6.57,2.81,0,5.65-.8,8.17-2.48,6.78-4.52,8.61-13.68,4.09-20.46Z"/><circle class="cls-2" cx="144" cy="139.28" r="14.75"/></g></g></svg>