<svg xmlns="http://www.w3.org/2000/svg" viewBox="0 0 288 288"><defs><style>.cls-1{fill:none;}.cls-2{fill:#bbb;}</style></defs><g id="Border"><rect class="cls-1" width="288" height="288"/></g><g id="Synthient"><circle class="cls-2" cx="81.92" cy="127.24" r="7.74"/><circle class="cls-2" cx="206.08" cy="127.24" r="7.74"/><path class="cls-2" d="M191.34,127.24A14.75,14.75,0,0,1,203,112.84L181.05,89l.06,35.72,10.48,5.2A15.13,15.13,0,0,1,191.34,127.24Z"/><path class="cls-2" d="M85,112.84a14.75,14.75,0,0,1,11.64,14.4,15.13,15.13,0,0,1-.25,2.63l10.48-5.2L107,89Z"/><path class="cls-2" d="M67.83,131.56l-21.1,23,28.54-14.18A14.77,14.77,0,0,1,67.83,131.56Z"/><path class="cls-2" d="M111,237.46a14.7,14.7,0,0,1-11.88-6.05L91.56,288l25.86-52A14.61,14.61,0,0,1,111,237.46Z"/><path class="cls-2" d="M111,208a14.76,14.76,0,0,1,14.44,11.81l15.4-31-34.43-11.89-4.59,34.29A14.63,14.63,0,0,1,111,208Z"/><circle class="cls-2" cx="111.02" cy="222.73" r="7.74"/><circle class="cls-2" cx="143.73" cy="48.6" r="32.71"/><path class="cls-2" d="M188.71,230.27a14.73,14.73,0,0,1-12.64,7.19,14.48,14.48,0,0,1-5.24-1L196.44,288Z"/><circle class="cls-2" cx="176.07" cy="222.73" r="7.74"/><path class="cls-2" d="M176.07,208a14.69,14.69,0,0,1,10.21,4.13l-4.71-35.19-34.43,11.89,14.8,29.77A14.74,14.74,0,0,1,176.07,208Z"/><circle class="cls-2" cx="143.9" cy="139.37" r="7.74"/><circle class="cls-2" cx="143.9" cy="139.37" r="7.74"/><path class="cls-2" d="M129.6,135.87a14.72,14.72,0,0,1,28.6,0h17.87l-2-14.68L174,81.31h-8.51a39.25,39.25,0,0,1-43.6,0h-8l-.07,39.88-2,14.68Z"/><path class="cls-2" d="M158.2,142.87a14.72,14.72,0,0,1-28.6,0H111l-3.61,27L144,182.5l36.62-12.65-3.61-27Z"/><path class="cls-2" d="M220.17,131.56a14.77,14.77,0,0,1-7.44,8.81l28.54,14.18Z"/></g></svg>