<svg xmlns="http://www.w3.org/2000/svg" viewBox="0 0 288 288"><defs><style>.cls-1{fill:none;}.cls-2{fill:#bbb;}</style></defs><g id="Border"><rect class="cls-1" width="288" height="288"/></g><g id="Umbraborn"><path class="cls-2" d="M241.06,154.55c-.95-40-33.63-61.21-58.14-61-18.47.19-28.22-8.69-16.67-20.78l-.27-.26a32.7,32.7,0,1,0-44.23.26h0c11.55,12.09,1.81,21-16.66,20.78-24.52-.26-57.2,20.93-58.15,61,7.08-29,50.63-46.63,65.21-23.62C130.87,160.49,117.6,265,91.78,288H196.23c-25.82-23-39.1-127.51-20.38-157.07C190.43,107.92,234,125.51,241.06,154.55Z"/></g></svg>