<?xml version="1.0" encoding="UTF-8"?><svg xmlns="http://www.w3.org/2000/svg" viewBox="0 0 288 288"><defs><style>.cls-1{fill:none;}.cls-2{fill:#bbb;}</style></defs><g id="Border"><rect class="cls-1" width="288" height="288"/></g><g id="Umbraborn"><path class="cls-2" d="M230.42,147.88l-42.27-63.41s0,0,0-.01c-.28-.41-.57-.81-.88-1.19-.13-.15-.27-.29-.4-.44-.19-.21-.37-.42-.56-.62-.24-.24-.49-.46-.74-.68-.11-.09-.21-.19-.32-.28-.24-.2-.5-.38-.76-.57-.13-.1-.26-.2-.4-.29-.22-.15-.45-.28-.68-.41-.19-.11-.37-.23-.57-.34-.18-.1-.37-.18-.55-.27-.25-.12-.5-.25-.76-.35-.14-.06-.29-.1-.43-.16-.31-.12-.61-.23-.93-.33-.11-.03-.23-.06-.34-.09-.35-.1-.69-.19-1.05-.26-.19-.04-.39-.06-.58-.09-.28-.04-.55-.1-.83-.13-.49-.05-.98-.07-1.47-.07,0,0-.01,0-.02,0h-8.13c-3.17,0-5.74-2.57-5.74-5.74h0c0-2.96,1.41-5.71,3.76-7.5,9.25-7.03,15-18.42,14.16-31.12C178.73,15.7,164.22,1.22,146.37,.08c-20.96-1.34-38.37,15.26-38.37,35.92,0,11.67,5.56,22.04,14.17,28.62,2.37,1.81,3.83,4.56,3.83,7.55,0,3.17-2.57,5.74-5.74,5.74h-8.13s-.02,0-.03,0c-.45,0-.89,.03-1.34,.07-.43,.04-.86,.1-1.28,.18-.08,.02-.17,.02-.25,.04-.39,.08-.77,.18-1.14,.29-.08,.02-.16,.04-.24,.06-.34,.1-.67,.23-.99,.35-.12,.05-.24,.08-.36,.13-.27,.11-.54,.25-.8,.37-.17,.08-.34,.16-.51,.25-.21,.11-.4,.24-.6,.36-.22,.13-.44,.25-.65,.39-.15,.1-.29,.21-.43,.31-.25,.18-.49,.35-.73,.54-.12,.1-.23,.21-.34,.31-.24,.21-.49,.42-.72,.65-.21,.21-.41,.44-.6,.66-.12,.13-.24,.25-.36,.39-.31,.38-.61,.78-.88,1.19,0,0,0,0,0,.01l-42.27,63.41c-4.21,6.31-3.27,14.94,2.56,19.81,2.81,2.35,6.17,3.46,9.48,3.46,4.77,0,9.45-2.31,12.29-6.57l3.44-5.15c6.78-10.18,22.65-5.37,22.65,6.86h0s-10.51,105.13-10.51,105.13c-.72,7.15,3.61,14.04,10.52,16,1.41,.4,2.79,.58,4.14,.58,7.49,0,13.9-5.68,14.66-13.29l5.73-57.28c.59-5.89,5.54-10.37,11.46-10.37s10.87,4.48,11.46,10.37l5.73,57.28c.76,7.61,7.18,13.29,14.66,13.29,.36,0,.72-.01,1.08-.04,8.32-.6,14.41-8.34,13.58-16.64l-10.5-105.04h0c0-12.23,15.86-17.03,22.65-6.86l3.44,5.15c2.84,4.26,7.52,6.57,12.29,6.57,3.31,0,6.67-1.12,9.48-3.46,5.83-4.86,6.77-13.49,2.56-19.81Zm-86.42-10.97c-8.15,0-14.75-6.61-14.75-14.75s6.61-14.75,14.75-14.75,14.75,6.61,14.75,14.75-6.61,14.75-14.75,14.75Z"/></g></svg>