<svg xmlns="http://www.w3.org/2000/svg" xmlns:xlink="http://www.w3.org/1999/xlink" viewBox="0 0 288 288"><defs><style>.cls-1,.cls-5{fill:none;}.cls-2{fill:url(#linear-gradient);}.cls-3{fill:#1a1a1a;}.cls-4{fill:red;}.cls-5{stroke-miterlimit:10;stroke-width:10px;stroke:url(#linear-gradient-2);}.cls-6{fill:#333;}</style><linearGradient id="linear-gradient" x1="249.22" y1="-4.43" x2="268.7" y2="-4.43" gradientTransform="matrix(0, 1, 1, 0, 235.05, -194.97)" gradientUnits="userSpaceOnUse"><stop offset="0.1" stop-color="#666"/><stop offset="0.5" stop-color="#b3b3b3"/><stop offset="0.9" stop-color="#666"/></linearGradient><linearGradient id="linear-gradient-2" x1="-205.35" y1="-47.52" x2="-205.35" y2="-47.52" gradientTransform="matrix(0.71, 0.71, 0.71, -0.71, 392.72, 183.94)" gradientUnits="userSpaceOnUse"><stop offset="0" stop-color="gray"/><stop offset="0.5" stop-color="#fff"/><stop offset="1" stop-color="#666"/></linearGradient></defs><g id="Border"><rect class="cls-1" width="288" height="288"/></g><g id="True"><rect class="cls-2" x="184.1" y="54.24" width="93.05" height="19.49" transform="translate(22.3 181.81) rotate(-45)"/><polygon class="cls-3" points="207.46 87.26 194.43 69.04 183.6 78.87 223.44 118.72 233.73 106.55 207.46 87.26"/><path class="cls-4" d="M93.14,267.8c-13.43,1.78-24.46-7.29-24.46-7.29l8.86-11.07S98,259,113.35,242.57c-13.44,1.77-24.47-7.29-24.47-7.29l27.84-30.93,40.69-23.27L176.47,129l34.43-20.52L187.2,86.26l-29.68,32.82-14.15,35.79L97.48,166.31,0,248.27S67.62,295.37,93.14,267.8Zm9.26-64.6A19.69,19.69,0,0,1,86.67,205c-1.6-2.75-2.92-16,7.15-24.11C103.76,188.29,103.92,198.38,102.4,203.2Z"/><path class="cls-5" d="M213.91,72.33"/><polygon class="cls-6" points="192.56 102.16 219.95 140.75 237.52 125.09 181.25 68.81 168.71 83.26 192.56 102.16"/><polygon class="cls-6" points="271.82 42.33 252.28 22.79 249.24 25.84 267.72 46.42 271.82 42.33"/><polygon class="cls-3" points="273.93 44.43 250.17 20.68 259.31 11.54 288 30.36 273.93 44.43"/><polygon points="189.51 105.1 189.55 105.05 189.5 105.09 185.54 89.72 197 80.94 210.63 83.97 210.58 84.02 210.63 83.98 213.66 97.6 204.88 109.06 189.51 105.1"/><circle class="cls-4" cx="200.07" cy="94.54" r="7.07"/></g></svg>