<svg xmlns="http://www.w3.org/2000/svg" xmlns:xlink="http://www.w3.org/1999/xlink" viewBox="0 0 284.4 284.4"><defs><style>.cls-1{fill:url(#linear-gradient);}.cls-2{fill:#a08618;}.cls-3{fill:url(#linear-gradient-2);}.cls-4,.cls-9{fill:none;}.cls-4{stroke:#f0f;stroke-miterlimit:10;}.cls-5{fill:url(#linear-gradient-3);}.cls-6{fill:url(#linear-gradient-4);}.cls-7{fill:url(#linear-gradient-5);}.cls-8{fill:url(#linear-gradient-6);}</style><linearGradient id="linear-gradient" x1="90.84" y1="279.52" x2="184.47" y2="279.52" gradientTransform="translate(-114.89 281.73) rotate(-45)" gradientUnits="userSpaceOnUse"><stop offset="0" stop-color="#1b1464"/><stop offset="0.25" stop-color="#162675"/><stop offset="0.74" stop-color="#0856a3"/><stop offset="1" stop-color="#0071bc"/></linearGradient><linearGradient id="linear-gradient-2" x1="299.16" y1="285.82" x2="299.16" y2="273.29" gradientTransform="translate(-248.75 137.81) rotate(-45)" gradientUnits="userSpaceOnUse"><stop offset="0" stop-color="#845a07"/><stop offset="0.65" stop-color="#fff59c"/><stop offset="1" stop-color="#845a07"/></linearGradient><linearGradient id="linear-gradient-3" x1="452.84" y1="279.55" x2="474.44" y2="279.55" gradientTransform="translate(-248.75 137.81) rotate(-45)" gradientUnits="userSpaceOnUse"><stop offset="0" stop-color="#845a07"/><stop offset="1" stop-color="#b29000"/></linearGradient><linearGradient id="linear-gradient-4" x1="452.84" y1="272.35" x2="474.44" y2="272.35" gradientTransform="translate(-248.75 137.81) rotate(-45)" gradientUnits="userSpaceOnUse"><stop offset="0" stop-color="#b29000"/><stop offset="1" stop-color="#fff59c"/></linearGradient><linearGradient id="linear-gradient-5" x1="420.44" y1="250.75" x2="442.04" y2="250.75" xlink:href="#linear-gradient-4"/><linearGradient id="linear-gradient-6" x1="420.44" y1="308.35" x2="442.04" y2="308.35" xlink:href="#linear-gradient-3"/></defs><g id="Aquatic_III" data-name="Aquatic III"><path class="cls-1" d="M217.65,353.4c-14.82,20.57,4,56.05-50.27,69.13,13.54-13.54,13.22-24.68,5.09-32.81-8.31-8.31-22.65-3.65-38.61,12.3,12.64-56.8,52.94-41,74.93-57.48Z" transform="translate(-133.86 -143.93)"/><polygon class="cls-2" points="223.3 30.55 246.22 7.64 220.76 12.73 227.66 16.81 213.92 30.55 213.92 61.63 222.78 70.48 253.85 70.47 267.59 56.73 271.67 63.64 276.76 38.18 253.85 61.09 234.29 58.97 275.04 18.22 279.31 25.46 284.4 0 258.94 5.09 266.18 9.36 225.43 50.11 223.3 30.55"/><polygon class="cls-3" points="276.19 17.08 83.79 209.47 49.17 235.23 74.41 201.14 267.33 8.22 276.19 17.08"/><path class="cls-4" d="M387.71,215.21" transform="translate(-133.86 -143.93)"/><path class="cls-4" d="M387.71,205" transform="translate(-133.86 -143.93)"/><path class="cls-4" d="M347,174.48" transform="translate(-133.86 -143.93)"/><path class="cls-4" d="M357.17,174.48" transform="translate(-133.86 -143.93)"/><polygon class="cls-5" points="271.75 12.64 258.94 5.09 284.4 0 279.31 25.46 271.75 12.64"/><polygon class="cls-6" points="271.75 12.64 258.94 5.09 284.4 0 271.75 12.64"/><polygon class="cls-7" points="246.22 7.64 220.76 12.73 233.56 20.29 246.22 7.64"/><polygon class="cls-8" points="271.67 63.64 276.76 38.18 264.11 50.84 271.67 63.64"/><rect class="cls-9" width="284.4" height="284.4"/></g></svg>