<svg xmlns="http://www.w3.org/2000/svg" xmlns:xlink="http://www.w3.org/1999/xlink" viewBox="0 0 293.17 293.17"><defs><style>.cls-1{fill:url(#linear-gradient);}.cls-2{fill:url(#linear-gradient-2);}.cls-3{fill:url(#linear-gradient-3);}.cls-4{fill:url(#linear-gradient-4);}.cls-5{fill:url(#linear-gradient-5);}.cls-6{fill:none;}</style><linearGradient id="linear-gradient" x1="140.27" y1="278.6" x2="140.27" y2="247.6" gradientTransform="translate(-241.26 140.43) rotate(-45)" gradientUnits="userSpaceOnUse"><stop offset="0" stop-color="#510000"/><stop offset="0.11" stop-color="#5a0000"/><stop offset="0.3" stop-color="#720000"/><stop offset="0.53" stop-color="#9a0000"/><stop offset="0.8" stop-color="#d10000"/><stop offset="1" stop-color="red"/></linearGradient><linearGradient id="linear-gradient-2" x1="140.27" y1="309.6" x2="140.27" y2="278.6" gradientTransform="translate(-241.26 140.43) rotate(-45)" gradientUnits="userSpaceOnUse"><stop offset="0" stop-color="red"/><stop offset="0.2" stop-color="#d10000"/><stop offset="0.47" stop-color="#9a0000"/><stop offset="0.7" stop-color="#720000"/><stop offset="0.89" stop-color="#5a0000"/><stop offset="1" stop-color="#510000"/></linearGradient><linearGradient id="linear-gradient-3" x1="258.06" y1="284.87" x2="258.06" y2="272.33" gradientTransform="translate(8.01 19.33)" gradientUnits="userSpaceOnUse"><stop offset="0" stop-color="#42210b"/><stop offset="0.65" stop-color="#734a23"/><stop offset="1" stop-color="#42210b"/></linearGradient><linearGradient id="linear-gradient-4" x1="396" y1="278.6" x2="477.2" y2="278.6" gradientTransform="translate(-241.26 140.43) rotate(-45)" gradientUnits="userSpaceOnUse"><stop offset="0" stop-color="#666"/><stop offset="1" stop-color="#ccc"/></linearGradient><linearGradient id="linear-gradient-5" x1="396" y1="263.19" x2="477.2" y2="263.19" gradientTransform="translate(-241.26 140.43) rotate(-45)" gradientUnits="userSpaceOnUse"><stop offset="0" stop-color="#b3b3b3"/><stop offset="1" stop-color="#fff"/></linearGradient></defs><g id="Standard"><polygon class="cls-1" points="41.63 251.54 0 249.33 48.08 207.18 87.92 205.25 41.63 251.54"/><polygon class="cls-2" points="41.63 251.54 43.84 293.17 85.98 245.08 87.92 205.25 41.63 251.54"/><rect class="cls-3" x="116.01" y="291.67" width="300.12" height="12.53" transform="translate(-260.6 132.42) rotate(-45)"/><polygon class="cls-4" points="244.32 48.85 213.96 35.62 293.17 0 257.54 79.21 244.32 48.85"/><polygon class="cls-5" points="244.32 48.85 213.96 35.62 293.17 0 244.32 48.85"/><polygon class="cls-6" points="293.17 0 213.96 35.62 238.14 46.16 78.6 205.7 48.08 207.18 0 249.33 33.21 251.09 27.67 256.63 36.53 265.5 42.08 259.95 43.84 293.17 85.98 245.08 87.47 214.56 247.01 55.02 257.54 79.21 293.17 0"/></g></svg>