<svg xmlns="http://www.w3.org/2000/svg" xmlns:xlink="http://www.w3.org/1999/xlink" viewBox="0 0 284.4 284.4"><defs><style>.cls-1,.cls-4{fill:none;}.cls-2{fill:url(#linear-gradient);}.cls-3{fill:url(#linear-gradient-2);}.cls-4{stroke:#f0f;stroke-miterlimit:10;}.cls-5{fill:#c69c6d;}.cls-6{fill:url(#linear-gradient-3);}.cls-7{fill:url(#linear-gradient-4);}</style><linearGradient id="linear-gradient" x1="96.2" y1="289.7" x2="189.83" y2="289.7" gradientTransform="translate(-120.52 288.51) rotate(-45)" gradientUnits="userSpaceOnUse"><stop offset="0" stop-color="#4d4d4d"/><stop offset="0.17" stop-color="#565656"/><stop offset="0.44" stop-color="#6e6e6e"/><stop offset="0.78" stop-color="#969696"/><stop offset="1" stop-color="#b3b3b3"/></linearGradient><linearGradient id="linear-gradient-2" x1="278.92" y1="296" x2="278.92" y2="283.48" gradientTransform="translate(-120.52 288.51) rotate(-45)" gradientUnits="userSpaceOnUse"><stop offset="0" stop-color="#42210b"/><stop offset="0.65" stop-color="#734a23"/><stop offset="1" stop-color="#42210b"/></linearGradient><linearGradient id="linear-gradient-3" x1="442.55" y1="319.63" x2="442.55" y2="259.85" gradientTransform="translate(-120.52 288.51) rotate(-45)" gradientUnits="userSpaceOnUse"><stop offset="0" stop-color="#ccbea3"/><stop offset="0.16" stop-color="#d0c2a7"/><stop offset="0.34" stop-color="#dccfb4"/><stop offset="0.5" stop-color="#efe2c7"/><stop offset="0.66" stop-color="#dccfb4"/><stop offset="0.84" stop-color="#d0c2a7"/><stop offset="1" stop-color="#ccbea3"/></linearGradient><linearGradient id="linear-gradient-4" x1="395.12" y1="289.74" x2="429.28" y2="289.74" gradientTransform="translate(-120.52 288.51) rotate(-45)" gradientUnits="userSpaceOnUse"><stop offset="0" stop-color="#736357"/><stop offset="1" stop-color="#998675"/></linearGradient></defs><g id="Border"><rect class="cls-1" width="284.4" height="284.4"/></g><g id="Aquatic_I" data-name="Aquatic I"><path class="cls-2" d="M223,363.58c-14.82,20.58,4,56.05-50.27,69.13C186.28,419.17,186,408,177.83,399.9c-8.31-8.31-22.65-3.65-38.61,12.31,12.64-56.81,52.94-41,74.93-57.49Z" transform="translate(-139.22 -154.12)"/><path class="cls-3" d="M379.2,207.39,218.1,368.5s-26.46,24.1-29.71,20.84,20.41-29.26,20.41-29.26L370.35,198.54Z" transform="translate(-139.22 -154.12)"/><path class="cls-4" d="M394.14,226.45" transform="translate(-139.22 -154.12)"/><path class="cls-4" d="M394.74,215.67" transform="translate(-139.22 -154.12)"/><path class="cls-4" d="M353.41,185.72" transform="translate(-139.22 -154.12)"/><path class="cls-4" d="M364.19,185.12" transform="translate(-139.22 -154.12)"/><path class="cls-5" d="M398.92,176.38" transform="translate(-139.22 -154.12)"/><path class="cls-6" d="M423.62,154.12c-40.17,4.11-40.68,19.52-69.49,27.22-5.48,5.48,36.23,48.31,42.27,42.27C404.1,194.8,419.51,194.29,423.62,154.12Z" transform="translate(-139.22 -154.12)"/><path class="cls-7" d="M393.94,232.11s-6,6-12.08,0c-3-3,0-12.08-12.08-24.15s-21.13-9.06-24.15-12.08c-6-6,0-12.08,0-12.08,6-6,36.23,0,42.27,6S400,226.07,393.94,232.11Z" transform="translate(-139.22 -154.12)"/></g></svg>