<svg xmlns="http://www.w3.org/2000/svg" xmlns:xlink="http://www.w3.org/1999/xlink" viewBox="0 0 288.83 288.83"><defs><style>.cls-1,.cls-5{fill:none;}.cls-2{fill:url(#linear-gradient);}.cls-3{fill:url(#linear-gradient-2);}.cls-4{fill:url(#linear-gradient-3);}.cls-5{stroke:#f0f;stroke-miterlimit:10;}</style><linearGradient id="linear-gradient" x1="19.05" y1="257.52" x2="112.68" y2="257.52" gradientTransform="translate(-45.43 257.4) rotate(-45)" gradientUnits="userSpaceOnUse"><stop offset="0" stop-color="#004722"/><stop offset="0.21" stop-color="#065930"/><stop offset="0.64" stop-color="#148953"/><stop offset="1" stop-color="#22b573"/></linearGradient><linearGradient id="linear-gradient-2" x1="201.78" y1="263.82" x2="201.78" y2="251.29" gradientTransform="translate(-182.44 98.17) rotate(-45)" gradientUnits="userSpaceOnUse"><stop offset="0" stop-color="gray"/><stop offset="0.65" stop-color="#fff"/><stop offset="1" stop-color="gray"/></linearGradient><linearGradient id="linear-gradient-3" x1="321.45" y1="248.41" x2="402.65" y2="248.41" gradientTransform="translate(-182.44 98.17) rotate(-45)" gradientUnits="userSpaceOnUse"><stop offset="0" stop-color="#b3b3b3"/><stop offset="1" stop-color="#fff"/></linearGradient></defs><g id="Border"><rect class="cls-1" width="288.83" height="288.83"/></g><g id="Aquatic_II" data-name="Aquatic II"><path class="cls-2" d="M220.8,364.27c-14.83,20.58,4,56.05-50.28,69.13,13.55-13.54,13.23-24.68,5.1-32.81-8.31-8.31-22.66-3.65-38.61,12.31,12.63-56.81,52.94-41,74.92-57.49Z" transform="translate(-137.01 -159.23)"/><polygon class="cls-3" points="239.98 48.85 78.88 209.95 49.17 230.8 69.58 201.53 231.12 39.99 239.98 48.85"/><polygon class="cls-4" points="239.98 48.85 209.62 35.62 288.83 0 239.98 48.85"/><path class="cls-5" d="M392,217.06" transform="translate(-137.01 -159.23)"/><path class="cls-5" d="M351.29,186.51" transform="translate(-137.01 -159.23)"/><path class="cls-5" d="M361.47,186.51" transform="translate(-137.01 -159.23)"/></g></svg>