<svg xmlns="http://www.w3.org/2000/svg" xmlns:xlink="http://www.w3.org/1999/xlink" viewBox="0 0 294.04 294.04"><defs><style>.cls-1{fill:url(#linear-gradient);}.cls-2{fill:url(#linear-gradient-2);}.cls-3{fill:url(#linear-gradient-3);}.cls-4{fill:url(#linear-gradient-4);}.cls-5{fill:url(#linear-gradient-5);}.cls-6{fill:none;stroke:#f0f;stroke-miterlimit:10;}</style><linearGradient id="linear-gradient" x1="147.54" y1="1260.46" x2="147.54" y2="1223.11" gradientTransform="matrix(0.71, -0.71, -0.71, -0.71, 963.55, 1356.07)" gradientUnits="userSpaceOnUse"><stop offset="0" stop-color="#f0f"/><stop offset="1" stop-color="#662d91"/></linearGradient><linearGradient id="linear-gradient-2" x1="147.53" y1="330.83" x2="147.53" y2="293.49" gradientTransform="translate(-108.85 283.67) rotate(-45)" gradientUnits="userSpaceOnUse"><stop offset="0" stop-color="#f0f"/><stop offset="0.13" stop-color="#f503f8"/><stop offset="0.34" stop-color="#da0be4"/><stop offset="0.62" stop-color="#ad18c4"/><stop offset="0.95" stop-color="#712a99"/><stop offset="1" stop-color="#662d91"/></linearGradient><linearGradient id="linear-gradient-3" x1="260.87" y1="299.75" x2="260.87" y2="287.22" gradientTransform="translate(22.27 13.25)" gradientUnits="userSpaceOnUse"><stop offset="0" stop-color="#231200"/><stop offset="0.65" stop-color="#4c1c06"/><stop offset="1" stop-color="#231200"/></linearGradient><linearGradient id="linear-gradient-4" x1="398.65" y1="300.75" x2="398.65" y2="286.22" gradientTransform="translate(-252.76 131.74) rotate(-45)" gradientUnits="userSpaceOnUse"><stop offset="0" stop-color="#845a07"/><stop offset="0.65" stop-color="#fff59c"/><stop offset="1" stop-color="#845a07"/></linearGradient><linearGradient id="linear-gradient-5" x1="398.65" y1="293.49" x2="479.8" y2="293.49" gradientTransform="translate(-108.85 283.67) rotate(-45)" gradientUnits="userSpaceOnUse"><stop offset="0" stop-color="#510000"/><stop offset="1" stop-color="red"/></linearGradient></defs><g id="Cupid"><path class="cls-1" d="M183.54,406.34s-39.42,13-39.63-13.18c23.13,26.36,47.4-40.25,47.4-40.25,17.81,5.36,48-2.33,48-2.33Z" transform="translate(-143.91 -151.93)"/><path class="cls-2" d="M183.53,406.34s-13,39.42,13.19,39.63c-26.36-23.13,40.25-47.4,40.25-47.4-5.37-17.81,2.33-48,2.33-48Z" transform="translate(-143.91 -151.93)"/><rect class="cls-3" x="132.35" y="300.47" width="301.59" height="12.53" transform="translate(-277.88 138.12) rotate(-45)"/><polygon class="cls-4" points="242.37 42.8 221.37 62.39 231.65 72.67 251.23 51.67 242.37 42.8"/><path class="cls-5" d="M389.77,200.11S377.5,206.24,368.3,197c-12.27-12.27,0-24.53,0-24.53,15.33-15.34,39-8.31,69.65-20.58-12.27,30.67-5.24,54.31-20.58,69.65,0,0-12.27,12.27-24.53,0C383.63,212.38,389.77,200.11,389.77,200.11Z" transform="translate(-143.91 -151.93)"/><path class="cls-6" d="M332,147.79" transform="translate(-143.91 -151.93)"/></g></svg>