<svg xmlns="http://www.w3.org/2000/svg" viewBox="0 0 288 288"><defs><style>.cls-1{fill:none;}.cls-2{fill:#bbb;}</style></defs><g id="Border"><rect class="cls-1" width="288" height="288"/></g><g id="Main"><path class="cls-2" d="M169.21,145.88c-1.05-.65-2.11-1.27-3.18-1.89,1.07-.61,2.12-1.24,3.17-1.89C220.86,111.58,242.87,58.48,234.53,0Q233,11.16,230.88,21.62L189.2,28.8l38.37,6.61A180.37,180.37,0,0,1,219.82,58L180.38,64.8l33.43,5.76a130.81,130.81,0,0,1-16.24,23.67l-38.13,6.57,27.16,4.68a150.15,150.15,0,0,1-27.43,19.64c-4.91,2.89-10,5.41-15.17,7.86-5.15-2.45-10.26-5-15.17-7.86a150.5,150.5,0,0,1-27.43-19.64l27.16-4.68L90.43,94.23A131.32,131.32,0,0,1,74.19,70.56l33.43-5.76L68.18,58a180.37,180.37,0,0,1-7.75-22.6L98.8,28.8,57.12,21.62Q54.95,11.15,53.47,0C45.11,58.42,67.15,111.61,118.8,142.1c1,.65,2.1,1.28,3.17,1.89-1.07.62-2.13,1.24-3.18,1.89C67.11,176.41,45.08,229.5,53.47,288c1-7.2,2.18-14.44,3.69-21.63L98.8,259.2l-38.32-6.6A183.54,183.54,0,0,1,68.2,230l39.42-6.79-33.48-5.77a123.53,123.53,0,0,1,16.29-23.66l38.13-6.57-27.06-4.66a155.38,155.38,0,0,1,27.34-19.65c4.9-2.89,10-5.42,15.16-7.87,5.15,2.45,10.26,5,15.16,7.87a155.38,155.38,0,0,1,27.34,19.65l-27.06,4.66,38.13,6.57a123.53,123.53,0,0,1,16.29,23.66l-33.48,5.77L219.8,230a184.11,184.11,0,0,1,7.72,22.61l-38.32,6.6,41.64,7.17c1.51,7.19,2.72,14.43,3.69,21.63C242.91,229.48,220.92,176.45,169.21,145.88Z"/><path class="cls-2" d="M144,211.55,129,241.2a17,17,0,0,0,0,15.18c10.85,19.49,39.28,5.11,30-15.18Z"/><path class="cls-2" d="M144,76.45,159,46.8a17,17,0,0,0,0-15.18c-10.85-19.49-39.28-5.11-30,15.18Z"/></g></svg>