<svg xmlns="http://www.w3.org/2000/svg" xmlns:xlink="http://www.w3.org/1999/xlink" viewBox="0 0 288 288"><defs><style>.cls-1{fill:none;}.cls-2{fill:#1fcc48;}.cls-3{fill:#bbb;}.cls-4{fill:#2cff5e;}.cls-5{fill:url(#_6_dpi_40_);}.cls-6{fill:url(#linear-gradient);}.cls-7{fill:url(#linear-gradient-2);}</style><pattern id="_6_dpi_40_" data-name="6 dpi 40%" width="32" height="32" patternUnits="userSpaceOnUse" viewBox="0 0 32 32"><rect class="cls-1" width="32" height="32"/><path class="cls-2" d="M16,35.2A3.2,3.2,0,1,0,12.8,32,3.2,3.2,0,0,0,16,35.2Z"/><path class="cls-2" d="M32,35.2A3.2,3.2,0,1,0,28.8,32,3.2,3.2,0,0,0,32,35.2Z"/><path class="cls-2" d="M16,19.2A3.2,3.2,0,1,0,12.8,16,3.2,3.2,0,0,0,16,19.2Z"/><path class="cls-2" d="M32,19.2A3.2,3.2,0,1,0,28.8,16,3.2,3.2,0,0,0,32,19.2Z"/><path class="cls-2" d="M24,27.2A3.2,3.2,0,1,0,20.8,24,3.2,3.2,0,0,0,24,27.2Z"/><path class="cls-2" d="M8,27.2A3.2,3.2,0,1,0,4.8,24,3.2,3.2,0,0,0,8,27.2Z"/><path class="cls-2" d="M24,11.2A3.2,3.2,0,1,0,20.8,8,3.2,3.2,0,0,0,24,11.2Z"/><path class="cls-2" d="M8,11.2A3.2,3.2,0,1,0,4.8,8,3.2,3.2,0,0,0,8,11.2Z"/><path class="cls-2" d="M0,35.2a3.2,3.2,0,0,0,0-6.4A3.2,3.2,0,0,0-3.2,32,3.2,3.2,0,0,0,0,35.2Z"/><path class="cls-2" d="M0,19.2a3.2,3.2,0,0,0,0-6.4A3.2,3.2,0,0,0-3.2,16,3.2,3.2,0,0,0,0,19.2Z"/><path class="cls-2" d="M16,3.2A3.2,3.2,0,0,0,19.2,0,3.2,3.2,0,0,0,16-3.2,3.2,3.2,0,0,0,12.8,0,3.2,3.2,0,0,0,16,3.2Z"/><path class="cls-2" d="M32,3.2A3.2,3.2,0,0,0,35.2,0,3.2,3.2,0,0,0,32-3.2,3.2,3.2,0,0,0,28.8,0,3.2,3.2,0,0,0,32,3.2Z"/><path class="cls-2" d="M0,3.2A3.2,3.2,0,0,0,3.2,0,3.2,3.2,0,0,0,0-3.2,3.2,3.2,0,0,0-3.2,0,3.2,3.2,0,0,0,0,3.2Z"/></pattern><linearGradient id="linear-gradient" x1="42.18" y1="245.82" x2="245.82" y2="42.18" gradientUnits="userSpaceOnUse"><stop offset="0" stop-color="#333"/><stop offset="0.5" stop-color="#fff"/><stop offset="1" stop-color="#4d4d4d"/></linearGradient><linearGradient id="linear-gradient-2" x1="42.18" y1="42.18" x2="245.82" y2="245.82" xlink:href="#linear-gradient"/></defs><g id="Border"><rect class="cls-1" width="288" height="288"/></g><g id="Simple"><path class="cls-3" d="M245.82,42.18A144,144,0,1,0,42.18,245.82,144,144,0,1,0,245.82,42.18ZM51.38,215.39,79.11,191,64,144.46,27.1,141A116.36,116.36,0,0,1,47.47,78L79.22,96.83,119,68l-8.13-36.12a117.65,117.65,0,0,1,66.32,0L169,68l39.75,28.88L240.53,78a116.3,116.3,0,0,1,20.37,63L224,144.46,208.89,191l27.73,24.38a117.27,117.27,0,0,1-53.55,38.86l-14.66-34H119.59l-14.66,34A117.27,117.27,0,0,1,51.38,215.39Z"/></g><g id="True"><path class="cls-3" d="M231.49,240.68"/><circle class="cls-4" cx="144" cy="144" r="116.94"/><circle class="cls-5" cx="144" cy="144" r="116.94"/><path class="cls-6" d="M245.82,42.18A144,144,0,1,0,42.18,245.82,144,144,0,1,0,245.82,42.18ZM51.38,215.39,79.11,191,64,144.47,27.1,141A116.3,116.3,0,0,1,47.47,78L79.22,96.83,119,68l-8.13-36.11a117.41,117.41,0,0,1,66.32,0L169,68l39.75,28.88L240.53,78a116.3,116.3,0,0,1,20.37,63L224,144.47,208.89,191l27.73,24.38a117.27,117.27,0,0,1-53.55,38.86l-14.66-34H119.59l-14.66,34A117.27,117.27,0,0,1,51.38,215.39Z"/><path class="cls-7" d="M144,5a139,139,0,0,1,98.29,237.29A139,139,0,0,1,45.71,45.71,138.12,138.12,0,0,1,144,5M113.37,65.84,79,90.85,50,73.69,46,71.3l-2.65,3.86A121.42,121.42,0,0,0,22.1,140.91L22,145.58l4.65.43,33.62,3.13,13.09,40.28L48.08,211.63l-3.53,3.1,2.87,3.71A121.85,121.85,0,0,0,103.26,259l4.41,1.56,1.85-4.29,13.36-31h42.24l13.36,31,1.85,4.29,4.41-1.56a121.85,121.85,0,0,0,55.84-40.52l2.87-3.71-3.53-3.1-25.26-22.21,13.09-40.28L261.37,146l4.65-.43-.12-4.67a121.42,121.42,0,0,0-21.24-65.75L242,71.3l-4,2.39L209.05,90.85l-34.42-25L182,32.93l1-4.56L178.58,27a122.51,122.51,0,0,0-69.15,0l-4.5,1.33,1,4.56,7.41,32.91M144,0A144,144,0,0,0,42.18,245.82,144,144,0,1,0,245.82,42.18,143,143,0,0,0,144,0ZM79.22,96.83,119,68l-8.13-36.11a117.41,117.41,0,0,1,66.32,0L169,68l39.75,28.88L240.53,78a116.3,116.3,0,0,1,20.37,63L224,144.47,208.89,191l27.73,24.38a117.27,117.27,0,0,1-53.55,38.86l-14.66-34H119.59l-14.66,34a117.27,117.27,0,0,1-53.55-38.86L79.11,191,64,144.47,27.1,141A116.3,116.3,0,0,1,47.47,78L79.22,96.83Z"/></g></svg>