<svg xmlns="http://www.w3.org/2000/svg" viewBox="0 0 288 288"><defs><style>.cls-1{fill:none;}.cls-2{fill:#72493b;}.cls-3{fill:#f9f2e4;}</style></defs><g id="Border"><rect class="cls-1" width="288" height="288"/></g><g id="True"><polygon class="cls-2" points="205.27 160.31 268.28 87.61 230.62 62.46 165.89 165.99 205.27 160.31"/><path class="cls-2" d="M85.13,274.34,87.92,288H200.08l2.79-13.66C240.17,256,47.83,256,85.13,274.34Z"/><path class="cls-3" d="M202.87,274.35a133.52,133.52,0,0,0,74.65-119.87h-267A133.52,133.52,0,0,0,85.13,274.35Z"/><path class="cls-2" d="M275.35,178.59q.91-5,1.44-10.2H11.21q.52,5.16,1.44,10.2Z"/><path class="cls-3" d="M129.1,134.1a26.76,26.76,0,0,0-2.72-8.54,17.35,17.35,0,0,0-2.25-3.33,13.89,13.89,0,0,0-5.52-4.08,13.92,13.92,0,0,0-2.93-.68,12.87,12.87,0,0,0-2.91,0c-.5.07-1,.12-1.47.24s-1,.2-1.48.31a30.19,30.19,0,0,0-6.09,2.47c-1,.54-2,1.13-3.08,1.76l-.77.49-.38.24-.09.06-.17.08-.34.17c-.9.42-1.8.86-2.73,1.25a40.55,40.55,0,0,1-12.32,3.12,38.36,38.36,0,0,1-13.51-1.2,40,40,0,0,1-6.47-2.36A44.32,44.32,0,0,1,58,120.7a44.94,44.94,0,0,1-9.66-9,49.5,49.5,0,0,1-6.67-11.13,47.53,47.53,0,0,1-3.54-12.77c-.17-1.12-.23-2.28-.33-3.43s-.09-2.33,0-3.52L37.83,79c0-.63.08-1,.12-1.54.07-1,.19-2,.31-3,.27-2,.63-4.05,1.12-6.12a53.83,53.83,0,0,1,2-6.27A44.38,44.38,0,0,1,59.09,40.33a51.21,51.21,0,0,1,12.18-5.6,63.22,63.22,0,0,1,11.87-2.49,95,95,0,0,1,21.69.13A149.83,149.83,0,0,1,124.5,36c.8.19,1.58.41,2.36.61s1.7.46,2.11.59c1.07.34,2.1.59,3.12.85a28.62,28.62,0,0,0,3,.57,23.16,23.16,0,0,0,2.76.32c3.56.19,6.25-.23,8.67-1.55a10.59,10.59,0,0,0,3.41-3,15.74,15.74,0,0,0,2.45-5.14,19.94,19.94,0,0,0,.58-3.2,22.39,22.39,0,0,0,.13-3.5,28.54,28.54,0,0,0-1.35-7.46C150.15,9.92,147,4.86,142.78,0a33.53,33.53,0,0,1,17.89,9,35.14,35.14,0,0,1,10.34,20,32.66,32.66,0,0,1-6.43,25.15,35.23,35.23,0,0,1-10.82,9.16,37.85,37.85,0,0,1-6.32,2.78A41.38,41.38,0,0,1,141,67.8a52.77,52.77,0,0,1-12.43.73,58.7,58.7,0,0,1-5.86-.6l-4.44-.64c-5.58-.79-11.07-1.39-16.32-1.67A81,81,0,0,0,87.32,66,28.45,28.45,0,0,0,77,69.07a12.86,12.86,0,0,0-5.25,5.65A25.31,25.31,0,0,0,70,79.82c-.1.51-.23,1-.32,1.53l-.22,1.2c-.07.32-.07.68-.13,1s-.05.72,0,1.11A19.15,19.15,0,0,0,70,89.55a23.49,23.49,0,0,0,2,4.8A17,17,0,0,0,78.68,101a13.81,13.81,0,0,0,4.41,1.37,17.3,17.3,0,0,0,5.5-.21c.51-.1,1-.25,1.53-.35l.2,0,.09,0,.17,0,.68-.17,1.34-.35a50.13,50.13,0,0,1,5.56-1.08,41.08,41.08,0,0,1,11.88,0,28.62,28.62,0,0,1,11.79,4.38,22.86,22.86,0,0,1,8,9.27,22.43,22.43,0,0,1,2.05,10.83A21.85,21.85,0,0,1,129.1,134.1Z"/></g></svg>