<?xml version="1.0" encoding="UTF-8"?><svg xmlns="http://www.w3.org/2000/svg" viewBox="0 0 288 288"><defs><style>.cls-1{fill:none;}.cls-2{fill:#bbb;}</style></defs><g id="Border"><rect class="cls-1" x="0" width="288" height="288"/></g><g class="cls-2" id="Logo"><polygon points="28.07 128.2 18.59 134.22 22.53 121.94 3.26 100.16 0 132.5 46.42 167.63 54.62 158.21 28.07 128.2"/><polygon points="198.44 71.36 209.05 66.03 216.25 52.03 197.52 18.9 169.68 112.84 182.58 117.49 200.13 83.37 198.44 71.36"/><polygon points="210.47 202.64 162.99 177.72 178.24 167.08 177.45 143.07 120.93 135.99 105.68 158.05 95.05 155.07 56.45 183.52 60.98 203.53 80.58 207.23 72.12 218.88 82.66 275.92 108.53 288 127.83 281.2 130.99 244.97 109.25 228.99 123.51 200.47 153.87 205.18 165.13 231.15 149.56 246.5 162.79 271.37 183.55 269.65 214.32 228.12 210.47 202.64"/><polygon points="249.8 136.44 235.17 151.91 244.97 167.22 226.75 160.81 208.91 179.69 219.48 189.49 288 152.54 249.8 136.44"/><polygon points="63.19 29.66 46.65 63.68 80.42 129.08 85.9 106.92 63.19 29.66"/><polygon points="140.23 81.87 146.95 20.15 115.99 0 121.8 72.01 140.23 81.87"/><polygon points="118.92 83.73 124.29 114.37 138.57 115.43 143.05 92.35 118.92 83.73"/></g></svg>