<svg xmlns="http://www.w3.org/2000/svg" viewBox="0 0 288 288"><defs><style>.cls-1{fill:none;}.cls-2{fill:#bbb;}</style></defs><g id="Border"><rect class="cls-1" width="288" height="288"/></g><g id="Main"><path class="cls-2" d="M147,205.47c-10,0-19.75-.38-29.19-1.12-4.21,12.41-8.52,24.28-12.85,35.3a45.89,45.89,0,0,0,46.78,11.92c1.82-14.5,4.28-30.11,7.25-46.29Q153,205.46,147,205.47Z"/><polygon class="cls-2" points="231.57 119.76 120.81 91.52 87.76 34.35 144.14 0 254.91 28.25 231.57 119.76"/><path class="cls-2" d="M57.07,128.7s0-44.95-24-47.95c24-3,24-48,24-48s0,45,24,48C57.07,83.75,57.07,128.7,57.07,128.7Z"/><path class="cls-2" d="M208.72,288s0-37.15-19.82-39.63c19.82-2.48,19.82-39.63,19.82-39.63s0,37.15,19.81,39.63C208.72,250.85,208.72,288,208.72,288Z"/><path class="cls-2" d="M146.37,105.4c-5.4,22.33-11.61,45.07-18.28,66.93,6.21.33,12.52.53,18.89.53,6.2,0,12.42-.17,18.55-.5,4.18-19.49,8.95-39.26,14.1-58.48Z"/><path class="cls-2" d="M179,145q-2.17,9-4.19,18.06a256.16,256.16,0,0,1,31.29,4.3A135.56,135.56,0,0,1,220,171a135.85,135.85,0,0,1-14,3.62C189.41,178.08,168.43,180,147,180s-42.43-1.91-59.07-5.39a136.54,136.54,0,0,1-14-3.62,136.25,136.25,0,0,1,14-3.63,264.48,264.48,0,0,1,35.76-4.62q2.76-9.3,5.39-18.69C81.14,146.31,44.75,157.51,44.75,171c0,15.11,45.77,27.35,102.23,27.35S249.21,186.09,249.21,171C249.21,158.86,219.75,148.58,179,145Z"/></g></svg>