<svg xmlns="http://www.w3.org/2000/svg" viewBox="0 0 288 288"><defs><style>.cls-1{fill:none;}.cls-2{fill:#bbb;}</style></defs><g id="Border"><rect class="cls-1" width="288" height="288"/></g><g id="Main"><path class="cls-2" d="M144,72.3a25.5,25.5,0,1,0-25.5-25.5A25.53,25.53,0,0,0,144,72.3Zm0-36a10.5,10.5,0,1,1-10.5,10.5A10.51,10.51,0,0,1,144,36.3Z"/><path class="cls-2" d="M144,215.7a25.5,25.5,0,1,0,25.5,25.5A25.53,25.53,0,0,0,144,215.7Zm0,36a10.5,10.5,0,1,1,10.5-10.5A10.51,10.51,0,0,1,144,251.7Z"/><path class="cls-2" d="M166.22,144c23.45-13.24,41.26-29.63,54.11-49.74,16.28-25.5,24.2-56.34,24.2-94.26h-20q0,11.09-1,21.3H198.79a7.5,7.5,0,0,0,0,15h22.59a145.34,145.34,0,0,1-5.51,21H188.1a7.5,7.5,0,0,0,0,15h21.5a117.29,117.29,0,0,1-13.36,21H164a7.5,7.5,0,0,0,0,15h18C171.44,117.79,158.78,126,144,133c-14.78-7-27.44-15.19-38-24.68h18a7.5,7.5,0,1,0,0-15H91.76a117.29,117.29,0,0,1-13.36-21H99.9a7.5,7.5,0,0,0,0-15H72.13a145.34,145.34,0,0,1-5.51-21H89.21a7.5,7.5,0,1,0,0-15H64.5q-1-10.23-1-21.3h-20c0,37.92,7.92,68.76,24.2,94.26,12.85,20.11,30.66,36.5,54.11,49.74-23.45,13.24-41.26,29.63-54.11,49.74-16.28,25.5-24.2,56.34-24.2,94.26h20q0-11.08,1-21.3H89.21a7.5,7.5,0,0,0,0-15H66.62a145.34,145.34,0,0,1,5.51-21H99.9a7.5,7.5,0,1,0,0-15H78.4a117.29,117.29,0,0,1,13.36-21H124a7.5,7.5,0,1,0,0-15H106C116.56,170.21,129.22,162,144,155c14.78,7,27.44,15.19,38.05,24.68H164a7.5,7.5,0,0,0,0,15h32.2a117.29,117.29,0,0,1,13.36,21H188.1a7.5,7.5,0,1,0,0,15h27.77a145.34,145.34,0,0,1,5.51,21H198.79a7.5,7.5,0,0,0,0,15H223.5q1,10.23,1,21.3h20c0-37.92-7.92-68.76-24.2-94.26C207.48,173.63,189.67,157.24,166.22,144Z"/></g></svg>