<svg xmlns="http://www.w3.org/2000/svg" xmlns:xlink="http://www.w3.org/1999/xlink" viewBox="0 0 288 288"><defs><style>.cls-1{fill:none;}.cls-2{fill:#af0096;}.cls-3{fill:#d300a1;}.cls-4{fill:url(#_6_dpi_40_);}.cls-5{fill:url(#linear-gradient);}.cls-6{fill:url(#linear-gradient-2);}</style><pattern id="_6_dpi_40_" data-name="6 dpi 40%" width="32" height="32" patternUnits="userSpaceOnUse" viewBox="0 0 32 32"><rect class="cls-1" width="32" height="32"/><path class="cls-2" d="M16,35.2A3.2,3.2,0,1,0,12.8,32,3.2,3.2,0,0,0,16,35.2Z"/><path class="cls-2" d="M32,35.2A3.2,3.2,0,1,0,28.8,32,3.2,3.2,0,0,0,32,35.2Z"/><path class="cls-2" d="M16,19.2A3.2,3.2,0,1,0,12.8,16,3.2,3.2,0,0,0,16,19.2Z"/><path class="cls-2" d="M32,19.2A3.2,3.2,0,1,0,28.8,16,3.2,3.2,0,0,0,32,19.2Z"/><path class="cls-2" d="M24,27.2A3.2,3.2,0,1,0,20.8,24,3.2,3.2,0,0,0,24,27.2Z"/><path class="cls-2" d="M8,27.2A3.2,3.2,0,1,0,4.8,24,3.2,3.2,0,0,0,8,27.2Z"/><path class="cls-2" d="M24,11.2A3.2,3.2,0,1,0,20.8,8,3.2,3.2,0,0,0,24,11.2Z"/><path class="cls-2" d="M8,11.2A3.2,3.2,0,1,0,4.8,8,3.2,3.2,0,0,0,8,11.2Z"/><path class="cls-2" d="M0,35.2a3.2,3.2,0,0,0,0-6.4A3.2,3.2,0,0,0-3.2,32,3.2,3.2,0,0,0,0,35.2Z"/><path class="cls-2" d="M0,19.2a3.2,3.2,0,0,0,0-6.4A3.2,3.2,0,0,0-3.2,16,3.2,3.2,0,0,0,0,19.2Z"/><path class="cls-2" d="M16,3.2A3.2,3.2,0,0,0,19.2,0,3.2,3.2,0,0,0,16-3.2,3.2,3.2,0,0,0,12.8,0,3.2,3.2,0,0,0,16,3.2Z"/><path class="cls-2" d="M32,3.2A3.2,3.2,0,0,0,35.2,0,3.2,3.2,0,0,0,32-3.2,3.2,3.2,0,0,0,28.8,0,3.2,3.2,0,0,0,32,3.2Z"/><path class="cls-2" d="M0,3.2A3.2,3.2,0,0,0,3.2,0,3.2,3.2,0,0,0,0-3.2,3.2,3.2,0,0,0-3.2,0,3.2,3.2,0,0,0,0,3.2Z"/></pattern><linearGradient id="linear-gradient" x1="42.22" y1="245.78" x2="245.78" y2="42.22" gradientUnits="userSpaceOnUse"><stop offset="0" stop-color="#333"/><stop offset="0.5" stop-color="#fff"/><stop offset="1" stop-color="#4d4d4d"/></linearGradient><linearGradient id="linear-gradient-2" x1="42.22" y1="42.22" x2="245.78" y2="245.78" xlink:href="#linear-gradient"/></defs><g id="Border"><rect class="cls-1" width="288" height="288"/></g><g id="True"><circle class="cls-3" cx="144" cy="144" r="116.94"/><circle class="cls-4" cx="144" cy="144" r="116.94"/><path class="cls-5" d="M144,0C64.6,0,0,64.6,0,144S64.6,288,144,288s144-64.6,144-144S223.4,0,144,0Zm89.32,219.38-60.1-35.66,15.39,68.37a116.86,116.86,0,0,1-89.22,0l15.39-68.37-60.1,35.66A116.4,116.4,0,0,1,27.06,144q0-4.75.38-9.41l69.28-6.45L44.66,82.37a117.35,117.35,0,0,1,72-52.07L144,93.79,171.36,30.3a117.35,117.35,0,0,1,72,52.07l-52.06,45.77,69.28,6.45q.38,4.65.38,9.41A116.4,116.4,0,0,1,233.32,219.38Z"/><path class="cls-6" d="M144,5c76.64,0,139,62.36,139,139S220.64,283,144,283,5,220.64,5,144,67.36,5,144,5m0,76.16L121.23,28.32l-1.67-3.87-4.09,1a123.08,123.08,0,0,0-75,54.29l-2.25,3.6,3.19,2.8,43.35,38.1L27,129.61l-4.19.39-.33,4.19c-.27,3.28-.4,6.58-.4,9.81a122,122,0,0,0,28.8,78.61l2.73,3.23,3.64-2.16,50.12-29.74L94.52,251l-.93,4.11,3.89,1.61a121.85,121.85,0,0,0,93,0l3.89-1.61-.93-4.11-12.83-57.05,50.12,29.74,3.64,2.16,2.73-3.23A122,122,0,0,0,265.94,144c0-3.23-.13-6.53-.4-9.81l-.33-4.19-4.19-.39-57.73-5.38,43.35-38.1,3.18-2.8-2.24-3.6a123.08,123.08,0,0,0-75.05-54.29l-4.09-1-1.67,3.87L144,81.16M144,0C64.6,0,0,64.6,0,144S64.6,288,144,288s144-64.6,144-144S223.4,0,144,0Zm0,93.79L171.36,30.3a117.35,117.35,0,0,1,72,52.07l-52.06,45.77,69.28,6.45q.38,4.65.38,9.41a116.4,116.4,0,0,1-27.62,75.38l-60.1-35.66,15.39,68.37a116.86,116.86,0,0,1-89.22,0l15.39-68.37-60.1,35.66A116.4,116.4,0,0,1,27.06,144q0-4.75.38-9.41l69.28-6.45L44.66,82.37a117.35,117.35,0,0,1,72-52.07L144,93.79Z"/></g></svg>