<svg xmlns="http://www.w3.org/2000/svg" viewBox="0 0 288 288"><defs><style>.cls-1{fill:none;}.cls-2{fill:#bbb;}</style></defs><g id="Border"><rect class="cls-1" width="288" height="288"/></g>
<g id="Color_1" data-name="Color 1">

<path class="cls-2" d="M206.79,7.71,78,0,34.1,82.31,95.63,96.39l7.4,32,15.16,3.42L121.06,105l3.8,28.35,17.67,4,2.75-19.47,3.52,19.41L166.72,131l.41-24.54,5.75,22.39,12.29-4.3,5.64-28.1L252.91,78ZM76.27,51.82l23.1-22.88,25,14.2,6.1,18Zm71,30.84-14.06,3.93,12.08-16,9,15.19Zm13.89-19,6.55-12.48,25.8-10.45L207.67,58Z"/>

<polygon class="cls-2" points="255.62 99.65 243.04 185.93 245.34 102.69 224.18 108.96 216.13 237.89 214.3 111.89 209.34 113.36 203.84 140.76 188.41 146.16 184.68 221.36 178.89 149.49 158.32 156.68 167.2 278.97 255.46 227.74 276.05 93.6 255.62 99.65"/>

<polygon class="cls-2" points="136.86 158.06 112.19 152.49 112.33 212.7 101.31 150.03 85.13 146.38 77.72 114.35 72.21 113.09 85.25 242.6 62.38 110.84 42.34 106.25 49.2 180.1 31.49 103.76 11.95 99.29 40.13 239.47 146.31 288 136.86 158.06"/>

</g></svg>