<svg xmlns="http://www.w3.org/2000/svg" xmlns:xlink="http://www.w3.org/1999/xlink" viewBox="0 0 288 288"><defs><style>.cls-1,.cls-7,.cls-8{fill:none;}.cls-2{fill:url(#Gold_Gradient);}.cls-3{fill:url(#Silver_Gradient);}.cls-4{fill:url(#God_s_Blood_Gradient);}.cls-5{fill:url(#Silver_Gradient-2);}.cls-6{fill:url(#Silver_Gradient-3);}.cls-7,.cls-8{stroke-miterlimit:10;stroke-width:10px;}.cls-7{stroke:url(#linear-gradient);}.cls-8{stroke:url(#linear-gradient-2);}.cls-9{fill:url(#Gold_Gradient-2);}.cls-10{fill:url(#Gold_Gradient-3);}</style><linearGradient id="Gold_Gradient" x1="708.72" y1="597.58" x2="782.73" y2="610.63" gradientTransform="translate(204.54 1135.29) rotate(-135)" gradientUnits="userSpaceOnUse"><stop offset="0" stop-color="#aa7a02"/><stop offset="0.15" stop-color="#d1810f"/><stop offset="0.5" stop-color="#ffed6e"/><stop offset="0.85" stop-color="#d1810f"/><stop offset="1" stop-color="#aa7a02"/></linearGradient><linearGradient id="Silver_Gradient" x1="137.96" y1="205.15" x2="76.41" y2="162.05" gradientUnits="userSpaceOnUse"><stop offset="0" stop-color="gray"/><stop offset="0.5" stop-color="#fff"/><stop offset="1" stop-color="#666"/></linearGradient><linearGradient id="God_s_Blood_Gradient" x1="734.92" y1="790.96" x2="752.6" y2="790.96" gradientTransform="translate(-553.04 793.84) rotate(-90)" gradientUnits="userSpaceOnUse"><stop offset="0" stop-color="#020244"/><stop offset="0.5" stop-color="#0a047e"/><stop offset="1" stop-color="#020244"/></linearGradient><linearGradient id="Silver_Gradient-2" x1="717.4" y1="710.51" x2="770.12" y2="763.23" gradientTransform="translate(204.54 1135.29) rotate(-135)" xlink:href="#Silver_Gradient"/><linearGradient id="Silver_Gradient-3" x1="236.95" y1="88.33" x2="162.4" y2="88.33" xlink:href="#Silver_Gradient"/><linearGradient id="linear-gradient" x1="700.67" y1="742.16" x2="700.67" y2="742.16" gradientTransform="translate(204.54 1135.29) rotate(-135)" xlink:href="#Silver_Gradient"/><linearGradient id="linear-gradient-2" x1="728.72" y1="742.16" x2="728.72" y2="742.16" gradientTransform="translate(204.54 1135.29) rotate(-135)" xlink:href="#Silver_Gradient"/><linearGradient id="Gold_Gradient-2" x1="732.76" y1="828.8" x2="754.75" y2="850.79" xlink:href="#Gold_Gradient"/><linearGradient id="Gold_Gradient-3" x1="288" y1="15.55" x2="256.9" y2="15.55" gradientTransform="matrix(1, 0, 0, 1, 0, 0)" xlink:href="#Gold_Gradient"/></defs><g id="Border"><rect class="cls-1" width="288" height="288"/></g><g id="True"><path class="cls-2" d="M199.2,68.57,219.43,88.8,108.81,199.42c-10.39,10.39-13.27,17.9-13.27,17.9C60.9,239.82,43.6,269.26,43.6,269.26L0,288l18.74-43.6s32-19.9,51.94-51.94c0,0,7.51-2.88,17.9-13.27Z" transform="translate(0)"/><path class="cls-3" d="M199.2,74.23,213.77,88.8,106,196.6c-8.49,8.49-12.29,15.29-13.61,18C61.42,235,44.44,260.36,40.85,266.09L7.64,280.36l14.29-33.25c5.84-3.81,33.16-22.57,51.5-51.5,2.75-1.33,9.52-5.14,18-13.59L199.2,74.23m0-5.66L88.58,179.19c-10.39,10.39-17.9,13.27-17.9,13.27-19.9,32-51.94,51.94-51.94,51.94L0,288l43.6-18.74s17.3-29.44,51.94-51.94c0,0,2.88-7.51,13.27-17.9L219.43,88.8,199.2,68.57Z" transform="translate(0)"/><rect class="cls-4" x="193.51" y="41.24" width="88.83" height="17.68" transform="translate(34.28 182.9) rotate(-45)"/><path class="cls-5" d="M203.42,84.58s-6.55,4.61-16.74-5.57C171.33,63.66,162.4,58.65,162.4,58.65l2-2c11.16-11.16,20-2.31,20-2.31,5.58-5.58,11.74.58,11.74.58l3.36,3.36c2.79-2.79,7,1.45,7,1.45l5.29,5.29c4.61,4.61,2.27,8.89,2.27,8.89s4.28-2.34,8.89,2.27l5.29,5.29s4.24,4.23,1.45,7L233,91.89s6.16,6.16.58,11.74c0,0,8.85,8.85-2.31,20l-2,2s-5-8.93-20.36-24.28C198.81,91.13,203.42,84.58,203.42,84.58Z" transform="translate(0)"/><path class="cls-6" d="M175.89,53.05A11,11,0,0,1,183,55.79l1.41,1.42,1.41-1.42A5.24,5.24,0,0,1,189.55,54c2.74,0,5.12,2.31,5.14,2.33l3.37,3.37,1.41,1.41,1.42-1.41a1.08,1.08,0,0,1,.84-.37c1.15,0,2.75,1.22,3.35,1.81l5.29,5.29c3.37,3.37,2.07,6.23,1.93,6.52l-2.58,4.71L202.26,83a5.84,5.84,0,0,1-3,.67c-2.35,0-6.21-1-11.2-6-11.15-11.15-18.93-16.9-22.51-19.29l.2-.2c3.35-3.35,6.75-5.05,10.11-5.05m40.92,22.3a6.73,6.73,0,0,1,4.72,2.28l5.28,5.29s2.75,2.9,1.45,4.19l-1.41,1.42,1.41,1.41,3.36,3.36c.48.49,4.59,4.91.59,8.92l-1.42,1.41,1.42,1.41c.3.31,7.32,7.55-2.31,17.18l-.2.2c-2.39-3.58-8.14-11.36-19.29-22.51-8.73-8.73-5.48-14-5.36-14.17l5.25-7.46L215,75.7a4.59,4.59,0,0,1,1.8-.35m-40.92-24.3c-3.24,0-7.21,1.32-11.53,5.64l-2,2s8.93,5,24.28,20.36c5.35,5.34,9.69,6.61,12.61,6.61a7.61,7.61,0,0,0,4.13-1s-4.61,6.55,5.57,16.74c15.35,15.35,20.36,24.28,20.36,24.28l2-2c11.16-11.16,2.31-20,2.31-20,5.58-5.58-.58-11.74-.58-11.74l-3.36-3.36c2.79-2.79-1.45-7-1.45-7l-5.29-5.29a8.58,8.58,0,0,0-6.13-2.87,6.19,6.19,0,0,0-2.76.6s2.34-4.28-2.27-8.89l-5.29-5.29s-2.39-2.4-4.76-2.4a3.09,3.09,0,0,0-2.26,1L196.11,55S193.19,52,189.55,52a7.19,7.19,0,0,0-5.18,2.34,12.89,12.89,0,0,0-8.48-3.33Z" transform="translate(0)"/><path class="cls-7" d="M233.88,115.05" transform="translate(0)"/><path class="cls-8" d="M214.05,95.22" transform="translate(0)"/><path class="cls-9" d="M275.12,31.1,284.23,22A12.88,12.88,0,0,0,266,3.77l-9.11,9.11Z" transform="translate(0)"/><path class="cls-10" d="M275.12,2a10.89,10.89,0,0,1,7.69,18.58l-7.69,7.69L259.73,12.88l7.69-7.69A10.81,10.81,0,0,1,275.12,2m0-2A12.85,12.85,0,0,0,266,3.77l-9.11,9.11L275.12,31.1,284.23,22a12.88,12.88,0,0,0-9.11-22Z" transform="translate(0)"/></g></svg>