<svg xmlns="http://www.w3.org/2000/svg" xmlns:xlink="http://www.w3.org/1999/xlink" viewBox="0 0 290.51 290.51"><defs><style>.cls-1{fill:none;}.cls-2{fill:url(#linear-gradient);}.cls-3{fill:url(#linear-gradient-2);}.cls-4{fill:url(#linear-gradient-3);}.cls-5{fill:url(#Gold_Gradient);}.cls-6{fill:url(#Gold_Gradient-2);}.cls-7{fill:url(#Gold_Gradient-3);}.cls-8{fill:url(#Gold_Gradient-4);}.cls-9{fill:url(#Gold_Gradient-5);}.cls-10{fill:url(#Gold_Gradient-6);}.cls-11{opacity:0.4;}.cls-12{fill:#42210b;}.cls-13{fill:url(#Gold_Gradient-7);}.cls-14{fill:url(#Gold_Gradient-8);}.cls-15{fill:url(#linear-gradient-4);}.cls-16{opacity:0.2;}.cls-17{fill:url(#linear-gradient-5);}.cls-18{fill:url(#linear-gradient-6);}.cls-19{fill:url(#linear-gradient-7);}.cls-20{fill:url(#linear-gradient-8);}.cls-21{fill:url(#linear-gradient-9);}.cls-22{fill:url(#linear-gradient-10);}.cls-23{fill:url(#linear-gradient-11);}.cls-24{fill:url(#linear-gradient-12);}.cls-25{fill:url(#linear-gradient-13);}.cls-26{fill:url(#Gold_Gradient-9);}.cls-27{fill:#704199;}.cls-28{fill:#f98cf4;}.cls-29{fill:#be37cc;}.cls-30{fill:url(#Gold_Gradient-10);}.cls-31{fill:url(#Gold_Gradient-11);}.cls-32{fill:url(#Gold_Gradient-12);}</style><linearGradient id="linear-gradient" x1="103.82" y1="98.56" x2="173.96" y2="86.2" gradientTransform="translate(144.09 347.62) rotate(-135)" gradientUnits="userSpaceOnUse"><stop offset="0" stop-color="#666"/><stop offset="0.15" stop-color="#999"/><stop offset="0.5" stop-color="#fff"/><stop offset="0.85" stop-color="#999"/><stop offset="1" stop-color="#666"/></linearGradient><linearGradient id="linear-gradient-2" x1="125.3" y1="207.32" x2="83.53" y2="147.67" gradientTransform="matrix(1, 0, 0, 1, 0, 0)" xlink:href="#linear-gradient"/><linearGradient id="linear-gradient-3" x1="137.89" y1="280.17" x2="150.2" y2="280.17" gradientTransform="translate(-39.82 191.69) rotate(-90)" gradientUnits="userSpaceOnUse"><stop offset="0" stop-color="#42210b"/><stop offset="0.15" stop-color="#603813"/><stop offset="0.5" stop-color="#754c24"/><stop offset="0.85" stop-color="#603813"/><stop offset="1" stop-color="#42210b"/></linearGradient><linearGradient id="Gold_Gradient" x1="136.63" y1="329" x2="151.46" y2="329" gradientTransform="translate(-54.12 157.17) rotate(-90)" gradientUnits="userSpaceOnUse"><stop offset="0" stop-color="#aa7a02"/><stop offset="0.15" stop-color="#d1810f"/><stop offset="0.5" stop-color="#ffed6e"/><stop offset="0.85" stop-color="#d1810f"/><stop offset="1" stop-color="#aa7a02"/></linearGradient><linearGradient id="Gold_Gradient-2" x1="136.63" y1="257.37" x2="151.46" y2="257.37" gradientTransform="translate(-33.14 207.82) rotate(-90)" xlink:href="#Gold_Gradient"/><linearGradient id="Gold_Gradient-3" x1="156.86" y1="264.04" x2="179.15" y2="225.43" gradientTransform="translate(144.09 347.62) rotate(-135)" xlink:href="#Gold_Gradient"/><linearGradient id="Gold_Gradient-4" x1="193.3" y1="68.89" x2="200.3" y2="42.78" gradientTransform="matrix(1, 0, 0, 1, 0, 0)" xlink:href="#Gold_Gradient"/><linearGradient id="Gold_Gradient-5" x1="26.49" y1="264.04" x2="48.78" y2="225.43" gradientTransform="matrix(0.71, 0.71, 0.71, -0.71, 32.67, 236.19)" xlink:href="#Gold_Gradient"/><linearGradient id="Gold_Gradient-6" x1="219.21" y1="94.8" x2="245.32" y2="87.8" gradientTransform="matrix(1, 0, 0, 1, 0, 0)" xlink:href="#Gold_Gradient"/><linearGradient id="Gold_Gradient-7" x1="135.86" y1="342.92" x2="152.17" y2="326.61" gradientTransform="translate(144.09 350.09) rotate(-135)" xlink:href="#Gold_Gradient"/><linearGradient id="Gold_Gradient-8" x1="278.97" y1="20.6" x2="278.97" y2="-2.47" gradientTransform="matrix(1, 0, 0, 1, 0, 0)" xlink:href="#Gold_Gradient"/><linearGradient id="linear-gradient-4" x1="137.41" y1="281.54" x2="150.67" y2="281.54" gradientTransform="translate(144.09 347.62) rotate(-135)" gradientUnits="userSpaceOnUse"><stop offset="0" stop-color="#ccc"/><stop offset="0.15" stop-color="#e6e6e6"/><stop offset="0.5" stop-color="#fff"/><stop offset="0.85" stop-color="#e6e6e6"/><stop offset="1" stop-color="#ccc"/></linearGradient><linearGradient id="linear-gradient-5" x1="137.41" y1="288.86" x2="150.67" y2="288.86" xlink:href="#linear-gradient-4"/><linearGradient id="linear-gradient-6" x1="137.41" y1="296.18" x2="150.67" y2="296.18" xlink:href="#linear-gradient-4"/><linearGradient id="linear-gradient-7" x1="137.41" y1="266.9" x2="150.67" y2="266.9" xlink:href="#linear-gradient-4"/><linearGradient id="linear-gradient-8" x1="137.41" y1="274.22" x2="150.67" y2="274.22" xlink:href="#linear-gradient-4"/><linearGradient id="linear-gradient-9" x1="137.41" y1="303.5" x2="150.67" y2="303.5" xlink:href="#linear-gradient-4"/><linearGradient id="linear-gradient-10" x1="137.41" y1="310.82" x2="150.67" y2="310.82" xlink:href="#linear-gradient-4"/><linearGradient id="linear-gradient-11" x1="137.41" y1="318.14" x2="150.67" y2="318.14" xlink:href="#linear-gradient-4"/><linearGradient id="linear-gradient-12" x1="137.89" y1="321.8" x2="150.41" y2="321.8" xlink:href="#linear-gradient-4"/><linearGradient id="linear-gradient-13" x1="-27.76" y1="194.79" x2="-15.24" y2="194.79" gradientTransform="translate(381.39 -62.83) rotate(45)" xlink:href="#linear-gradient-4"/><linearGradient id="Gold_Gradient-9" x1="176.89" y1="115.75" x2="174.77" y2="113.63" gradientTransform="matrix(1, 0, 0, 1, 0, 0)" xlink:href="#Gold_Gradient"/><linearGradient id="Gold_Gradient-10" x1="135.69" y1="240.69" x2="140.88" y2="245.87" gradientTransform="translate(144.09 347.62) rotate(-135)" xlink:href="#Gold_Gradient"/><linearGradient id="Gold_Gradient-11" x1="146.02" y1="239.56" x2="153.46" y2="247" gradientTransform="translate(144.09 347.62) rotate(-135)" xlink:href="#Gold_Gradient"/><linearGradient id="Gold_Gradient-12" x1="135" y1="230.79" x2="153.02" y2="248.82" gradientTransform="translate(144.09 347.62) rotate(-135)" xlink:href="#Gold_Gradient"/></defs><g id="Border"><rect class="cls-1" y="2.47" width="288" height="288"/></g><g id="True"><path class="cls-2" d="M155.42,112.75,28.18,240.58C25.1,259.87,0,288,0,288l.81-.74L0,288a116,116,0,0,0,47.44-28.18L175.29,132.63a251.42,251.42,0,0,1,36-29.45,14.37,14.37,0,0,1-1-10.48c1.89-5.66,8.4-11.54,8.4-11.54l-5.93-5.94-5.94-5.94s-5.89,6.51-11.54,8.4a14.41,14.41,0,0,1-10.49-1A250.55,250.55,0,0,1,155.42,112.75Z" transform="translate(0 2.47)"/><path class="cls-3" d="M206.89,73.52l3.81,3.82,3.82,3.81c-2.27,2.42-5.63,6.49-7,10.6a16.61,16.61,0,0,0,.12,10.29,254.29,254.29,0,0,0-34.47,28.46L45.35,257.74A114.16,114.16,0,0,1,9.21,281.59C16.87,271.8,28.42,255.32,31,242L157.54,114.88A253.35,253.35,0,0,0,186,80.41a17.93,17.93,0,0,0,5.48.88,15.15,15.15,0,0,0,4.82-.76c4.11-1.37,8.18-4.74,10.6-7m0-4.24s-5.89,6.51-11.54,8.4a12.14,12.14,0,0,1-3.88.61,15.15,15.15,0,0,1-6.61-1.57,250.55,250.55,0,0,1-29.44,36L28.18,240.58C25.1,259.87,0,288,0,288l.81-.74L0,288a116,116,0,0,0,47.44-28.18L175.29,132.63a251.42,251.42,0,0,1,36-29.45,14.37,14.37,0,0,1-1-10.48c1.89-5.66,8.4-11.54,8.4-11.54l-5.93-5.94-5.94-5.94Z" transform="translate(0 2.47)"/><rect class="cls-4" x="195.49" y="41.5" width="89.73" height="12.31" transform="translate(36.7 186.38) rotate(-45)"/><rect class="cls-5" x="269.11" y="5.71" width="11.53" height="14.83" transform="translate(71.23 200.68) rotate(-45)"/><rect class="cls-6" x="219.78" y="56.36" width="8.89" height="14.83" transform="translate(20.58 179.7) rotate(-45)"/><path class="cls-7" d="M191.85,59.86l9.48,9.48A12.28,12.28,0,0,0,218.7,52l-4.54-4.55a6.44,6.44,0,0,0-9.1,0l-3.13-3.13a7.74,7.74,0,0,0-10.94,0L189.5,42.8a10.41,10.41,0,0,0-14.71,0l-2.36,2.36S179,47.05,191.85,59.86Z" transform="translate(0 2.47)"/><path class="cls-8" d="M182.15,40.76a9.29,9.29,0,0,1,6.64,2.75L190.28,45l.71.7.71-.7a6.71,6.71,0,0,1,9.52,0l3.14,3.13.7.71.71-.71a5.43,5.43,0,0,1,7.68,0L218,52.68a11.28,11.28,0,1,1-16,15.95l-9.48-9.48c-9.53-9.53-15.7-13.1-18.36-14.35l1.3-1.29a9.33,9.33,0,0,1,6.65-2.75m0-1a10.38,10.38,0,0,0-7.36,3l-2.36,2.36s6.61,1.89,19.42,14.7l9.48,9.48A12.28,12.28,0,0,0,218.7,52l-4.54-4.55a6.45,6.45,0,0,0-9.1,0l-3.13-3.13a7.73,7.73,0,0,0-10.94,0L189.5,42.8a10.36,10.36,0,0,0-7.35-3Z" transform="translate(0 2.47)"/><path class="cls-9" d="M228.24,96.25l-9.48-9.48A12.28,12.28,0,0,1,236.13,69.4l4.55,4.54a6.44,6.44,0,0,1,0,9.1l3.13,3.13a7.74,7.74,0,0,1,0,10.94l1.49,1.49a10.41,10.41,0,0,1,0,14.71l-2.36,2.36S241.05,109.06,228.24,96.25Z" transform="translate(0 2.47)"/><path class="cls-10" d="M227.45,66.8a11.19,11.19,0,0,1,8,3.3L240,74.65a5.43,5.43,0,0,1,0,7.68l-.71.71.71.7,3.13,3.13a6.74,6.74,0,0,1,0,9.53l-.71.71.71.71,1.49,1.49a9.4,9.4,0,0,1,0,13.29l-1.29,1.29c-1.25-2.66-4.82-8.82-14.35-18.35l-9.48-9.48a11.28,11.28,0,0,1,8-19.26m0-1a12.29,12.29,0,0,0-8.69,21l9.48,9.48c12.81,12.81,14.7,19.42,14.7,19.42l2.36-2.36a10.41,10.41,0,0,0,0-14.71l-1.49-1.49a7.74,7.74,0,0,0,0-10.94L240.68,83a6.44,6.44,0,0,0,0-9.1l-4.55-4.54a12.24,12.24,0,0,0-8.68-3.6Z" transform="translate(0 2.47)"/><g class="cls-11"><path class="cls-12" d="M211.66,70.19c-8.28.54-13.71-10.74-6.61-16a7.55,7.55,0,0,1,7.45-1c5.53,2.46,4.93,11.29-1.72,11.21-4.76-.23-5.61-7.6-.35-7.5a2.55,2.55,0,0,1,2.25,2.61,2.46,2.46,0,0,0-2.27-2.35A3.05,3.05,0,0,0,208,62.1c2.14,3.16,7.26,1,7.38-2.53.31-5.26-5.83-7.68-9.78-4.67-6.6,4.94-1.56,15.24,6.08,15.29Z" transform="translate(0 2.47)"/></g><g class="cls-11"><path class="cls-12" d="M217.91,76.44c.05,7.64,10.35,12.68,15.29,6.08,3-4,.59-10.09-4.67-9.78-3.52.12-5.69,5.24-2.53,7.38a3.05,3.05,0,0,0,4.93-2.43,2.48,2.48,0,0,0-2.35-2.28,2.56,2.56,0,0,1,2.61,2.26c.1,5.27-7.27,4.41-7.5-.35-.08-6.65,8.75-7.25,11.21-1.73a7.56,7.56,0,0,1-1,7.46c-5.29,7.1-16.57,1.67-16-6.61Z" transform="translate(0 2.47)"/></g><circle class="cls-13" cx="278.97" cy="11.53" r="11.53"/><path class="cls-14" d="M279-1.47A10.54,10.54,0,1,1,268.44,9.07,10.55,10.55,0,0,1,279-1.47m0-1A11.54,11.54,0,1,0,290.51,9.07,11.54,11.54,0,0,0,279-2.47Z" transform="translate(0 2.47)"/><path class="cls-15" d="M233.37,45.93l10.73,6.68a38,38,0,0,0,4.15-3.48,3.9,3.9,0,0,0,1-1.69l-10.72-6.69a4,4,0,0,0-1.7,1A39.37,39.37,0,0,0,233.37,45.93Z" transform="translate(0 2.47)"/><path class="cls-16" d="M233.5,45.76l-.13.17,10.73,6.68.14-.09Z" transform="translate(0 2.47)"/><path class="cls-17" d="M238.55,40.75l10.72,6.69A38.33,38.33,0,0,0,253.43,44a4,4,0,0,0,1-1.69l-10.73-6.68a4,4,0,0,0-1.69,1A38,38,0,0,0,238.55,40.75Z" transform="translate(0 2.47)"/><path class="cls-16" d="M238.67,40.58l-.12.17,10.72,6.69.14-.1Z" transform="translate(0 2.47)"/><path class="cls-18" d="M243.72,35.58l10.73,6.68a38,38,0,0,0,4.15-3.48,4,4,0,0,0,1-1.69L248.9,30.4a4,4,0,0,0-1.69,1A38.73,38.73,0,0,0,243.72,35.58Z" transform="translate(0 2.47)"/><path class="cls-16" d="M243.85,35.41l-.13.17,10.73,6.68.14-.1Z" transform="translate(0 2.47)"/><path class="cls-19" d="M223,56.28,233.75,63a38.73,38.73,0,0,0,4.15-3.49,4,4,0,0,0,1-1.69l-10.73-6.68a4.08,4.08,0,0,0-1.69,1A38,38,0,0,0,223,56.28Z" transform="translate(0 2.47)"/><path class="cls-20" d="M228.19,51.11l10.73,6.68a37.63,37.63,0,0,0,4.16-3.48,4.09,4.09,0,0,0,1-1.7l-10.73-6.68a4,4,0,0,0-1.69,1A38.33,38.33,0,0,0,228.19,51.11Z" transform="translate(0 2.47)"/><path class="cls-16" d="M228.32,50.93l-.13.18,10.73,6.68.14-.1Z" transform="translate(0 2.47)"/><path class="cls-16" d="M223.14,56.11l-.12.17L233.75,63l.13-.1Z" transform="translate(0 2.47)"/><path class="cls-21" d="M248.9,30.4l10.73,6.69a38.73,38.73,0,0,0,4.15-3.49,4,4,0,0,0,1-1.69l-10.73-6.68a4.08,4.08,0,0,0-1.69,1A38,38,0,0,0,248.9,30.4Z" transform="translate(0 2.47)"/><path class="cls-16" d="M249,30.23l-.12.17,10.73,6.69.13-.1Z" transform="translate(0 2.47)"/><path class="cls-22" d="M254.07,25.23l10.73,6.68A37.63,37.63,0,0,0,269,28.43a4.09,4.09,0,0,0,1-1.7l-10.73-6.68a4,4,0,0,0-1.69,1A38.33,38.33,0,0,0,254.07,25.23Z" transform="translate(0 2.47)"/><path class="cls-16" d="M254.2,25.05l-.13.18,10.73,6.68.14-.1Z" transform="translate(0 2.47)"/><path class="cls-23" d="M259.25,20.05,270,26.73a38,38,0,0,0,4.15-3.48,4,4,0,0,0,1-1.69l-10.73-6.69a4,4,0,0,0-1.7,1A39.37,39.37,0,0,0,259.25,20.05Z" transform="translate(0 2.47)"/><path class="cls-16" d="M259.38,19.88l-.13.17L270,26.73l.14-.1Z" transform="translate(0 2.47)"/><path class="cls-24" d="M264.43,14.87l10.73,6.69-8.71-8.71C265.49,13.15,264.43,14.87,264.43,14.87Z" transform="translate(0 2.47)"/><path class="cls-25" d="M233.75,63,223,56.28l8.7,8.71C232.69,64.7,233.75,63,233.75,63Z" transform="translate(0 2.47)"/><path class="cls-16" d="M264.54,14.7l-.11.17,10.73,6.69-.51-.5-10.1-6.36Z" transform="translate(0 2.47)"/><polygon class="cls-26" points="212.89 79.75 139.82 150.69 210.77 77.63 212.89 79.75"/><g class="cls-11"><path class="cls-12" d="M275.81,15.09C271,11,274.19,1.81,280.89,2.8a5.87,5.87,0,0,1,4.62,3.57c1.19,2.93-1.07,6.87-4.41,6.55-3.58-.16-5.06-5-1.51-6.49,2.1-.71,4.25,1.82,2.5,3.48,1.42-1.65-.54-3.76-2.35-3a2.43,2.43,0,0,0-1.48,1.88c-.52,2.76,3.28,4.27,5.16,2.49,2.91-2.56,1-7-2.68-7.53-6.1-.94-8.9,7.27-4.93,11.35Z" transform="translate(0 2.47)"/></g><circle class="cls-27" cx="211.83" cy="78.69" r="11.77"/><polygon class="cls-28" points="223.6 66.92 223.6 78.69 213.28 77.24 211.83 66.92 223.6 66.92"/><path class="cls-29" d="M223.6,76.22h0a11.68,11.68,0,0,0-10.32-1.45,5.26,5.26,0,1,0,10.32,1.45Z" transform="translate(0 2.47)"/><path class="cls-30" d="M215.08,79.48a4.64,4.64,0,0,1-1.25-4.23,10,10,0,0,1,4.69-.33,10.08,10.08,0,0,1,4.42,1.6,4.66,4.66,0,0,1-1.34,3,4.61,4.61,0,0,1-6.52,0m-.46.46a5.26,5.26,0,0,0,9-3.72h0a11.68,11.68,0,0,0-10.32-1.45,5.29,5.29,0,0,0-.21,1.45,5.22,5.22,0,0,0,1.55,3.72Z" transform="translate(0 2.47)"/><path class="cls-29" d="M211.83,64.45h0a9.62,9.62,0,0,1,1.94,5,9.62,9.62,0,0,1-.49,5.33,5.34,5.34,0,0,1-1.45.2,5.26,5.26,0,0,1,0-10.52Z" transform="translate(0 2.47)"/><path class="cls-31" d="M208.57,73h0a4.61,4.61,0,0,1,0-6.52,4.66,4.66,0,0,1,3-1.34,11.29,11.29,0,0,1,1.28,9.11A4.64,4.64,0,0,1,208.57,73m-.46.46A5.21,5.21,0,0,0,211.83,75a5.34,5.34,0,0,0,1.45-.2,9.62,9.62,0,0,0,.49-5.33,9.62,9.62,0,0,0-1.94-5h0a5.26,5.26,0,0,0-3.72,9Z" transform="translate(0 2.47)"/><path class="cls-32" d="M203.51,84.54a11.77,11.77,0,0,1,8.32-20.09H223.6V76.22h0a11.77,11.77,0,0,1-20.09,8.32m-.69.69a12.74,12.74,0,0,0,21.75-9V63.47H211.83a12.75,12.75,0,0,0-9,21.76Z" transform="translate(0 2.47)"/></g></svg>