<svg xmlns="http://www.w3.org/2000/svg" xmlns:xlink="http://www.w3.org/1999/xlink" viewBox="0 0 288 288"><defs><style>.cls-1,.cls-3{fill:none;}.cls-2{fill:url(#linear-gradient);}.cls-3{stroke-miterlimit:10;stroke-width:10px;stroke:url(#linear-gradient-2);}.cls-4{fill:url(#linear-gradient-3);}.cls-5{fill:url(#linear-gradient-4);}.cls-6{fill:url(#linear-gradient-5);}.cls-7{fill:url(#linear-gradient-6);}</style><linearGradient id="linear-gradient" x1="146.19" y1="274.74" x2="165.11" y2="274.74" gradientTransform="matrix(0.71, 0.71, 0.71, -0.71, -59.65, 144)" gradientUnits="userSpaceOnUse"><stop offset="0.1" stop-color="#1a1a1a"/><stop offset="0.5" stop-color="#4d4d4d"/><stop offset="0.9" stop-color="#1a1a1a"/></linearGradient><linearGradient id="linear-gradient-2" x1="-308.67" y1="236.16" x2="-308.67" y2="236.16" gradientTransform="matrix(0.71, 0.71, 0.71, -0.71, 282.43, 450.2)" gradientUnits="userSpaceOnUse"><stop offset="0" stop-color="gray"/><stop offset="0.5" stop-color="#fff"/><stop offset="1" stop-color="#666"/></linearGradient><linearGradient id="linear-gradient-3" x1="112.8" y1="232.74" x2="198.69" y2="232.74" gradientTransform="matrix(0.71, 0.71, 0.71, -0.71, -59.65, 144)" gradientUnits="userSpaceOnUse"><stop offset="0" stop-color="#4d4d4d"/><stop offset="0.5" stop-color="#999"/><stop offset="1" stop-color="#4d4d4d"/></linearGradient><linearGradient id="linear-gradient-4" x1="139.15" y1="224.42" x2="172.35" y2="224.42" gradientTransform="matrix(0.71, 0.71, 0.71, -0.71, -59.65, 144)" gradientUnits="userSpaceOnUse"><stop offset="0" stop-color="gray"/><stop offset="0.5" stop-color="#e6e6e6"/><stop offset="1" stop-color="gray"/></linearGradient><linearGradient id="linear-gradient-5" x1="512.41" y1="1203.02" x2="542.67" y2="1203.02" gradientTransform="matrix(-0.71, -0.71, -0.71, 0.71, 1498.16, -447.49)" xlink:href="#linear-gradient-3"/><linearGradient id="linear-gradient-6" x1="517.86" y1="1193.05" x2="537.22" y2="1193.05" gradientTransform="matrix(-0.71, -0.71, -0.71, 0.71, 1495.33, -444.67)" xlink:href="#linear-gradient-4"/></defs><g id="Border"><rect class="cls-1" width="288" height="288"/></g><g id="True"><path d="M182.73,153.18a22,22,0,0,0,6.45-16.79,13.5,13.5,0,0,1,2-7.67c2-3.29,6.16-7.83,13.1-14.77,14.3-14.3,20.3-14.93,20.3-14.93l-19-19s-.63,6-14.93,20.3c-6.94,6.94-11.48,11.11-14.77,13.1a13.5,13.5,0,0,1-7.67,2A22.13,22.13,0,0,0,145,137.78a13.19,13.19,0,0,1-2.39,7.63C139.09,150.48,67.49,226.06,0,270.63c37.81,3.75,63.67-7.6,63.67-7.6,5.17-18.62,90.46-97.52,95.53-101a13.28,13.28,0,0,1,7.63-2.38A22,22,0,0,0,182.73,153.18Zm-4.22-6a15,15,0,1,1,0-19.4A15,15,0,0,1,178.51,147.23Z"/><polygon class="cls-2" points="282.95 34.9 269.7 21.65 206.42 84.67 219.8 98.05 282.95 34.9"/><path class="cls-3" d="M231.16,65"/><polygon class="cls-4" points="247.95 113.81 190.8 56.66 180.36 63.51 241.1 124.25 247.95 113.81"/><polygon class="cls-5" points="222.47 105.61 199 82.14 196.32 85.71 218.9 108.29 222.47 105.61"/><polygon class="cls-6" points="262.51 23.86 280.75 42.1 288 38.01 266.61 16.61 262.51 23.86"/><polygon class="cls-7" points="270.46 20.46 284.15 34.15 286.21 30.67 273.94 18.4 270.46 20.46"/></g></svg>