<svg xmlns="http://www.w3.org/2000/svg" viewBox="0 0 288 288"><defs><style>.cls-1{fill:none;}.cls-2{fill:#fff;}.cls-3{fill:#1bdb43;}</style></defs><g id="Border"><rect class="cls-1" width="288" height="288"/></g><g id="True"><path class="cls-2" d="M239.38,3.53,91.23,151.68a45.57,45.57,0,0,0-13.44,32.44v67.22a12.86,12.86,0,0,1-13.22,12.85C57.69,264,52.09,258,52.09,250.83V237.26a11.86,11.86,0,0,0-23.71,0v13.57c0,19.89,16,36.52,35.54,37a36.26,36.26,0,0,0,26.51-10.34l.37-.36a36.27,36.27,0,0,0,10.7-25.84V184.12A22,22,0,0,1,108,168.44l8.63-8.63,18.95,41.13A11.85,11.85,0,1,0,157.1,191l-22.61-49.08,8.3-8.29,48.66,48.66a11.5,11.5,0,0,0,16.22,0l7.94-7.94a11.5,11.5,0,0,0,0-16.22L167,109.49l27.4-27.4,29,29a11.85,11.85,0,0,0,16.76-16.77l-29-29,45-45A11.85,11.85,0,0,0,239.38,3.53Z"/><path class="cls-3" d="M143.71,162l-4.25-9.22c-6.3-2.64-19.22,2.92-25.81.63l4.25,9.22C124.4,165,137.32,159.43,143.71,162Z"/><path class="cls-3" d="M109.88,133.72a11.82,11.82,0,0,0-1,8.88c6.74,2,19.48-3.44,25.6-.68L131,134.44a11.42,11.42,0,0,0-1.08-1.86C125.19,130.57,116.62,133.28,109.88,133.72Z"/><path class="cls-3" d="M136.65,202.8c4.76,2,13.34-.7,20.09-1.14a11.85,11.85,0,0,0,1-8.87c-6.73-2-19.49,3.43-25.62.68l3.44,7.47A12.2,12.2,0,0,0,136.65,202.8Z"/><path class="cls-3" d="M153,182l-4.25-9.22c-6.49-2.4-19.42,3.16-25.81.63l4.25,9.22C133.44,185.29,146.37,179.72,153,182Z"/><path class="cls-3" d="M225.39,112.7a11.82,11.82,0,0,0,17.76-7C237.15,108.27,230.35,113.31,225.39,112.7Z"/><path class="cls-3" d="M209.12,96.86l4.1,4.1,1.22,1.22,1.93,1.93c6.95,1.44,17.92-9.4,25-8.29a12.12,12.12,0,0,0-1.27-1.53l-5.68-5.68C227.35,87.15,216.17,98.32,209.12,96.86Z"/><path class="cls-3" d="M182.52,64.8A11.81,11.81,0,0,0,185,72.6c7.06,1.26,18.12-9.72,25.11-8.27l-7.25-7.25C197.3,55.92,189.17,62.63,182.52,64.8Z"/><path class="cls-3" d="M193.35,81.09l2.9,2.9,1.84,1.84,2.51,2.51c7.05,1.47,18.23-9.71,25.28-8.24l-7.25-7.25C211.58,71.38,200.4,82.56,193.35,81.09Z"/><path class="cls-2" d="M90.8,277.18l-.37.36a36.26,36.26,0,0,1-26.51,10.34c-19.59-.53-35.54-17.16-35.54-37V237.26a11.86,11.86,0,0,1,23.71,0v13.57c0,7.17,5.6,13.17,12.48,13.36a12.86,12.86,0,0,0,13.22-12.85V184.12a45.57,45.57,0,0,1,13.44-32.44L239.38,3.53a11.85,11.85,0,1,1,16.76,16.76L108,168.44a22,22,0,0,0-6.49,15.68v67.22A36.27,36.27,0,0,1,90.8,277.18Z"/><path class="cls-3" d="M66,264.21c-1.23,6.21,2.11,16.25-.39,23.73A36.44,36.44,0,0,0,78,285.57c.29-6.45-6.56-16.46-6.6-23.06A12.7,12.7,0,0,1,66,264.21Z"/><path class="cls-3" d="M52.15,248.14V237.88c-4.36-3.92-14.89-5-21-8a11.79,11.79,0,0,0-2.67,7.49v1C33.57,242.9,47.06,243.56,52.15,248.14Z"/><path class="cls-3" d="M99.2,264.33c-3.67-5.46-17.09-7.28-21.37-12.51a12.71,12.71,0,0,1-2.54,7.25c4.15,4.7,13.9,7.95,17.88,15.63A36.17,36.17,0,0,0,99.2,264.33Z"/><path class="cls-3" d="M31.17,264.81c6.49-.49,15.66-8,22.14-8.43a13.74,13.74,0,0,1-1.06-3.89c-6.54-1.26-17,2.45-23.72.77A36.86,36.86,0,0,0,31.17,264.81Z"/><path class="cls-3" d="M77.85,230v10.25c4.91,4.67,18.41,5.33,23.7,9.82V239.8C96.26,235.31,82.76,234.66,77.85,230Z"/><path class="cls-3" d="M77.85,185.39v10.26c4.91,4.67,18.41,5.32,23.7,9.81V195.21C96.26,190.72,82.76,190.06,77.85,185.39Z"/><path class="cls-3" d="M239.44,3.58l-1.77,1.78c-1.47,7.05,9.71,18.22,8.25,25.27l7.25-7.25c1.3-6.3-7.46-15.88-8.31-22.88A11.81,11.81,0,0,0,239.44,3.58Z"/><path class="cls-3" d="M49.45,284.37c4.28-5,6.34-16.32,10.69-21.13a12.94,12.94,0,0,1-4-2.7c-4.8,3.56-9.56,12.75-15.64,17.75A36.57,36.57,0,0,0,49.45,284.37Z"/><path class="cls-3" d="M77.85,207.69v10.25c4.91,4.68,18.41,5.33,23.7,9.82V217.51C96.26,213,82.76,212.36,77.85,207.69Z"/><path class="cls-3" d="M85.77,158.4a45.18,45.18,0,0,0-6,12.45c5.47,4.71,19,9.23,21.74,14v-.67a22.9,22.9,0,0,1,.42-4.31h0C103.28,173.55,87.94,165.15,85.77,158.4Z"/><path class="cls-3" d="M103,140l-3.5,3.49-2.24,2.25-1.51,1.51c-1.35,6.49,10.13,15.89,10.82,22.85.46-.56.94-1.09,1.46-1.61l3.22-3.22C112.73,158.23,101.55,147.06,103,140Z"/><path class="cls-3" d="M213.39,29.64,209,34.07l-1.23,1.22-1.59,1.6c-1.47,7,9.7,18.22,8.24,25.28l7.25-7.25C223.1,47.86,211.92,36.69,213.39,29.64Z"/><path class="cls-3" d="M229.15,13.87,225.06,18l-2.25,2.24-.91.91c-1.46,7.05,9.71,18.23,8.25,25.28l7.25-7.25C238.86,32.1,227.69,20.92,229.15,13.87Z"/><path class="cls-3" d="M181.85,61.17l-3,3.06-2.65,2.65-1.55,1.54c-1.46,7,9.71,18.23,8.25,25.28l7.25-7.25C191.56,79.4,180.39,68.22,181.85,61.17Z"/><path class="cls-3" d="M197.62,45.41,193.06,50l-1.63,1.63-1.06,1.07c-1.47,7.05,9.71,18.22,8.24,25.27l7.26-7.25C207.33,63.63,196.16,52.46,197.62,45.41Z"/><path class="cls-3" d="M134.55,108.47l-3.85,3.85-2.24,2.25-1.16,1.15c-1.46,7,9.71,18.23,8.25,25.28l7.25-7.25C144.26,126.7,133.09,115.52,134.55,108.47Z"/><path class="cls-3" d="M118.79,124.24,115,128l-1.43,1.42-2,2.05c-1.46,7,9.71,18.23,8.25,25.28l7.25-7.25C128.5,142.46,117.32,131.29,118.79,124.24Z"/><path class="cls-3" d="M166.09,76.94l-4,4-1.23,1.22-2,2c-1.47,7,9.7,18.23,8.24,25.28l7.25-7.25C175.8,95.16,164.62,84,166.09,76.94Z"/><path class="cls-3" d="M150.32,92.71,147,96l-1.83,1.83-2.1,2.11c-1.47,7.05,9.71,18.22,8.24,25.27l7.26-7.25C160,110.93,148.86,99.76,150.32,92.71Z"/><rect class="cls-2" x="160.85" y="96.97" width="34.16" height="95.33" rx="11.47" transform="translate(-50.16 168.18) rotate(-45)"/><path class="cls-3" d="M137.09,121l17.25-17.25a11.43,11.43,0,0,0-6.13,3.16l-8,8A11.43,11.43,0,0,0,137.09,121Z"/><polygon class="cls-3" points="211.14 153.68 211.14 153.68 204.25 146.79 204.25 146.79 197.53 140.07 173.37 164.23 190.54 181.4 214.7 157.24 211.14 153.68"/><polygon class="cls-3" points="158.33 149.19 182.49 125.03 178.82 121.36 173 115.54 165.32 107.86 141.16 132.02 158.33 149.19"/><path class="cls-3" d="M201.53,185.48a11.37,11.37,0,0,0,6.14-3.17l7.94-7.94a11.37,11.37,0,0,0,3.17-6.14Z"/></g></svg>