<svg xmlns="http://www.w3.org/2000/svg" viewBox="0 0 288 288.23"><defs><style>.cls-1{fill:none;}.cls-2{fill:#ffed0d;}.cls-3{fill:#bf9e13;}.cls-4{fill:#26420b;}.cls-5{fill:#083002;}</style></defs><g id="Border"><rect class="cls-1" y="0.23" width="288" height="288"/></g><g id="Color_1" data-name="Color 1"><path class="cls-2" d="M212.85,112.88a176.41,176.41,0,0,1-5.93,46l-6.51,4.61L188.21,180l-6.08-6.5L144,156.31l-38.13,17.23L99.79,180l-12.2-16.57-6.51-4.61a176.41,176.41,0,0,1-5.93-46C75.15,50.41,106-.23,144-.23S212.85,50.41,212.85,112.88Z" transform="translate(0 0.23)"/><path class="cls-3" d="M198.78,143.5c.19-1.52.38-3.05.54-4.58.32-3.72.67-7.44.82-11.17.25-4.77.32-9.54.26-14.32,3.13-.16,6.25-.33,9.38-.55q-4.69-.31-9.39-.55A229.64,229.64,0,0,0,198,83.15c0-.31-.11-.62-.16-.94,2.76.14,5.52.29,8.28.47-2.8-.6-5.62-1.11-8.45-1.56-1.06-6.67-2.4-13.31-4.08-19.85-.73-2.78-1.5-5.55-2.34-8.3,2.1.22,4.19.47,6.29.75-2.19-.68-4.39-1.27-6.62-1.8-1.24-4-2.64-8-4.27-11.83,1.53,3.85,2.84,7.79,4,11.77A166.61,166.61,0,0,0,171,48.64l-.32,0c-1-7-2.29-14-3.81-20.92a120.13,120.13,0,0,1,13.95,2.94A70.46,70.46,0,0,0,166.47,26c-.82-3.63-1.71-7.25-2.7-10.83.89,3.57,1.68,7.16,2.41,10.76-1.12-.24-2.25-.48-3.38-.69a108,108,0,0,0-18.57-1.69L144,6.82l-.23,16.71a108,108,0,0,0-18.57,1.69c-1.13.22-2.26.45-3.38.7.73-3.61,1.52-7.2,2.41-10.77-1,3.59-1.88,7.2-2.7,10.83a71.08,71.08,0,0,0-14.34,4.65,120.13,120.13,0,0,1,14-2.94c-1.52,6.92-2.76,13.91-3.81,20.92l-.32,0a168.71,168.71,0,0,0-19.63,3.22c1.15-4,2.45-7.92,4-11.77-1.63,3.86-3,7.82-4.28,11.83-2.22.53-4.42,1.12-6.61,1.8,2.1-.28,4.19-.53,6.29-.75-.84,2.75-1.61,5.52-2.34,8.3-1.68,6.54-3,13.18-4.08,19.86-2.83.44-5.65,1-8.45,1.55q4.14-.27,8.28-.47c-.05.32-.11.63-.16.94a229.64,229.64,0,0,0-2.41,29.18q-4.69.24-9.39.55c3.13.21,6.25.39,9.38.55-.06,4.77,0,9.55.26,14.32.15,3.73.5,7.45.82,11.17.16,1.53.35,3.05.54,4.58-2.44-.12-4.88-.25-7.32-.42,2.47.53,4.95,1,7.43,1.4l.34,2.78L90.1,150c1.05,7.4,2.66,14.7,4.42,22,0,.19.11.37.15.55-1.39-.16-2.79-.31-4.19-.49,1.46.45,2.92.85,4.39,1.23a241.43,241.43,0,0,0,14.86,40.89l3.24-1.58a237.92,237.92,0,0,1-15-38.56A168.47,168.47,0,0,0,117,177.12l.46,0c.62,4.05,1.3,8.08,1.92,12.13s1.56,8.22,2.37,12.33L124.29,214l4.67-1.14-2.8-12.12c-.9-4.05-2-8.06-2.64-12.16-.65-3.65-1.34-7.3-2-11,3,.26,6,.45,9,.63,3.71.18,7.44.26,11.16.31L141,226h6l-.65-47.49c3.72,0,7.45-.13,11.16-.32,3-.18,6-.37,9-.62-.67,3.65-1.36,7.3-2,11-.66,4.1-1.74,8.11-2.64,12.16L159,212.81l4.67,1.14,2.53-12.32c.81-4.11,1.8-8.18,2.37-12.33s1.3-8.09,1.92-12.13l.46,0A170.75,170.75,0,0,0,190.07,174a237.92,237.92,0,0,1-15,38.56l3.24,1.58a241.43,241.43,0,0,0,14.86-40.89c1.47-.38,2.93-.79,4.39-1.23-1.4.18-2.8.33-4.19.5,0-.19.1-.37.15-.56,1.76-7.26,3.37-14.56,4.42-22l.43-2.77.34-2.78h0c2.48-.41,5-.87,7.43-1.4C203.66,143.25,201.22,143.38,198.78,143.5Zm-.44-15.86c-.22,3.7-.64,7.38-1,11-.19,1.64-.44,3.28-.67,4.91-7.2.33-14.39.52-21.59.68h-1l.35-4.85c.37-4.16.44-8.35.58-12.53l.2-6.27.1-3.13,0-3.13v-.06l1.6,0c7.33-.18,14.67-.42,22-.78C198.85,118.22,198.68,122.94,198.34,127.64Zm-81.78,11.58c-.46-4.13-.63-8.28-.87-12.43l-.35-6.23-.17-3.11-.06-3.08c4.15.08,8.3.14,12.45.21l15,.09-.41,29.88h-5.87l-7.76-.07c-3.81,0-7.62-.08-11.43-.14Zm-1.68-37.36c0-4.16.13-8.31.19-12.47l.06-3.12.15-3.12.08-1.7c4.38-.07,8.75-.15,13.12-.17l7.76-.06H143l-.41,29.87-15,.09c-4.17.08-8.34.13-12.5.22Zm2.93-50.45c4.27-.18,8.53-.37,12.8-.44l6.69-.13,6.1,0L143,77.63c-4.87,0-9.75.09-14.62.25-4.3.18-8.6.34-12.9.62l.09-1.58c.15-4.16.52-8.31.87-12.46Q117.06,57.94,117.81,51.41Zm53.72,13c.35,4.15.72,8.3.87,12.46l.09,1.58c-4.3-.28-8.6-.44-12.9-.63-4.87-.14-9.75-.2-14.62-.24l-.37-26.81,6.1,0,6.69.13c4.27.07,8.53.27,12.8.45Q171,57.93,171.53,64.46Zm1.19,18.69.15,3.12.06,3.12c.06,4.16.17,8.31.19,12.47l-.18,9.53c-4.16-.08-8.33-.14-12.49-.21l-15-.09L145,81.22h6.74l7.76.06c4.37,0,8.74.1,13.12.17Zm-27.24,31.52,15-.08c4.14-.08,8.29-.13,12.44-.22l-.06,3.08-.17,3.11-.35,6.23c-.24,4.15-.41,8.3-.87,12.43l-.49,5.12c-3.81.07-7.62.13-11.43.14l-7.76.07h-5.87Zm51.6-31.4a225,225,0,0,1,1.82,29q-11-.54-22-.78l-1.62,0-.05-9.6c-.12-4.18-.33-8.35-.49-12.52l-.13-3.13-.23-3.13-.12-1.58H175c7.3.17,14.59.35,21.89.69C197,82.54,197,82.91,197.08,83.27Zm-6.14-30.33c.79,2.79,1.51,5.61,2.2,8.44,1.52,6.47,2.71,13,3.62,19.61-7.16-1.09-14.38-1.78-21.59-2.3L174,78.61l-.14-1.8c-.26-4.16-.73-8.31-1.18-12.46s-1-8.6-1.63-12.89C177.71,51.82,184.32,52.24,190.94,52.94ZM162.51,27.07c1.35.18,2.69.37,4,.58,1.35,6.91,2.41,13.88,3.29,20.87-4.09-.44-8.21-.71-12.32-1-4.31-.22-8.63-.29-13-.34l-.29-21.3A152.59,152.59,0,0,1,162.51,27.07Zm-41,.57c1.34-.2,2.68-.4,4-.57a152.59,152.59,0,0,1,18.25-1.14l-.29,21.3c-4.32.05-8.65.12-13,.34-4.12.25-8.23.51-12.32,1C119,41.53,120.11,34.56,121.46,27.64ZM94.86,61.38c.69-2.83,1.41-5.65,2.21-8.45,6.61-.69,13.22-1.12,19.84-1.48q-.91,6.44-1.63,12.9c-.45,4.15-.92,8.3-1.18,12.46l-.14,1.8-1.13.08c-7.21.53-14.43,1.21-21.59,2.3C92.15,74.41,93.34,67.86,94.86,61.38ZM90.92,83.27c0-.36.1-.73.15-1.1,7.3-.33,14.59-.52,21.89-.68h.79l-.12,1.58-.23,3.13-.13,3.13c-.16,4.17-.37,8.34-.49,12.52l0,9.61-1.62,0c-7.34.18-14.67.42-22,.78A225,225,0,0,1,90.92,83.27Zm-.22,55.42c-.4-3.67-.82-7.35-1-11-.34-4.7-.51-9.42-.55-14.14,7.33.36,14.67.6,22,.78l1.6,0v.06l0,3.13.1,3.13.2,6.27c.14,4.18.21,8.37.58,12.53l.35,4.85-1,0c-7.2-.16-14.39-.35-21.59-.67C91.14,142,90.89,140.33,90.7,138.69Zm6.9,34.19c-.15-.53-.32-1-.46-1.58-1.89-7.14-3.63-14.33-4.82-21.63l-.48-2.73-.3-2.12c7.06,1.07,14.18,1.74,21.29,2.26l1.29.09.35,4.79c.35,4.17.91,8.32,1.35,12.48.32,3.3.76,6.59,1.24,9.87C110.57,174,104.08,173.54,97.6,172.88Zm39.7,2-6.69-.13c-3.21,0-6.42-.18-9.63-.31-.61-3.49-1.17-7-1.58-10.5-.54-4.12-1.2-8.22-1.65-12.35l-.41-4.25c3.69.22,7.38.35,11.07.51,4.55.14,9.1.19,13.65.23l-.36,26.82Zm20.09-.12-6.69.13h-4.4l-.36-26.82c4.55,0,9.1-.09,13.65-.24,3.69-.15,7.38-.29,11.07-.5l-.41,4.25c-.45,4.13-1.11,8.23-1.65,12.35-.41,3.52-1,7-1.58,10.5C163.81,174.62,160.6,174.74,157.39,174.8Zm38.77-27.86-.48,2.73c-1.19,7.3-2.93,14.49-4.82,21.63-.14.53-.31,1.06-.46,1.58-6.48.67-13,1.09-19.46,1.44.48-3.29.92-6.58,1.24-9.88.44-4.16,1-8.31,1.35-12.48l.35-4.8c.43,0,.86,0,1.29-.09,7.11-.52,14.23-1.19,21.29-2.25Z" transform="translate(0 0.23)"/><polygon class="cls-4" points="238.2 167.61 197.55 156.54 188.21 180.28 184.74 165.97 144 156.54 103.26 165.97 99.79 180.28 90.45 156.54 49.8 167.61 49.8 258.16 87.59 163.71 78.26 197.55 90.03 222.01 121.12 234.16 105.87 173.78 144 288 182.13 173.78 166.88 234.16 197.97 222.01 209.74 197.55 200.41 163.71 238.2 258.16 238.2 167.61"/><polygon class="cls-5" points="87.59 163.71 75.96 192.76 78.26 197.55 87.59 163.71"/><polygon class="cls-5" points="200.41 163.71 209.74 197.55 212.04 192.76 200.41 163.71"/><polygon class="cls-5" points="182.13 173.78 166.88 234.16 161.23 236.37 182.13 173.78"/><polygon class="cls-5" points="105.87 173.78 121.12 234.16 126.77 236.37 105.87 173.78"/></g></svg>