<svg xmlns="http://www.w3.org/2000/svg" viewBox="0 0 288 288"><defs><style>.cls-1{fill:none;}.cls-2{fill:#000;}</style></defs><g id="Border"><rect class="cls-1" width="288" height="288"/></g><g id="Main"><path class="cls-2" d="M172.85,54.55a28.85,28.85,0,0,1-57.7,0C115.16,32.92,144,0,144,0S172.84,32.92,172.85,54.55Z" transform="translate(0)"/><path class="cls-2" d="M207,213.71a28.85,28.85,0,1,1,28.85-50C254.62,174.56,268.71,216,268.71,216S225.78,224.52,207,213.71Z" transform="translate(0)"/><path class="cls-2" d="M52.11,163.74a28.85,28.85,0,1,1,28.85,50C62.22,224.52,19.29,216,19.29,216S33.38,174.56,52.11,163.74Z" transform="translate(0)"/><path class="cls-2" d="M98.41,127.11a48.72,48.72,0,0,1,8.53-14.55A68.8,68.8,0,0,1,91.65,9.86,144,144,0,0,0,0,144a145.65,145.65,0,0,0,2,24,68.86,68.86,0,0,1,96.39-40.86Z" transform="translate(0)"/><path class="cls-2" d="M196.35,9.86a68.8,68.8,0,0,1-15.29,102.7,48.72,48.72,0,0,1,8.53,14.55A68.86,68.86,0,0,1,286,168a145.65,145.65,0,0,0,2-24A144,144,0,0,0,196.35,9.86Z" transform="translate(0)"/><path class="cls-2" d="M151.55,192a48.6,48.6,0,0,1-15.1,0,68.9,68.9,0,0,1-82.73,64.14,143.91,143.91,0,0,0,180.56,0A68.9,68.9,0,0,1,151.55,192Z" transform="translate(0)"/><circle class="cls-2" cx="144" cy="144" r="28.85"/></g></svg>