<svg xmlns="http://www.w3.org/2000/svg" viewBox="0 0 288 288"><defs><style>.cls-1{fill:none;}.cls-2{fill:#c4c4c4;}.cls-3{opacity:0.15;}</style></defs><g id="Border"><rect class="cls-1" width="288" height="288"/></g><g id="Main"><path class="cls-2" d="M167.64,2.81a2.92,2.92,0,0,0-3-2.81H123.47a2.93,2.93,0,0,0-3,2.81L122,14.67c0,1.56,1.72,2.82,3.85,2.82h3V40.92a2.92,2.92,0,0,0,3,2.82h24.24a2.92,2.92,0,0,0,3-2.82V17.49h3c2.13,0,3.85-1.26,3.85-2.82Z"/><path d="M223.92,201.74l0-.51v-.15c0-.59-.06-1.18-.11-1.77,0-.21,0-.42-.06-.63l-.05-.5,0-.24c0-.49-.09-1-.15-1.47,0-.25-.07-.5-.11-.75l-.06-.44,0-.2c-.06-.47-.13-1-.2-1.42l-.15-.85-.07-.37v-.08c-.09-.49-.18-1-.28-1.47-.06-.33-.14-.65-.21-1l-.06-.26c-.11-.51-.22-1-.34-1.51s-.19-.76-.29-1.14l0-.09c-.13-.49-.26-1-.4-1.48l-.36-1.22c-.15-.48-.3-1-.46-1.44s-.27-.81-.41-1.21l-.51-1.42c-.15-.4-.3-.79-.46-1.18s-.37-.94-.56-1.41-.33-.77-.5-1.16-.41-.92-.63-1.38-.35-.76-.53-1.13-.45-.92-.68-1.37l-.07-.13-.5-1c-.24-.46-.5-.91-.75-1.36l-.14-.25-.45-.81-.8-1.33-.22-.35-.42-.68c-.26-.42-.54-.83-.81-1.25l-.09-.13-.24-.37-.38-.57c-.3-.44-.62-.87-.93-1.31l-.08-.11-.3-.43-.22-.3-.22-.32c-18.29-3.08-24.15-15.09-44-21.4-16.61-5.28-38.64-.26-45.55,15.86,24-17.09,46.7,29.14,2.56,30.84-26.11,1-37.68-15.27-42.65-27.28-.54.77-1.07,1.55-1.62,2.3l-.22.3-.3.43-.08.12c-.32.43-.63.86-.93,1.3l-.38.57-.24.38-.09.12c-.27.41-.55.83-.81,1.25-.15.22-.28.45-.42.68l-.2.32c-.29.47-.56.92-.82,1.36l-.45.8-.14.26c-.25.45-.51.9-.75,1.36l-.51,1-.06.12c-.23.45-.46.91-.68,1.37L70.63,175c-.21.46-.42.92-.62,1.39s-.33.77-.5,1.15-.38.94-.56,1.41-.31.78-.46,1.18L68,181.57c-.14.4-.28.8-.41,1.21s-.31,1-.46,1.44l-.36,1.22c-.14.49-.27,1-.4,1.48l0,.09c-.1.38-.2.76-.29,1.14s-.23,1-.34,1.51l-.06.26c-.07.32-.15.64-.21,1-.1.48-.19,1-.27,1.46l0,.09-.07.37-.15.85c-.07.47-.14,1-.2,1.42l0,.2-.06.44c0,.25-.08.5-.11.75-.06.49-.1,1-.15,1.47l0,.24,0,.5c0,.21-.05.42-.06.63,0,.59-.08,1.18-.11,1.78v.14l0,.51,0,.45c0,1-.06,2-.06,2.9,0,41.54,35.89,75.33,80,75.33s80-33.79,80-75.33c0-.94,0-1.91-.06-2.9Z"/><circle cx="167.74" cy="117.92" r="7.69"/><circle cx="127.42" cy="97.68" r="12.19"/><circle cx="107.54" cy="140.82" r="4.17"/><path class="cls-3" d="M165.35,19c4.24,0,7.67,4.31,7.67,9.62a10.16,10.16,0,0,1-4.11,8.53A10.15,10.15,0,0,1,173,45.66c0,4.13-2.07,7.65-5,9,16.56,8,29.47,23.4,29.47,41.15,0,.47,0,1,0,1.43a95.79,95.79,0,0,0,18.36,60.42l.57.8c.37.52.75,1,1.11,1.57.24.34.46.69.69,1s.67,1,1,1.51c.23.36.45.74.68,1.11s.6,1,.9,1.5.44.77.65,1.16.56,1,.83,1.5l.63,1.22c.25.5.51,1,.75,1.51s.4.83.59,1.25.47,1,.69,1.52.37.86.55,1.29l.63,1.55c.17.43.33.87.5,1.3s.38,1.05.56,1.58.31.88.46,1.33.34,1.06.5,1.6.28.9.4,1.35.31,1.09.45,1.63.24.9.35,1.36.26,1.11.38,1.67.21.91.3,1.36.22,1.15.32,1.72l.24,1.35c.09.6.17,1.19.26,1.79l.18,1.32c.07.63.13,1.26.19,1.89,0,.42.09.84.13,1.26,0,.7.09,1.41.13,2.11,0,.36,0,.71.06,1.06,0,1.07.07,2.14.07,3.21,0,45.79-39.22,82.91-87.59,82.91s-87.59-37.12-87.59-82.91c0-1.07,0-2.14.07-3.21,0-.35,0-.7.06-1.06,0-.7.08-1.41.13-2.11,0-.42.09-.84.13-1.26.06-.63.12-1.26.19-1.89l.18-1.32c.09-.6.17-1.19.26-1.79l.24-1.35c.1-.57.21-1.15.32-1.72s.2-.91.3-1.36.25-1.12.38-1.67.23-.91.35-1.36.29-1.09.45-1.63.26-.9.4-1.35.33-1.07.5-1.6.3-.89.46-1.33.37-1.06.56-1.58.33-.87.5-1.3l.63-1.55c.18-.43.36-.86.55-1.29s.45-1,.69-1.52.39-.84.59-1.25.5-1,.75-1.51l.63-1.22c.27-.5.55-1,.83-1.5s.43-.78.65-1.16l.9-1.5c.23-.37.45-.75.68-1.11.32-.51.66-1,1-1.51s.45-.7.69-1c.36-.53.74-1,1.11-1.57l.57-.8A95.79,95.79,0,0,0,90.51,97.25c0-.48,0-1,0-1.43,0-17.75,12.91-33.19,29.47-41.15-2.91-1.36-5-4.88-5-9a10.15,10.15,0,0,1,4.11-8.52A10.16,10.16,0,0,1,115,28.61c0-5.31,3.43-9.62,7.67-9.62Z"/></g></svg>