<svg xmlns="http://www.w3.org/2000/svg" viewBox="0 0 288 288"><defs><style>.cls-1{fill:none;}.cls-2{fill:#5b3922;}.cls-3{fill:#f9e5a7;}.cls-4{fill:#d3ccc9;}.cls-5{fill:#e5e1df;}.cls-6{fill:#3a2516;}.cls-7{fill:#232323;}.cls-8{fill:#76ecff;}</style></defs><g id="Border"><rect class="cls-1" width="288" height="288"/></g><g id="Standard"><path class="cls-2" d="M78.48,85.53l0-3.46c-.81-2.53,1.93-8,1.24-12.6-.51-3.42-2.27-7.4-4.68-15.42-1.7-5.64-10-7.37-15.15-10.91-3.44-2.37-7.24-6.9-8.77-8.47C49,32.45,45,39.22,45,42.73c0,1.24,1.13,3.15,3.61,5.72-3.48-2.76-6.65-5.59-10.19-8.33-4.81-3.73-10.73-10.2-13.52-10.61-3.37-.5-6.71,7.13-6.35,9.55-2.55-2.32-4.45-4-6.33-4-2.64,0-6.05,7.26-5.6,9.94.35,2,6.17,4.52,11.05,8.57,5.73,4.75,7.73,5.9,9.32,7.49a5.79,5.79,0,0,1,1.33,2.16h0a4.6,4.6,0,0,0-.91-.08c-2.5,0-4.75,6.06-3.78,9.43.19.7,1.5,1.51,3.26,2.52h0s-3.47.35-4.06,6.84c-.22,2.47,3.69,3.65,6.34,5.23,3.49,2.09,4.85,4,6.5,4A5,5,0,0,0,38,90.55a24.16,24.16,0,0,0,7.46,7.22c1.78,1,4,.47,5.65,2.12L66.53,111,84.29,96.78Z" transform="translate(0 0)"/><path class="cls-2" d="M278.1,210c-.62-2.17-3.71-9.14-3.71-9.14L269.33,188l-25.61-.62-9.95,15.25c-1.54,3.86-6.22,5.48-7.33,7.45-1.24,2.21-2.89,10.19-1.52,13.5a7.79,7.79,0,0,0,4.51,4.25c-1.05,2.78-1.91,5.72-1.61,7.11.62,2.89,12.7,9.5,14.66,10.73,1.41.9,4.22,1.14,6.49.75,0,0,.32,1.63,6.93,1.94,4.69.22,6.79.3,8-3h0s6.14,1.37,7.9-1.21c.91-1.35,1.11-3.88,1.09-6a4.49,4.49,0,0,0,4.33-2.17C279.08,232.81,278.72,212.18,278.1,210Z" transform="translate(0 0)"/><path class="cls-2" d="M171.5,240.75A48.75,48.75,0,0,0,169,232l-12.28-12-26.95,6.13c-3.45,2.7-7.24-.17-9,.17-1.54.31-3,5.06-2.38,6.12a11.19,11.19,0,0,0-3.91-1.06c-.92,0-3.19,2.15-3.45,3.4a9.56,9.56,0,0,0,.69,4.93l0,0a3.71,3.71,0,0,0-2.64.39c-2.5,1.92-2.95,11.37-.76,12.6,1.69.94,5.66.41,5.66.41h0a12.35,12.35,0,0,0,.09,2.24c.38,1.66,4,4.67,7.08,4.31,4.16-.5,12.91-5,19.52-5.48h0a9.22,9.22,0,0,0,1.1,4.45c1.41,2,12.23,1.91,14.18,1.1,2.23-.93,4-4.27,5.81-5.72,1.7-1.32,5-3.05,6.78-4.33C169.89,248.73,172.18,244.94,171.5,240.75Z" transform="translate(0 0)"/><path class="cls-2" d="M238.14,262.64c-1.79-2.34-8.26-.69-12.8-7.61a76.26,76.26,0,0,1-6.34-12.3l-12.95-10.86-22.32.8-5.32,14.41c-.06.86-.13,1.72-.23,2.55-1.44,12.94-12.87,9.29-14.66,12.32-2,3.44.48,10.33,3.34,11.78,2.14,1.1,7.23-.9,9.69-1.09,2.68-.21,6,.72,8.79,0,.79,4.48-1.46,11.75.29,13.51,2.88,2.88,14.55,2.38,16.72-1a5.63,5.63,0,0,0,.58-2h0a7.47,7.47,0,0,0,1.81,3.79c1.61,1.43,12.54,1.39,16.19-1.19.76-.54,1.19-1.82,1.4-3.33h0s.4.84.91.94c2.84.55,8.76-1.25,10.84-3.94.74-1,1.18-3.61,1.09-5.81h0a3.21,3.21,0,0,0,2.28-.37C239.21,272,239.77,264.77,238.14,262.64Z" transform="translate(0 0)"/><path class="cls-3" d="M233.77,202.59a14.11,14.11,0,0,0,6.13-6.73c2.68,3.31.82,9.19.82,9.19a17.71,17.71,0,0,0,10.09-9.88c2.79,11.76,14.4,13.91,14.4,13.91a17.25,17.25,0,0,1,2.67-16.42c1.81,6.56,6.51,8.21,6.51,8.21-1.95-22.3,14.28-40.84,3-58.5,0,0,.35,8.13-4.34,9.71,1.73-24.94-6.67-39.64-10.81-45.26a33.77,33.77,0,0,0-1-17.8,15.15,15.15,0,0,1,5.32,4.82c-.88-23.54-22.53-28.43-22.53-28.43A13.28,13.28,0,0,1,249.24,63c-10.33-6.47-21.11-4.94-29.66-1.47-10.42-4.73-13.35-13-13.35-13s12.09-3.54,14.7-16.35c-16.8,2.2-28.77-9.43-28.77-9.43s10.87-5.3,9.5-20.17c-20.1,9.91-28.87-7.28-51-1.24-14.12,3.86-16.9,15.9-16.9,15.9a7.32,7.32,0,0,1-2.34-4.68c-5.34,10.19-.32,28.21-.32,28.21L135,44.12l2.37,17.45-4.24.83c-18.37-1.14-25.22,12.1-25.22,12.1a14.89,14.89,0,0,1,6.83-.26c-9.52,7-9.52,16-9.52,16a34.84,34.84,0,0,0-9.15,9.21h0C88.55,90.6,81.42,91.22,78.5,82.07c0,0-1.55,5.58.41,9.91-7.48-.86-10.18-8.33-10.18-8.33a37,37,0,0,0,2.44,17.83c-5.37-4.13-13.53-5.57-13.53-5.57s2.34,3.53,2.07,7a16.72,16.72,0,0,0-8.63-3l.3.35c5.71,7.37,7.36,56.8,44.68,54-3.77-3.08-4.13-5.64-4.13-5.64s25.16,4.75,35.57-15.08c0,0,7.59,22.72,4.7,34.7s-1.59,14.8-1.59,14.8a10,10,0,0,1,1.93-2.69c-1.38,8.26.41,12.53.28,17.61A42.27,42.27,0,0,1,129,214.86a6.88,6.88,0,0,0,3.2-2.27c-.07,11.77-4.48,17.25-4.48,17.25s4.82,1.09,9.64-3.92a12.41,12.41,0,0,1-2.89,11.66s10.26-.62,15.28-7.92c4.34,6.82,10.33,7.2,10.33,7.2s-2.62-7.47-.38-11.88c3.54,6.4,9.25,7,9.25,7a57.56,57.56,0,0,1-3.61-15.32,4.23,4.23,0,0,0,2.52.65c-4.58-9.5-.38-15.76-.38-15.76a20.77,20.77,0,0,1,3.06,3.51c3.44,5.09,6.13,19.69,3.92,25.12,2.21-.55,3.25-3.76,3.25-3.76a129.75,129.75,0,0,1,.7,20.63s4.69-2.07,5-9c5.92,5.23,4.34,15.17,4.34,15.17s6.2,0,9.91-10.74c6.82,10.74,17.63,9.9,17.63,9.9s-6.51-8.2-4.62-14.33c3.93,4.43,8.33,4.61,8.33,4.61a144,144,0,0,1-6.67-20.5,5.4,5.4,0,0,0,3.51,1.28c-5.37-7.51-6.51-18.68-7.44-24.24a60.3,60.3,0,0,0-2.61-9.33,8.17,8.17,0,0,1,3.34,1.95s-.07-10.3-9-22c-7.58-9.87,10.21-14.35,17.31-31.82a44.28,44.28,0,0,0,1.82,4.43c4.13,8.69,7,9.79,9.62,12.65,1.2,8.51-1.84,11.58-1.07,22.32s7.85,14.55,6.41,23.65a7.46,7.46,0,0,1-.4,1.46" transform="translate(0 0)"/><path class="cls-4" d="M132.72,70.53,143.56,65l19.2-2.07-1.27,10.64-13.9,2.61s-12.67-.62-12.81-.68a9.35,9.35,0,0,1-.85-.94l-1.1-2.23-.11-1.78" transform="translate(0 0)"/><path class="cls-2" d="M180.11,39.11a6.53,6.53,0,0,0-3.92-1.24,33.13,33.13,0,0,1,4.25,4.94h0a3,3,0,0,0,3.18-.81c2.86-2.57,1.58-12.8-3.65-13.63a5.33,5.33,0,0,0-6.37,3.93A11.67,11.67,0,0,1,180.11,39.11Z" transform="translate(0 0)"/><path class="cls-5" d="M161.07,65.85a39.52,39.52,0,0,1-3.64,1.79s-.41,2.92-1.69,2.89S154,69,154,69a62.83,62.83,0,0,1-21.17,3.32l-.11-1.78,1.85-4.68,28.13-9.51,1.54,7.29Z" transform="translate(0 0)"/><path class="cls-6" d="M180.11,39.11a6.53,6.53,0,0,0-3.92-1.24,27.39,27.39,0,0,1,2,2.14,2.7,2.7,0,0,0,3.19,0c1.84-1.23,1.44-7.74-1.37-8.47a3,3,0,0,0-3.84,2.26h0A11.24,11.24,0,0,1,180.11,39.11Z" transform="translate(0 0)"/><path class="cls-7" d="M154.23,55.11l2.69-3.33,4.15-33L140.63,42.86,127.5,39.94l10,20.5S152.1,55.38,154.23,55.11Z" transform="translate(0 0)"/><path class="cls-2" d="M152.57,54.4a12.5,12.5,0,0,0,1.1-5c-6.74,1-11.77,6.06-11.77,6.06s-5.41-1.13-8,.1a11.57,11.57,0,0,0,1.62,4c-3.68,2.53-5.74,10.68-3.68,10.89,17.57,1.84,20.25-8.84,27.88-10,2.4-.36,2,8.16-1.35,10-5.51,3.14-20.91,2.87-25.29,4.22-2.45.75,3.68,7.81,8.43,9.27,5.51,1.7,13.66.14,16.87-1.42,5.78-2.8,11.77-15.54,8.39-24.83-3.47-9.57-13.65-5-13.65-5" transform="translate(0 0)"/><path class="cls-2" d="M193.22,94.36c-4.75-2.27-16.83,3.51-16.83,3.51a11.73,11.73,0,0,1,3.38-5.37c-8.47,2.1-18.45,10.43-18.45,10.43a12,12,0,0,1,1.13-4.49c-5.68,1.32-13.53,9.1-13.53,9.1-3.23-5.71-10.26-8.38-10.26-8.38,1.14,2,1.18,5.7,1.18,5.7s-8.57-9.47-13.22-5.42-5.68,25.79-1.34,31.89a12.25,12.25,0,0,0,6.28,4.28h0s1.88,6.73,5.08,9.83a4.34,4.34,0,0,1-2.46-.54s.84,9.49,4.56,14.26a4.09,4.09,0,0,1-3.06-.94c1.73,8.21,9.94,12.24,13.52,13.17,2.78.72,19.34-5,23.06-11.36a8.27,8.27,0,0,1-5.4-.07c7.74-3.71,12.79-12.17,12.79-12.17a7.42,7.42,0,0,1-4.6.37,37.67,37.67,0,0,0,11.53-12.72h0a13.54,13.54,0,0,0,4.69-2.54C205.7,120.07,202,98.56,193.22,94.36Z" transform="translate(0 0)"/><path class="cls-4" d="M38.64,79l2.56-5.41A4.25,4.25,0,0,1,43,75.47c.41,1.17-.93,3.93-1.77,4.28S38.64,79,38.64,79Z" transform="translate(0 0)"/><path class="cls-4" d="M34.65,87.21l2.4-4.06a3.28,3.28,0,0,1,1.25,1.62A4,4,0,0,1,36.6,88C35.92,88.21,34.65,87.21,34.65,87.21Z" transform="translate(0 0)"/><path class="cls-4" d="M144.11,249.83s2.28,3.16,7.89,1l.37-1.61-6.12-.64Z" transform="translate(0 0)"/><path class="cls-4" d="M124.36,227.07h0c-.7-.16-1.34-.37-1.92-.53,0,0-1.26.7-1.35,1.75l2.14.32Z" transform="translate(0 0)"/><path class="cls-4" d="M169.39,260h0c-1.44.34-2.81.53-3.88.82a3.15,3.15,0,0,0,1,2.69l4.13-1.54Z" transform="translate(0 0)"/><path class="cls-4" d="M188.83,276.39a18.73,18.73,0,0,0,10.17,0L196.47,274l-5.48.29Z" transform="translate(0 0)"/><path class="cls-4" d="M208.39,275.88s5.8.11,8.69-1.4l-3.46-2.1-6.32.86Z" transform="translate(0 0)"/><path class="cls-4" d="M221.59,270.49l2.12,1.89s5.76,0,6.89-2l-4.27-1.48Z" transform="translate(0 0)"/><path class="cls-4" d="M230.53,263.74l3.34,1.09s1.83-.68,2-2.29l-3-.67Z" transform="translate(0 0)"/><path class="cls-4" d="M118,246.15c1.23-.09,2.68,0,4-.15l2.14,1.67-2.52,1.23a5,5,0,0,1-3.65-2.75" transform="translate(0 0)"/><path class="cls-4" d="M115.2,240.31c-1.42-.24-2.74-.52-3.84-.6a2.79,2.79,0,0,0,.91,2.84l3.75-.39Z" transform="translate(0 0)"/><path class="cls-4" d="M115.88,231.58a21.74,21.74,0,0,1,2.37.82l-1.37,2.19-2.91-.44a3.85,3.85,0,0,1,1.91-2.57" transform="translate(0 0)"/><path class="cls-6" d="M146.29,55.19s1.43-2.14,3.14-2.19a2.71,2.71,0,0,1-.61,2.19C148,55.89,146.29,55.19,146.29,55.19Z" transform="translate(0 0)"/><path class="cls-6" d="M136.56,56.56a3.34,3.34,0,0,1,2.78.68s-.87,1-1.75.77S136.56,56.56,136.56,56.56Z" transform="translate(0 0)"/><path class="cls-6" d="M182.66,123.22c-.22,2.72,9,2.14,8.51-1.13S182.87,120.49,182.66,123.22Z" transform="translate(0 0)"/><path class="cls-6" d="M123.39,126.46c1.52-.16,2.77-.8,2.9-2.1.16-1.75-1.61-2.65-3.6-2.79A37.57,37.57,0,0,0,123.39,126.46Z" transform="translate(0 0)"/><polygon class="cls-8" points="135.49 47.6 136.66 51.41 141.31 49.75 135.49 47.6"/><polygon class="cls-8" points="145.84 48.26 151.3 46.45 154 35.22 145.84 48.26"/><path class="cls-6" d="M147.51,151.43a2.91,2.91,0,0,1,.78,1,2.87,2.87,0,0,1,.26,1,2.93,2.93,0,0,1-.11,1,4.66,4.66,0,0,1-.55,1.1,2,2,0,0,1-1-.86,2.51,2.51,0,0,1-.33-1.06,2.42,2.42,0,0,1,1-2.1Z" transform="translate(0 0)"/></g></svg>