<svg xmlns="http://www.w3.org/2000/svg" viewBox="0 0 288.02 288"><defs><style>.cls-1{fill:none;}</style></defs><g id="Border"><rect class="cls-1" x="0.02" width="288" height="288"/></g><g id="Main"><path d="M172,50.63c1.93,12.71-9.47,11.67-16-.45a25.42,25.42,0,0,0-3.09-4.43c13.38-4.44,12.93-22.51.15-24.64,8.93,9.26-2.34,15.3-15.15,10.2-14.61-5.82-34.14.31-44.76,12.73C84,54.73,83.76,59.76,83.79,67.8s6.73,13.62,2.69,25.29c15.6,7,40.29-1.15,43.66-13.81s7-20.37,20.66-11.44C165.46,77.41,180.42,62.3,172,50.63Zm-69.28,5.92s0,6.44,5,10c-5,3.51-5,9.94-5,9.94s0-7.6-5-9.94C102.76,64.16,102.76,56.55,102.76,56.55Zm-15.92,14c3.37-1.59,3.37-6.74,3.37-6.74s0,4.36,3.36,6.74c-3.36,2.37-3.36,6.73-3.36,6.73S90.21,72.08,86.84,70.5Zm37.39,2.11c-.64,4.1-4.62,6.83-8.38,7.6-4.57,1.26-9.17,2.08-13.73,3.28a29.22,29.22,0,0,0-6.83,2.59,20.33,20.33,0,0,0-5.63-4.32,17.57,17.57,0,0,1,5.75,3.08,32.08,32.08,0,0,1,9.53-4.32c3.38-1,6.84-1.85,10.21-2.81,4.5-.91,8.13-4.42,6.36-9.22-1.48-3.88-7.82-2.62-6.28,1.71.66,1.27,3.13,1.77,3.45,0a1.38,1.38,0,0,0-.73-1.39,1.66,1.66,0,0,1,.06,3.06,3.15,3.15,0,0,1-3.72-1,4,4,0,0,1-.24-4c1.3-2.77,5.07-3.25,7.48-1.67S124.69,69.9,124.23,72.61Z" transform="translate(0.02)"/><path d="M141.58,85.84s14,11.32,37.73,3.14c0,34-37.31,34-36.26,55.54-27.45-21.17-9-31.64-16.56-41.29C134.77,102.32,142.11,95.59,141.58,85.84Z" transform="translate(0.02)"/><path d="M72.3,138.93a36.76,36.76,0,0,1,11.29-12.51,38.56,38.56,0,0,1,22.13-6.52c-12.38-5.38-27-4.33-39,2.24a53.62,53.62,0,0,0-8.07,5.29A34.07,34.07,0,0,1,54.24,99.3c16.49-1.55,25.86-23.89,9.65-35C68,74.56,56.7,83,45.15,75.62c-14.64-9.37-5.5-30.87,8.46-26.38-9.1-13.47-32.73-6-35.95,11.79-4.1-4.53-1.41-14,4.65-19.17-27.76,4.23-27.48,38.76-11,47.71-3.15,30.64,27,78.47,80.94,52.69A41.32,41.32,0,0,1,72.3,138.93Z" transform="translate(0.02)"/><path d="M288,266.89c-15.52-66-58.67-67-89.7-72.94a71.57,71.57,0,0,0-3.74-17.33c-4.31-12.73-12.2-24.76-24.15-31.36a44.85,44.85,0,0,0-9.24-3.86,43.21,43.21,0,0,1,7.37,6.28,41,41,0,0,1,8.56,14.13,54.53,54.53,0,0,1,3,17.55,68.55,68.55,0,0,1-.5,9c-7.25-3.58-12.5-9.13-14.59-18.68-9,62.76,92.79,50.29,52,97.16Z" transform="translate(0.02)"/><path d="M277.93,89.54c2.89,11-13.24,21.7-19.74,3.94C247.93,65.44,223,32,182.86,53a29.33,29.33,0,0,1,20,4.61c-.11.41-.25.82-.37,1.23a25.44,25.44,0,0,1-8.84,11.76,32.52,32.52,0,0,1-7.36,4.11,20.26,20.26,0,0,1-2.07.73l-2.15.7,2.2.55A37.07,37.07,0,0,0,211,73.26c1.09-.6,2.18-1.25,3.23-2,4.69,9.69,6.63,22.76,4.94,38.2-4.17,38.24,39,47.66,53.5,25.78-13.59,3.13-21.22-4.57-22.49-9C272,134.46,291.84,111.16,277.93,89.54Z" transform="translate(0.02)"/><path d="M111.37,186.19a47.32,47.32,0,0,0,6.86-5.82c8-8,12.86-19.46,11.76-30.75a34.76,34.76,0,0,1-5.09,8.6,30.68,30.68,0,0,1-6.92,6.21,32.68,32.68,0,0,1-9.12,4.08c.42-8.2,3.14-17.07,9.35-27.11-65.8,41.95-5.86,103.9-40.76,125.49h62.24C141.66,231.56,119.13,210.33,111.37,186.19Z" transform="translate(0.02)"/></g></svg>