<svg xmlns="http://www.w3.org/2000/svg" xmlns:xlink="http://www.w3.org/1999/xlink" viewBox="0 0 288 288"><defs><style>.cls-1{fill:none;}.cls-2{fill:#cedb21;}.cls-3{fill:#6a7a61;}.cls-4{fill:#c1c1c1;}.cls-4,.cls-7{fill-rule:evenodd;}.cls-5{fill:url(#radial-gradient);}.cls-6{fill:#0a331b;}.cls-7{fill:#e2e2e2;}.cls-8{fill:url(#radial-gradient-2);}.cls-9{fill:url(#radial-gradient-3);}.cls-10{fill:url(#radial-gradient-4);}.cls-11{fill:url(#radial-gradient-5);}.cls-12{fill:#fff;}</style><radialGradient id="radial-gradient" cx="159.04" cy="102.27" r="10.89" gradientUnits="userSpaceOnUse"><stop offset="0" stop-color="#f15a24"/><stop offset="0.15" stop-color="#eb4921"/><stop offset="0.52" stop-color="#df211c"/><stop offset="0.82" stop-color="#d70918"/><stop offset="1" stop-color="#d40017"/></radialGradient><radialGradient id="radial-gradient-2" cx="144.68" cy="177.54" r="31.93" xlink:href="#radial-gradient"/><radialGradient id="radial-gradient-3" cx="135.08" cy="57.93" r="62.38" gradientUnits="userSpaceOnUse"><stop offset="0" stop-color="#133b1b"/><stop offset="0.11" stop-color="#1c431b"/><stop offset="0.28" stop-color="#34581c"/><stop offset="0.5" stop-color="#5c7a1d"/><stop offset="0.75" stop-color="#93a81f"/><stop offset="1" stop-color="#cedb21"/></radialGradient><radialGradient id="radial-gradient-4" cx="157.09" cy="67.32" r="8.11" xlink:href="#radial-gradient"/><radialGradient id="radial-gradient-5" cx="135.39" cy="71.21" r="4.83" xlink:href="#radial-gradient"/></defs><g id="Border"><rect class="cls-1" width="288" height="288"/></g><g id="Standard"><circle class="cls-2" cx="142.32" cy="114.43" r="11.74"/><path class="cls-3" d="M142.51,115.16s-.73-1.2-4-2.13-4.54-.28-4.54-.28.12,5-3.09,16.43-5.93,15.62-5.93,15.62.73,1.2,4,2.13,4.54.28,4.54.28-.12-5,3.1-16.42S142.51,115.16,142.51,115.16Z"/><polygon class="cls-4" points="136.88 81.6 139.75 89.54 147.55 93.22 168.95 83.06 167.63 71.21 144.48 82.74 136.88 81.6"/><path class="cls-5" d="M160.18,103.54c2.13-6.13,10.61-16.67,10.61-16.67l-13.21,7.91a24,24,0,0,1-3.6,9.43C153.29,105.26,159.15,104.35,160.18,103.54Z"/><path class="cls-3" d="M142.34,139.59s6.69,3.1,6.43,15.57c-.24,11.76,11.29.5,11.29.5s3.18-11.16,12.87-17.38Z"/><path class="cls-6" d="M186.05,218.37c-10.48-9.88-19.74-16.15-18.11-30.75,0,0-12-9.9-23-12-5.51-1-11.41,7.06-14.27,5-.48,1-16.1,17.38-26.66,22.22a37.44,37.44,0,0,0,30.32,4.94c-1.11-7.45,5.46-18.53,9.09-17.37,2.85.9,12.22,13.13,11.78,17.32C161.69,219.41,175.68,221.13,186.05,218.37Z"/><circle class="cls-2" cx="127.79" cy="146.3" r="6.71"/><polyline class="cls-7" points="137.18 82.44 140.79 88.78 141.38 83.92 145.34 89.69 147.11 83.57 150.8 88.11 153.34 81 157.09 85.56 160.12 77.69 163.4 82.54 171.52 76.41 167.53 69.82 145.1 82.47 138.48 80.25 137.18 82.44"/><path class="cls-2" d="M182.4,182.12c1.88-16.88-11.91-29.11-28.9-29.11-12.18,0-21.68,5.05-27.69,17.37h0c-.14,1.07,15.58,12.59,19.21,13.74C147.87,185,180.76,196.73,182.4,182.12Z"/><path class="cls-6" d="M142.32,103.81c5.59-3.35,31.87-3.91,42.5,1.68s-5,31.87-15.66,35.22-21.81,1.68-25.72,0-15.1-11.74-15.1-17.33S136.73,107.17,142.32,103.81Z"/><path class="cls-3" d="M178.11,67.19A22.08,22.08,0,0,0,134,66.63h0v.68a54.66,54.66,0,0,0,2.16,14.1,3,3,0,0,0,1.08,1,23.1,23.1,0,0,0,7.23,2c7.42-2,20.07-9,20.07-9a21.48,21.48,0,0,1-1.08,7.17s-10.89,5.71-18.06,7.15a17.82,17.82,0,0,1-6.09-1.52h0a4.35,4.35,0,0,0-.14,1.43c.14.29.28.56.42.79,2.73,4.78,8.94,6.71,8.94,6.71a27.7,27.7,0,0,0,19-6.15c7.27-6.15,10.11-14,10.59-22.42,0,0,0,0,0,0C178.09,68.06,178.11,67.63,178.11,67.19Z"/><path class="cls-3" d="M176,108.06c.4-3.76,11.74-1,8.83-2.57-10.63-5.59-36.91-5-42.5-1.68a26.57,26.57,0,0,0-4.89,4c2.49,1.16,7.44,8.77,8.64,14.77C149.48,115.68,161.36,107.77,176,108.06Z"/><path class="cls-3" d="M173.4,177.59s-1.07-1.11-4.48-1-4.41,1.31-4.41,1.31,1.69,5.66,2.22,19.82-.73,19.92-.73,19.92,1.07,1.11,4.49,1,4.4-1.31,4.4-1.31-1.69-5.66-2.22-19.82S173.4,177.59,173.4,177.59Z"/><path class="cls-3" d="M141.51,176s-.23-1.65-3.19-3.35-4.51-1.08-4.51-1.08-2,6.42-10.12,20.52-12.66,19-12.66,19,.24,1.65,3.2,3.35,4.51,1.08,4.51,1.08,2-6.42,10.11-20.52S141.51,176,141.51,176Z"/><path class="cls-8" d="M172.52,199.22a31.32,31.32,0,0,1-52-4.2l24.4-19.38Z"/><path class="cls-3" d="M110.7,114.19s-1.38-.19-4.2,1.75-3.13,3.29-3.13,3.29,3.87,3,10.45,12.61,8,14.27,8,14.27a4.71,4.71,0,0,0,5.09-.49,4.58,4.58,0,0,0,2.24-4.55s-3.87-3-10.46-12.6S110.7,114.19,110.7,114.19Z"/><path class="cls-9" d="M196.8,44.21C167.84,33.9,172.08,0,172.08,0,137.75,24.86,134.5,51.63,134.5,51.63a.65.65,0,0,1,0,.1v.14l0,.07,0,.12v.09l0,.14,0,.12a1.24,1.24,0,0,0,0,.16.78.78,0,0,0,0,.14,1.16,1.16,0,0,1,0,.18s0,.11,0,.16,0,.13,0,.21a.85.85,0,0,1,0,.17l.06.23c0,.07,0,.13,0,.19l.06.26a1.6,1.6,0,0,1,0,.21,2,2,0,0,1,.07.26l.06.23.08.29.06.24.09.31c0,.08,0,.16.07.24s.07.23.1.35l.08.24.12.4a1.72,1.72,0,0,0,.07.21c.06.2.13.41.2.62h0a40.25,40.25,0,0,0,5.36,10.65c-1.13-10.13,2.67-21.81,13.25-23.22.44,0,.89,0,1.34,0a22.09,22.09,0,0,1,22.09,22.09c0,.44,0,.87-.05,1.31,0,0,0,0,0,0a33.71,33.71,0,0,1-3.35,13.31c5.22-.76,10.56,2.49,10.56,2.49S180.13,61,196.8,44.21Z"/><path class="cls-6" d="M185.5,154.67l-6.17-.87a29.68,29.68,0,0,0-2.76,2.15,2.74,2.74,0,0,0-.27,1.05,6,6,0,0,0-1.94.44,26.26,26.26,0,0,0-2.8,2.56,5.71,5.71,0,0,0-.42,2.58,2.72,2.72,0,0,0,1.47,1.14,5.79,5.79,0,0,0,0,2.6,5.52,5.52,0,0,0,2.24,1.37,6.59,6.59,0,0,0,.56,2.53,5.67,5.67,0,0,0,2.1,1.15,3.81,3.81,0,0,0,.16,1.94c.84.74,3.46,1.13,3.46,1.13a19.25,19.25,0,0,0,5.14-1.38c1.73-.93,5.08-6.11,5.08-6.11l-5.86-8.3Z"/><circle class="cls-2" cx="112.97" cy="216.47" r="7.55"/><circle class="cls-2" cx="171.12" cy="222.06" r="7.55"/><path class="cls-3" d="M175.77,227.4s-1.07-1.11-4.48-1-4.4,1.31-4.4,1.31,1.68,5.66,2.21,19.82-.73,19.92-.73,19.92,1.07,1.11,4.49,1,4.4-1.31,4.4-1.31-1.68-5.66-2.21-19.82S175.77,227.4,175.77,227.4Z"/><circle class="cls-2" cx="105.42" cy="113.87" r="6.71"/><path class="cls-6" d="M201.74,287s-22.18-8.39-22.05-30.66c0,0-5.27.29-9,5.9a9.28,9.28,0,0,1-5.15,3.55s.63,9.29-6.11,21.53c5.81-1.27,10.12-9.11,10.12-9.11S178,291.78,201.74,287Z"/><path class="cls-10" d="M150.71,76.41c3.35-2.23,8.39-5,12.3-5.59,1.68-3.35,2.24-14.53-5-12.3S149,70.26,150.71,76.41Z"/><path class="cls-11" d="M135.05,77a7.49,7.49,0,0,1,2.8.56c.56-5.59-.75-11.14-3.8-12.63C131.82,67.13,132.82,74.74,135.05,77Z"/><path class="cls-3" d="M114.27,223.27s-.23-1.66-3.19-3.36-4.51-1.08-4.51-1.08-2,6.42-10.12,20.52-12.66,19-12.66,19,.24,1.65,3.2,3.36,4.51,1.07,4.51,1.07,2-6.42,10.11-20.51S114.27,223.27,114.27,223.27Z"/><path class="cls-6" d="M98.73,113.4c3.5,1,9.08-1.46,10-5.36l-.11-2.86-.76-1.38a5.85,5.85,0,0,0,3.15-.6s.42-4.42-1-7.21l-1.4.59a8.89,8.89,0,0,0-1.2-4.22l-2.54.92a7.33,7.33,0,0,0-.65-3.74A30.35,30.35,0,0,0,97,93.2L97.28,90c2.36-1.72,5.16-4.22,5.16-4.22a14.88,14.88,0,0,0-1-6.57,55.11,55.11,0,0,1-8.52,8.91L90.8,97.81l1.83,3.76-2-2a5.21,5.21,0,0,0-4.52,3,40.19,40.19,0,0,1,6.1,3.8l2.06,3.19Z"/><path class="cls-2" d="M181.46,102.13a12.71,12.71,0,0,0-4.37.77c-6.66,5.53-7.43,23,5.38,24.91a12.86,12.86,0,0,0-1-25.68Z"/><path class="cls-6" d="M144.92,175.64c-2.58-7.3-10.43-14.66-18.28-6.88-.28.53-.83,1.63-.83,1.63-.49,1-11.26,27.61-21.82,32.45C104,202.84,131.29,201.49,144.92,175.64Z"/><path class="cls-6" d="M186.05,218.37c-4.33-13.17-5.29-21.64-3.65-36.25,0-.25,0-.5.07-.75-9.26-18.86-33.21-12.88-37.55-5.73C151.35,211,186.05,218.37,186.05,218.37Z"/><path class="cls-3" d="M191.36,112s-3.06-.31-4.73,3.68.73,6.34.73,6.34,6-.45,18.06,4.79,16.32,8.71,16.32,8.71,1.38-.52,2.75-3.65.8-4.5.8-4.5-5.45-.77-17.5-6S191.36,112,191.36,112Z"/><circle class="cls-2" cx="227.87" cy="133.44" r="7.83"/><path class="cls-3" d="M190.9,154.22s-.26,1.43,1.69,4.24,3.4,3,3.4,3,3.39-4.16,13.9-11.5,15.57-9.12,15.57-9.12.27-.95-1.68-3.75-3.72-3.12-3.72-3.12-3.06,3.78-13.57,11.11S190.9,154.22,190.9,154.22Z"/><path class="cls-2" d="M198.23,159.44a7.54,7.54,0,0,1-6.87,7.52c-4.38-1.52-7.69-8.08-6.45-12.37a7.54,7.54,0,0,1,13.32,4.85Z"/><path class="cls-6" d="M52.3,264.84s23.49,3.35,34.11-16.22c0,0,4.47,2.8,5,9.51a9.31,9.31,0,0,0,2.8,5.59s-5,7.83-5,21.8c-4.48-3.91-4.48-12.86-4.48-12.86S70.76,280.49,52.3,264.84Z"/><circle class="cls-12" cx="158.25" cy="63.67" r="1.84"/><circle class="cls-12" cx="134.25" cy="68.88" r="0.67"/><circle class="cls-12" cx="135.41" cy="70.3" r="0.34"/><circle class="cls-12" cx="154.86" cy="66.02" r="0.78"/></g></svg>