<svg xmlns="http://www.w3.org/2000/svg" viewBox="0 0 288 288"><defs><style>.cls-1{fill:none;}.cls-2{fill:#acbdc6;}.cls-3,.cls-8{fill:#e2e2e2;}.cls-4{fill:#576872;}.cls-5{fill:#fff;}.cls-6{fill:#3bf4c3;}.cls-7{fill:#ccc;}.cls-8{stroke:#576872;stroke-miterlimit:10;stroke-width:3px;}.cls-9{fill:#b9c0c9;}</style></defs><g id="Border"><rect class="cls-1" width="288" height="288"/></g><g id="Standard"><path class="cls-2" d="M147.55,38.74V34.27c-3.85-2.45-5.6-10-2.71-15.11A32.08,32.08,0,0,0,83.39,32.08v6.66h.8v1.6h-.8V50.59h64.16V40.34h-.8v-1.6Z"/><path class="cls-3" d="M64.07,93.13,52.93,122.26c-1.69,4.42-.16,9.1,3.4,10.46s7.82-1.11,9.51-5.52L77,98.07Z"/><polygon class="cls-4" points="63.64 111.61 78.94 210.44 48.26 184.12 51.52 122.79 63.64 111.61"/><path class="cls-5" d="M66.92,93.13,55.78,122.26c-1.69,4.42-.17,9.1,3.4,10.46s7.82-1.11,9.51-5.52L79.83,98.07Z"/><ellipse class="cls-4" cx="62.23" cy="124.73" rx="3.12" ry="2.52" transform="translate(-76.5 138.31) rotate(-69.07)"/><path class="cls-5" d="M105.46,263.55A31.25,31.25,0,0,0,113,251.83a42.72,42.72,0,0,0-9.48-12.38l-4,13.27Z"/><circle class="cls-4" cx="120.26" cy="26.78" r="7.68"/><circle class="cls-6" cx="120.26" cy="26.78" r="5.9"/><polygon class="cls-2" points="97.97 169.36 101.96 219.55 71.57 225.75 87.89 163.63 97.97 169.36"/><path class="cls-4" d="M63.21,257.61c2.26,8.06,27.16,20.11,42.25,5.95L100.64,203c-7.23,4.16-9.43,16.43-20.17,13.92-5-1.17-5.29-4.9-5.29-4.9Z"/><path class="cls-5" d="M173.68,274.75a36.78,36.78,0,0,0,5.52-15.55,50.42,50.42,0,0,0-14.27-11.68l-1,16.36Z"/><polygon class="cls-2" points="139.47 168.32 157.7 225.03 124.4 240.43 126.32 164.46 139.47 168.32"/><path class="cls-4" d="M123.41,279.39c4.81,8.67,36.75,15.78,50.28-4.63l-22-68.42c-7.2,6.75-6.4,21.48-19.44,21.5-6,0-7.43-4.21-7.43-4.21Z"/><path class="cls-3" d="M71.64,187.51s-5.24-17.87.7-34.49c6.32-17.69,22-14.89,22-14.89s2.37,22.77-1.71,33.77C85.92,190.06,71.64,187.51,71.64,187.51Z"/><path class="cls-5" d="M71.64,187.51s-2-22.4,7.16-37.52C86.12,137.82,99,140.78,99,140.78s-2.22,20.12-6.3,31.12C85.92,190.06,71.64,187.51,71.64,187.51Z"/><path class="cls-5" d="M155.34,196.9s16.77-19.26,7.06-41.52c-10-22.89-30.22-14.17-30.22-14.17s-18.14,10.24-10.43,30C130.46,193.61,155.34,196.9,155.34,196.9Z"/><path class="cls-3" d="M155.34,196.9s7.63-17.23,0-38.75c-8.3-23.55-23.21-16.94-23.21-16.94s-18.14,10.24-10.43,30C130.46,193.61,155.34,196.9,155.34,196.9Z"/><path class="cls-5" d="M106.19,205.63S135.26,201,133.72,170c-1.52-30.78-25.94-29.67-25.94-29.67s-23.85,2.95-23.85,29.77C83.93,195.81,106.19,205.63,106.19,205.63Z"/><path class="cls-3" d="M106.19,205.63a145.56,145.56,0,0,1-3.47-37.39c.75-21,5.06-27.94,5.06-27.94s-23.85,2.95-23.85,29.77C83.93,195.81,106.19,205.63,106.19,205.63Z"/><ellipse class="cls-2" cx="156.75" cy="91.87" rx="14.2" ry="18.57"/><path class="cls-4" d="M144.84,19.17a7.68,7.68,0,0,0,1,15.29,7.24,7.24,0,0,0,1.69-.2C143.7,31.81,142,24.29,144.84,19.17Z"/><path class="cls-6" d="M145.83,32.68c2-3.62,1.35-9.15-1.86-11.49a5.9,5.9,0,0,0,1.86,11.49Z"/><path class="cls-3" d="M149,105,161.25,135c1.85,4.55,6.7,6.89,10.83,5.21s6-6.74,4.13-11.29L164,98.89Z"/><polygon class="cls-4" points="156.77 137.76 239.74 77.25 231.56 124.53 169.51 144.99 156.77 137.76"/><path class="cls-5" d="M152.79,105,165,135c1.85,4.55,6.7,6.89,10.84,5.21s6-6.74,4.12-11.29L167.74,98.89Z"/><ellipse class="cls-4" cx="172.49" cy="131.99" rx="2.94" ry="3.25" transform="translate(-37.02 74.71) rotate(-22.13)"/><polygon class="cls-4" points="134.08 46.05 124.22 40.34 84.19 40.34 84.19 38.74 124.65 38.74 133.95 44.14 140.99 38.74 146.75 38.74 146.75 40.34 141.53 40.34 134.08 46.05"/><path class="cls-4" d="M107.52,158.52s33.53-10.06,45.33-28.57,17.7-49.07,7.68-78.31c-26.72,26.42-53-20.51-53-20.51S85,75.65,63.32,55.73c-8.24,26-2.28,59.1,9.69,75.63S107.52,158.52,107.52,158.52Z"/><path class="cls-3" d="M102.72,124.52l4.67,28.3c7.07-2.37,31.91-11.48,41-25.72h0L122,110.28Z"/><path class="cls-7" d="M86.12,109.94,72.51,123h0q.58,1.11,1.2,2.13c.65,1.09,1.32,2.12,2,3.07,8.81,12.17,24.9,21.13,31,24.24l.66.34-4.67-28.3Z"/><path class="cls-3" d="M72.51,123l13.61-13.1L82.22,85.3,65,64.27C60.57,85.2,64.86,108.73,72.51,123Z"/><path class="cls-5" d="M102.72,67.87,107.18,41c-.3.46-.62.93-1,1.41C104.74,44.58,103,47,101,49.37c-9.2,11.15-18.4,16.8-27.35,16.8a20.42,20.42,0,0,1-7.05-1.25c-.55-.19-1.09-.41-1.63-.65l17.25,21Z"/><path class="cls-3" d="M125.87,85.3l31.8-24.6A28.71,28.71,0,0,1,150.43,64a25.64,25.64,0,0,1-7.23,1c-15.92,0-29.24-14.76-36-24l-4.46,26.86Z"/><path class="cls-5" d="M157.67,60.7l-31.8,24.6-3.84,25,26.35,16.82c5.71-9,9.69-20.65,11.23-32.94A92.33,92.33,0,0,0,157.67,60.7Z"/><line class="cls-3" x1="82.22" y1="85.3" x2="64.97" y2="64.27"/><polygon class="cls-4" points="81.06 86.25 64.97 64.27 83.38 84.35 81.06 86.25"/><line class="cls-3" x1="102.72" y1="67.87" x2="107.18" y2="41.01"/><polygon class="cls-4" points="101.24 67.63 107.19 41.01 104.19 68.12 101.24 67.63"/><line class="cls-3" x1="125.87" y1="85.3" x2="157.67" y2="60.7"/><polygon class="cls-4" points="124.95 84.11 157.67 60.7 126.79 86.49 124.95 84.11"/><line class="cls-3" x1="122.03" y1="110.28" x2="148.37" y2="127.1"/><polygon class="cls-4" points="122.84 109.02 148.38 127.1 121.22 111.55 122.84 109.02"/><line class="cls-3" x1="102.72" y1="124.52" x2="107.39" y2="152.82"/><polygon class="cls-4" points="104.19 124.28 107.39 152.82 101.23 124.77 104.19 124.28"/><line class="cls-3" x1="86.12" y1="109.94" x2="72.51" y2="123.05"/><polygon class="cls-4" points="87.16 111.02 72.51 123.05 85.08 108.86 87.16 111.02"/><polygon class="cls-8" points="82.22 85.3 102.72 67.88 125.87 85.3 122.03 110.28 102.72 124.53 86.12 109.94 82.22 85.3"/><path class="cls-9" d="M102.72,67.87"/><path class="cls-6" d="M99.2,92.79a10.26,10.26,0,0,0-1.57,1.34,5.78,5.78,0,0,0-1.06,1.6,3.91,3.91,0,0,0-.25.85,1.52,1.52,0,0,0,0,.21,1.48,1.48,0,0,0,0,.21v.21l0,.2a3.39,3.39,0,0,0,.17.78,3.6,3.6,0,0,0,.37.7A4.41,4.41,0,0,0,98,100.06a7.4,7.4,0,0,0,1.52.82,9.74,9.74,0,0,0,3.48.62,9.5,9.5,0,0,0,3.48-.63,6.92,6.92,0,0,0,1.52-.81,4.41,4.41,0,0,0,1.15-1.17,3.13,3.13,0,0,0,.37-.7,2.94,2.94,0,0,0,.17-.78l0-.2V97a1.49,1.49,0,0,0,0-.21s0-.07,0-.1a.43.43,0,0,0,0-.11,3.55,3.55,0,0,0-.25-.85,4,4,0,0,0-.2-.42l-.12-.2-.13-.21a2.43,2.43,0,0,0-.14-.2c0-.06-.09-.13-.15-.19l-.15-.19-.08-.1-.09-.09a9.72,9.72,0,0,0-1.56-1.34,6.08,6.08,0,0,1,2,.71A5.43,5.43,0,0,1,110.51,95l.17.25a.57.57,0,0,1,.08.13l.08.14c0,.09.11.18.15.27l.13.3a5.58,5.58,0,0,1,.2.62l.07.33,0,.33A5,5,0,0,1,111,100a5.65,5.65,0,0,1-.67,1.11,6.28,6.28,0,0,1-.86.92,8.05,8.05,0,0,1-2,1.33,10.62,10.62,0,0,1-8.91,0,8.39,8.39,0,0,1-2-1.33,7.47,7.47,0,0,1-.85-.92A6.22,6.22,0,0,1,95,100a5.07,5.07,0,0,1-.46-2.64l0-.33.07-.33c0-.1.06-.21.09-.31l.05-.16.06-.15.13-.29a2.49,2.49,0,0,1,.15-.28l.07-.14.09-.13.17-.25A5.56,5.56,0,0,1,97.2,93.5,6,6,0,0,1,99.2,92.79Z"/><path class="cls-6" d="M101.78,85.92a3,3,0,0,1,.77.37,4.5,4.5,0,0,1,.68.56,4.35,4.35,0,0,1,1,1.6,5.38,5.38,0,0,1,.21,1,5.07,5.07,0,0,1,0,1,5.51,5.51,0,0,1-.67,1.86,5,5,0,0,0-.52,1.23,4.8,4.8,0,0,0-.12.64,3.75,3.75,0,0,0,0,.67,5.08,5.08,0,0,0,.35,1.42,9.73,9.73,0,0,0,.74,1.48,3.25,3.25,0,0,1-.77-.38,4.57,4.57,0,0,1-.69-.56,4.21,4.21,0,0,1-1-1.6,4.16,4.16,0,0,1-.21-1,4.42,4.42,0,0,1,0-1,5.27,5.27,0,0,1,.66-1.87,5.51,5.51,0,0,0,.53-1.23,4.52,4.52,0,0,0,.12-.64c0-.22,0-.44,0-.67a5.08,5.08,0,0,0-.35-1.42A9.2,9.2,0,0,0,101.78,85.92Z"/></g></svg>