<?xml version="1.0" encoding="UTF-8"?><svg xmlns="http://www.w3.org/2000/svg" viewBox="0 0 288 288"><defs><style>.cls-1{fill:none;}</style></defs><g id="Border"><rect class="cls-1" y="0" width="288" height="288"/></g><g id="Main"><path d="m93.29,241.46c-2.61-14.84-4.62-33.97-2.54-52.13,5.91,29.17,14.86,50.34,23.08,64.94,28.61,15.86,63.72,27.79,105.47,33.72,5.54-15.36,20.05-32.87,35.09-43.46-5.99-25.7-1.8-74.75,16.13-93.34-8.91-45.22-47.53-88.91-80.2-104.69-50.13,23.83-104.28,4.57-104.86-46.51-35.98,44.83-21.98,98.9-7.33,117.1-24.67-2.03-47.03-14.44-55.99-41.13-15.49,54.73,7.39,120.89,71.14,165.49Zm101.53-45.77c-15.99-2.8-33.23-12.57-36.17-20.51,7.16-3.18,18.08-29.96,21.95-66.9.25,43.7,4.26,71.7,14.22,87.41Zm46-4.72c-3.53,4.32-14.13,7.64-24.25,6.52,7.81-7.05,18.2-32.35,20.01-60.67-.35,29.57.95,48.94,4.24,54.15Zm-121.14-56.01c5.39-3.19,13.09-1.49,16,4.2,2.01,3.32,1.44,8.27-2.16,10.15,6.61-5.17-.87-14.64-7.67-13.26-6.61,1.12-10.71,7.9-10.55,14.39.26,13.79,9.05,25.93,18.4,35.47,19.88,19.6,48.42,31.36,75.42,37.03,9.54-2.04,25.65-6.81,35.1-15.04-4.79,12.43-23.46,33.98-44.87,39.67-29.14-11.18-56.8-27.79-75.53-53.31-6.9-9.58-12.54-20.48-14.37-32.3-1.68-9.81.42-22.11,10.23-26.99Z"/></g></svg>