<svg xmlns="http://www.w3.org/2000/svg" viewBox="0 0 288 288"><defs><style>.cls-1{fill:none;}</style></defs><g id="Border"><rect class="cls-1" width="288" height="288"/></g><g id="Main"><path d="M149.53,0S95,52.38,30.31,84.3c0,0,23,54,16.56,102.18-3.86,28.7-38.31,24.7-38.7,5.69-20,42.42,29.19,79.63,76.33,61.3L134.24,288l119.36-9.81L271,113.4c12.45-8.91,13.42-20,13.42-20C229.12,12,149.53,0,149.53,0Zm74.41,115.9,15.94,31.88-15.94,31.88L208,147.78Zm-60.63,0,15.94,31.88-15.94,31.88-15.94-31.88Zm86.78,115.39H125.48L93.75,170.52,136.1,215.9H243.6l9.49-13.46Z"/></g></svg>