<svg xmlns="http://www.w3.org/2000/svg" viewBox="0 0 288 288"><defs><style>.cls-1{fill:none;}.cls-2{fill:#515151;}.cls-3{fill:#590000;}.cls-4{fill:#bfbfbf;}.cls-5{fill:#3a3a3a;}.cls-6{fill:red;}</style></defs><g id="Border"><rect class="cls-1" width="288" height="288"/></g><g id="Main"><polygon class="cls-2" points="111.03 0 205.44 12.46 250.71 57.19 262.07 120.52 249.37 150 259.62 176.59 235.19 213.49 221.55 262.25 181.66 288 94.18 285.06 66.31 264.93 54.91 218.95 27.77 174.66 37.16 149.38 25.93 109.94 43.68 43.06 111.03 0"/><polygon class="cls-3" points="61.04 149.68 79.88 178.42 142.8 191.94 203 179.89 223.64 151.52 191.49 112.94 142.8 124.88 94.11 112.02 61.04 149.68"/><path class="cls-4" d="M144.52,251.85c-12.25-28.12-13.82-28.06-13.82-28.06l25.5-1S154.63,222.89,144.52,251.85Z"/><path class="cls-4" d="M167.46,242.73c-9-20-10.18-19.94-10.18-19.94l18.85-.71S175,222.13,167.46,242.73Z"/><path class="cls-4" d="M119.74,247.8c-10-23.22-11.34-23.17-11.34-23.17l20.9-.79S128,223.89,119.74,247.8Z"/><path class="cls-5" d="M92.27,225.24c4.14-.78,8.29-1.38,12.44-2l12.5-.45,25-.94,25-.94,12.5-.47c4.19.3,8.37.58,12.56,1-4.14.75-8.29,1.35-12.44,2l-12.5.47-25,.94-25,1-12.5.48C100.64,226,96.46,225.7,92.27,225.24Z"/><polygon class="cls-6" points="142.8 179.5 153.22 145.37 145.35 124.25 142.8 124.88 139.72 124.06 133.06 149.8 142.8 179.5"/><polygon class="cls-5" points="66.31 264.93 94.18 285.06 77.59 234.24 76.47 207.86 48.18 182.88 27.77 174.66 54.91 218.95 66.31 264.93"/><polygon class="cls-5" points="181.66 288 208.55 233.53 211.72 208.46 236.37 184.85 259.62 176.59 235.19 213.49 221.55 262.25 181.66 288"/><polygon class="cls-5" points="262.07 120.52 250.71 57.19 238.79 97.29 206.76 116.24 196.15 97.25 142.81 108.25 89.32 96.28 79.21 112.02 47.54 88.35 43.68 43.06 25.93 109.94 37.16 149.38 51.57 151.78 79.88 178.42 61.04 149.68 61.04 149.68 94.11 112.02 142.8 124.88 191.49 112.94 223.64 151.52 223.64 151.52 203 179.89 234.4 151.98 249.37 150 262.07 120.52"/></g></svg>