<svg xmlns="http://www.w3.org/2000/svg" viewBox="0 0 288 288"><defs><style>.cls-1{fill:none;}.cls-2{fill:#ca44d8;}.cls-3{fill:#8b1d9e;}.cls-4{fill:#280028;}.cls-5{fill:#ffeefa;}</style></defs><g id="Border"><rect class="cls-1" width="288" height="288"/></g><g id="Main"><path class="cls-2" d="M240.06,154.75S273.14,135.11,276.5,83c-23.37,13-46,2.87-46,2.87s11.12-29.3,8.32-74.91c-55.57,4.45-82.55,29.83-82.55,29.83s-11.4-12-5.47-40.83C108.5,6.71,76.64,55,76.64,55s-11.07-5.2-12.47-23.68C32.18,68.39,36,135.92,36,135.92c3.73,17.14,16.58,38.62,16.58,38.62L48.09,185,28.75,177.9l6.31,21.77L11.5,206.9,35.26,221l-8.33,21.86,20.26-2.66s18.1,33,48.62,47.84c69.89-10.57,94.68-26.88,94.68-26.88s4.28-5.6,9.64-14.18l18.16,4.54-5.89-23.11,25.7-11.49-16.34-7.14c10.1-3.93,35.64-16.48,47-46.09C245.41,165.35,240.06,154.75,240.06,154.75Z"/><path class="cls-3" d="M203.58,190.45,224,185.5l-8.92,21.32,6.68,2.92a85,85,0,0,0,8.84-4.07c-2.46-1-4.9-1.95-7.29-2.85,2.49-7.91,4.7-16.11,6.59-24.08C221.06,182.21,211.9,185.82,203.58,190.45Z"/><path class="cls-4" d="M88.21,170c2.15,5.31.58,12.89.58,12.89s-19.37-6.6-28.74-6.37c-5.11-6.46-1.54-17.88,3.36-18.45C66.79,161.16,83.24,167.45,88.21,170Z"/><path class="cls-4" d="M119.39,182.74s29.6-4,39.8-1.79c5-2.7,10.58-18.16,1-23.46-7.2,2.25-38.5,10.12-42.23,10.51C112.93,174.1,119.39,182.74,119.39,182.74Z"/><circle class="cls-5" cx="78.99" cy="169.11" r="5.22"/><circle class="cls-5" cx="150.46" cy="166.55" r="5.89"/><path class="cls-3" d="M109.07,162.48q.5,4.2.77,8.4l-1.2-1c5-1.92,10-3.57,15.14-5.1,15.35-4.45,30.92-8.15,46.89-9.48a204.48,204.48,0,0,1-30.29,10.16,249.78,249.78,0,0,1-31.27,6.29l-1.32.17c.34-3.17.76-6.33,1.28-9.48Z"/><path class="cls-3" d="M68.45,223.89a81.81,81.81,0,0,1,18.88-10.6,23.72,23.72,0,0,1,8.48-1.82c11.93.33,23.29,4.68,34.14,9.12a144.48,144.48,0,0,1,19.14,9.81c-13.72-3.74-27.11-8.51-40.79-12.05-5-1.19-9.85-2.53-14.89-2.28-8.58,1.25-16.75,5-25,7.82Z"/><path class="cls-3" d="M54.21,153.7c13.9,2.72,27,8.58,39,16l-1.75,1.19c.19-3,.42-6,.83-9.07.82,3.53,1.37,7.13,1.92,10.7-14.3-3.93-28.12-9.91-40-18.81Z"/></g></svg>