<svg xmlns="http://www.w3.org/2000/svg" viewBox="0 0 288 288"><defs><style>.cls-1{fill:none;}.cls-2{fill:#999;}.cls-3{fill:#4c4c4c;}.cls-4{fill:#2b2b2b;}.cls-5{fill:#af9f90;}.cls-6{fill:#89786b;}.cls-7{fill:#efe4e4;}.cls-8{fill:#ffda00;}</style></defs><g id="Border"><rect class="cls-1" width="288" height="288"/></g><g id="Main"><polygon class="cls-2" points="26.93 84.2 34.57 73.21 88.8 120.41 77.63 121.81 26.93 84.2"/><polygon class="cls-2" points="183.93 24.34 198.79 26.94 180.23 95.52 174.55 84.11 183.93 24.34"/><polygon class="cls-2" points="249.88 64.96 258.5 72.09 219.97 110.68 221.73 101.99 249.88 64.96"/><polygon class="cls-2" points="89.27 21.81 107.05 15.63 127.23 97.06 114.82 88.55 89.27 21.81"/><polygon class="cls-3" points="92.86 31.19 110.27 28.64 107.05 15.63 89.27 21.81 92.86 31.19"/><polygon class="cls-3" points="182.32 34.6 196.6 35.06 198.79 26.94 183.93 24.34 182.32 34.6"/><polygon class="cls-3" points="244.78 71.66 254.75 75.85 258.5 72.09 249.88 64.96 244.78 71.66"/><polygon class="cls-2" points="156.46 24.75 222.48 36.28 211.27 17.29 196.6 14.94 191.77 21.15 189.39 13.79 174.78 11.45 156.46 24.75"/><polygon class="cls-3" points="32.94 88.66 42.98 80.53 34.57 73.21 26.93 84.2 32.94 88.66"/><polygon class="cls-2" points="233.93 57.97 268.59 84.88 267.84 71.02 260.44 63.65 255.66 65.46 256.42 59.65 249.74 52.99 233.93 57.97"/><polygon class="cls-2" points="12.78 109.78 53.96 56.8 29.29 57.88 22.01 67.79 25.7 74.9 17.75 73.58 9.27 85.11 12.78 109.78"/><polygon class="cls-4" points="116.56 275.38 157.33 266.78 157.07 274.84 194.11 251 197.21 257.33 228.83 224.81 222.55 214.66 260.96 136.24 258.96 115.41 243.57 92.76 254 88.58 238.05 84.76 233.29 77.12 231.81 82.35 216.51 73.03 222.19 69.72 192.09 62.07 197.12 56.17 187.16 57.62 180.64 49.04 177.53 55.83 172.66 52.1 174.31 58.33 152.65 58.7 154.81 52.4 124.36 62.55 126.43 52.64 117.25 61.37 106.5 52.8 106.85 63.84 91.03 62.2 102.11 69.3 84.94 78.7 83.49 73.81 67.08 93.37 64.12 86.71 60.55 94.38 53.17 87 54.85 102.11 44.27 110.17 54.5 111.22 47.77 132.08 53.95 145.17 106.27 257.21 119.12 270.18 116.56 275.38"/><polygon class="cls-2" points="57.83 39.14 142.47 9.74 115.12 0 100.75 3.28 97.64 12.98 91.37 5.42 75.4 9.07 57.83 39.14"/><polygon class="cls-5" points="111.87 120.81 53.95 145.17 51.59 151.76 55.98 166.14 43.71 172.73 39.77 185.33 21.14 198.13 15.4 255.63 57.5 282.79 116.56 275.38 138.27 231.27 126.36 203.23 118.17 195.41 131.35 194.69 112.68 184.64 137.01 179.49 149.71 137.08 111.87 120.81"/><polygon class="cls-5" points="196.28 143.78 236.65 112.79 278.73 135.48 265.22 208.96 230.26 230.61 197.92 205.29 206.44 197.73 200.63 194.65 212.04 180.46 204.8 175.26 215.45 170.62 201.43 155.53 208.87 155.43 196.28 143.78"/><polygon class="cls-6" points="241.38 129.58 265.86 145.29 249.89 163.78 262.8 161.82 256.15 197.72 228.14 211.07 212 205.38 218.45 193.54 204.82 189.44 212.04 180.46 204.8 175.26 215.45 170.62 201.43 155.53 208.87 155.43 202.34 149.39 241.38 129.58"/><polygon class="cls-7" points="67.58 162.75 94.16 150.36 108.81 157.07 67.58 162.75"/><polygon class="cls-4" points="46.03 175.59 48.66 182.36 44.08 184.58 46.03 175.59"/><path class="cls-8" d="M245.29,228.48l-16.08,5.25-7.66,15.07L234.33,288l38.82-12.65-12.78-39.2Zm-1.43,22.88-10.19-5.18L238.85,236,249,241.17Z"/><rect class="cls-7" x="233.74" y="216.99" width="6.8" height="26.97" transform="translate(-56.1 77.62) rotate(-16.65)"/><polygon class="cls-6" points="15.4 255.63 59.86 232.54 87.42 237 60.23 236.56 15.4 255.63"/></g></svg>