<svg xmlns="http://www.w3.org/2000/svg" viewBox="0 0 288 288"><defs><style>.cls-1{fill:none;}.cls-2{fill:#fff;}.cls-3{fill:#ac2124;}.cls-4{fill:#541312;}.cls-5{fill:#d1d2d3;}</style></defs><g id="Border"><rect class="cls-1" width="288" height="288"/></g><g id="Front_View" data-name="Front View"><ellipse class="cls-2" cx="67.1" cy="186.41" rx="5.05" ry="3.9" transform="translate(-56.73 31.76) rotate(-18.89)"/><ellipse class="cls-2" cx="220.9" cy="186.41" rx="3.9" ry="5.05" transform="translate(-26.98 335.07) rotate(-71.11)"/><path class="cls-3" d="M54.33,57.24h24.9a0,0,0,0,1,0,0v79.67a0,0,0,0,1,0,0H54.33a5,5,0,0,1-5-5V62.23A5,5,0,0,1,54.33,57.24Z"/><path class="cls-3" d="M208.76,57.24h24.9a5,5,0,0,1,5,5v69.7a5,5,0,0,1-5,5h-24.9a0,0,0,0,1,0,0V57.24A0,0,0,0,1,208.76,57.24Z"/><path class="cls-3" d="M129.06-14.94h25.57a4.32,4.32,0,0,1,4.32,4.32V40.51a4.32,4.32,0,0,1-4.32,4.32H129.06a0,0,0,0,1,0,0V-14.94A0,0,0,0,1,129.06-14.94Z" transform="translate(129.06 158.94) rotate(-90)"/><ellipse class="cls-4" cx="144" cy="97.07" rx="83.44" ry="87.28"/><path class="cls-4" d="M244.56,193.21c0,47.46-45,85.93-100.56,85.93S43.43,240.67,43.43,193.21c0,0,36.12-17.08,100.57-17.08S244.56,193.21,244.56,193.21Z"/><circle class="cls-5" cx="144" cy="94.56" r="52.78"/><path class="cls-3" d="M144,288c-59.86,0-108.56-42.13-108.56-93.92a8,8,0,1,1,16,0C51.43,237.05,93,272,144,272s92.57-35,92.57-77.94a8,8,0,1,1,16,0C252.56,245.87,203.86,288,144,288Z"/><path class="cls-2" d="M182.84,58.84,108.29,133.4a52.42,52.42,0,0,0,13.89,9.22l69.88-69.88A52.47,52.47,0,0,0,182.84,58.84Z"/><path class="cls-2" d="M95.94,116.38a53.2,53.2,0,0,0,3.7,6.78l73-73a52,52,0,0,0-6.78-3.7Z"/><path class="cls-3" d="M144,51.87a42.69,42.69,0,1,1-42.69,42.69A42.74,42.74,0,0,1,144,51.87m0-13.24a55.93,55.93,0,1,0,55.92,55.93A55.93,55.93,0,0,0,144,38.63Z"/><path class="cls-3" d="M195.93,174.58v-1.72h1.21v-4a2.3,2.3,0,0,0-2.34-2.25H93.2a2.3,2.3,0,0,0-2.34,2.25v4h1.21v1.72H90.86v4a2.3,2.3,0,0,0,2.34,2.25H194.8a2.3,2.3,0,0,0,2.34-2.25v-4Z"/><rect class="cls-4" x="92.07" y="172.85" width="103.85" height="1.71"/><ellipse class="cls-2" cx="144" cy="233.66" rx="18.19" ry="23.54"/><ellipse class="cls-2" cx="191.45" cy="222.96" rx="12.33" ry="15.96" transform="translate(-77.19 103.81) rotate(-25.43)"/><ellipse class="cls-2" cx="214.03" cy="200.17" rx="6.29" ry="8.14" transform="translate(-78.85 209.97) rotate(-45)"/><ellipse class="cls-2" cx="96.55" cy="222.96" rx="15.96" ry="12.33" transform="translate(-146.27 214.42) rotate(-64.57)"/><ellipse class="cls-2" cx="73.96" cy="200.17" rx="8.14" ry="6.29" transform="translate(-119.88 110.93) rotate(-45)"/></g></svg>