<svg xmlns="http://www.w3.org/2000/svg" viewBox="0 0 288 288"><defs><style>.cls-1,.cls-6{fill:none;}.cls-2{fill:#fff;}.cls-3{fill:#541312;}.cls-4{fill:#ac2124;}.cls-5{fill:#d1d2d3;}.cls-6{stroke:#ac2124;stroke-linecap:round;stroke-miterlimit:10;stroke-width:10px;}</style></defs><g id="Border"><rect class="cls-1" width="288" height="288"/></g><g id="Side_View" data-name="Side View"><path class="cls-2" d="M70.51,234.71c-5.94,11.56-6.15,25.16-15.08,20.57S44.07,237.59,50,226,68,208.81,77,213.41,76.46,223.15,70.51,234.71Z"/><path class="cls-3" d="M189.61,174.62c-13-11.2-29.08-9-45.61.25-16.53-9.24-32.58-11.45-45.61-.25-37.83,32.49-49,104.52-49,104.52S80.68,193.21,144,193.21s94.65,85.93,94.65,85.93h0S227.44,207.11,189.61,174.62Z"/><path class="cls-4" d="M55.91,38.63H86.19a0,0,0,0,1,0,0V150.48a0,0,0,0,1,0,0H55.91a6.56,6.56,0,0,1-6.56-6.56V45.19A6.56,6.56,0,0,1,55.91,38.63Z"/><path class="cls-4" d="M129.06-14.94h25.57a4.32,4.32,0,0,1,4.32,4.32V40.51a4.32,4.32,0,0,1-4.32,4.32H129.06a0,0,0,0,1,0,0V-14.94A0,0,0,0,1,129.06-14.94Z" transform="translate(129.06 158.94) rotate(-90)"/><path class="cls-2" d="M82.24,202.52c-3.09,5.48-7,6.52-7,6.52-3.27-1.88-3.94-6.83-1.5-11.06s7.06-6.11,10.32-4.23C84.05,193.75,85.34,197,82.24,202.52Z"/><ellipse class="cls-3" cx="144" cy="97.07" rx="83.44" ry="87.28"/><path class="cls-4" d="M195.93,174.58v-1.72h1.21v-4a2.3,2.3,0,0,0-2.34-2.25H93.2a2.3,2.3,0,0,0-2.34,2.25v4h1.21v1.72H90.86v4a2.3,2.3,0,0,0,2.34,2.25H194.8a2.3,2.3,0,0,0,2.34-2.25v-4Z"/><rect class="cls-3" x="92.07" y="172.85" width="103.85" height="1.71"/><circle class="cls-5" cx="144" cy="94.56" r="35.22"/><path class="cls-2" d="M169.92,70.73l-49.75,49.75a35.12,35.12,0,0,0,9.27,6.15L176.07,80A35.12,35.12,0,0,0,169.92,70.73Z"/><path class="cls-2" d="M111.93,109.12a34.9,34.9,0,0,0,2.47,4.52L163.09,65a35,35,0,0,0-4.53-2.47Z"/><path class="cls-4" d="M144,66.07a28.49,28.49,0,1,1-28.49,28.49A28.52,28.52,0,0,1,144,66.07m0-8.83a37.32,37.32,0,1,0,37.32,37.32A37.32,37.32,0,0,0,144,57.24Z"/><path class="cls-6" d="M49.35,279.14S80.68,193.21,144,193.21s94.65,85.93,94.65,85.93"/></g></svg>