<?xml version="1.0" encoding="UTF-8"?><svg xmlns="http://www.w3.org/2000/svg" viewBox="0 0 288 288"><defs><style>.cls-1{fill:#baa89d;}.cls-2{fill:#e0cebd;}.cls-3{fill:#d4d5d8;}.cls-4{fill:#edeef2;}.cls-5{fill:#a6a8ad;}.cls-6{fill:none;}.cls-7{fill:#84858c;}</style></defs><g id="Border"><rect class="cls-6" width="288" height="288"/></g><g id="Sketch"><polygon class="cls-7" points="72 72 92.57 30.86 133.71 10.29 154.29 10.29 195.43 30.86 216 72 216 123.43 72 123.43 72 72"/><polygon class="cls-5" points="216 154.29 174.86 185.14 144 174.86 164.57 154.29 205.71 144 205.71 123.43 216 123.43 216 154.29"/><polygon class="cls-5" points="72 154.29 113.14 185.14 144 174.86 123.43 154.29 82.29 144 82.29 123.43 72 123.43 72 154.29"/><polygon class="cls-5" points="144 0 154.29 10.29 154.29 102.86 164.57 113.14 144 123.43 123.43 113.14 133.71 102.86 133.71 10.29 144 0"/><polygon class="cls-3" points="138.86 288 138.86 216 144 205.71 149.14 216 149.14 288 164.57 267.43 174.86 185.14 164.57 154.29 164.57 133.71 205.71 123.43 216 133.71 216 123.43 205.71 102.86 144 118.29 82.29 102.86 72 123.43 72 133.71 82.29 123.43 123.43 133.71 123.43 154.29 113.14 185.14 123.43 267.43 138.86 288"/><polygon class="cls-2" points="216 82.29 195.43 82.29 174.86 51.43 174.86 30.86 205.71 0 236.57 0 257.14 30.86 257.14 72 267.43 92.57 277.71 82.29 267.43 113.14 246.86 102.86 226.29 82.29 226.29 51.43 216 82.29"/><polygon class="cls-1" points="257.14 30.86 246.86 30.86 226.29 51.43 226.29 82.29 246.86 102.86 267.43 92.57 257.14 72 257.14 30.86"/><polygon class="cls-2" points="72 82.29 92.57 82.29 113.14 51.43 113.14 30.86 82.29 0 51.43 0 30.86 30.86 30.86 72 20.57 92.57 10.29 82.29 20.57 113.14 41.14 102.86 61.71 82.29 61.71 51.43 72 82.29"/><polygon class="cls-1" points="30.86 30.86 41.14 30.86 61.71 51.43 61.71 82.29 41.14 102.86 20.57 92.57 30.86 72 30.86 30.86"/><polygon class="cls-4" points="144 118.29 82.29 102.86 72 123.43 72 133.71 82.29 123.43 123.43 133.71 123.43 154.29 113.14 185.14 123.43 267.43 138.86 288 138.86 216 144 205.71 144 118.29"/></g></svg>