<svg xmlns="http://www.w3.org/2000/svg" viewBox="0 0 288 288"><defs><style>.cls-1{fill:none;}.cls-2{fill:#bbb;}</style></defs><g id="Border"><rect class="cls-1" width="288" height="288"/></g><g id="Main"><path class="cls-2" d="M229.43,147.79a23.39,23.39,0,0,1,12,43.45l.1-.07c-13.44,3-21.41-13.54-12.14-20-11.35-1.14-16.92,9.31-15.81,17.24l.18.17a23.39,23.39,0,0,1,15.63-40.8Z"/><path class="cls-2" d="M58.57,147.79a23.39,23.39,0,0,0-12,43.45l-.1-.07c13.44,3,21.41-13.54,12.14-20,11.35-1.14,16.92,9.31,15.81,17.24l-.18.17a23.39,23.39,0,0,0-15.63-40.8Z"/><path class="cls-2" d="M206,88.3A27.27,27.27,0,0,1,220,139l.16-.1c-15.67,3.53-25-15.79-14.16-23.3-13.22-1.33-19.72,10.85-18.42,20.09l.3.28A27.26,27.26,0,0,1,206,88.3Z"/><path class="cls-2" d="M82,88.3A27.27,27.27,0,0,0,68,139l-.16-.1c15.67,3.53,25-15.79,14.16-23.3,13.22-1.33,19.72,10.85,18.42,20.09l-.3.28A27.26,27.26,0,0,0,82,88.3Z"/><path class="cls-2" d="M196.31,171.18a33,33,0,0,1,5.88-18.82,37,37,0,0,1-32.83-31.8,39.72,39.72,0,0,1-50.72,0,37,37,0,0,1-32.83,31.8,33.1,33.1,0,0,1-14.57,49.42A32.34,32.34,0,0,1,65,203.67c0,43.66,34.91,77,79,84.33,44.13-7.35,79-40.67,79-84.33a32.45,32.45,0,0,1-6.27-1.89A33.11,33.11,0,0,1,196.31,171.18Zm-88,22.6V179.45h0v0a11.78,11.78,0,1,1,23.56,0v0h0v14.33a11.78,11.78,0,1,1-23.56,0Zm36,42.37c-21.63,0-24.21-10.85-24.21-10.85,9.17,5.2,38.59,5.2,48.43,0C168.55,225.3,166,236.15,144.33,236.15Zm36-56.7v14.33a11.78,11.78,0,1,1-23.56,0V179.45h0v0a11.78,11.78,0,1,1,23.56,0v0Z"/><path class="cls-2" d="M161.92,5.94A30,30,0,0,0,114,30V42.73Z"/><path class="cls-2" d="M114,90a29.83,29.83,0,0,0,2.13,11.09L174,56.66V30a29.92,29.92,0,0,0-2.13-11.1L114,63.34Z"/><path class="cls-2" d="M126.08,114.06A30,30,0,0,0,174,90V77.27Z"/></g></svg>