<svg xmlns="http://www.w3.org/2000/svg" viewBox="0 0 288 288"><defs><style>.cls-1{fill:none;}.cls-2{fill:#161413;}.cls-3{fill:#fcf4f0;}.cls-4{fill:#bf0000;}.cls-5{fill:#f7f2d2;}</style></defs><g id="Border"><rect class="cls-1" width="288" height="288"/></g><g id="Main"><path class="cls-2" d="M280,99.9a52.72,52.72,0,0,0,8,1.55c-5.81-4.52-11.9-10.88-17.13-16.87-11.58-16.7-28.34-33.07-47.31-46.28a57.42,57.42,0,0,0,9.55-2C225.47,34.94,216.6,32,208.89,29h0c-21.16-12.17-44-20-65-20C109.56,9,70.31,29.83,41.54,56.56c-.27.25-19.07,13.26-28.35,17.1a58.93,58.93,0,0,0,12.44-.44C12.52,88.81,3.46,105.27,1,120.18-7,167.82,32.74,223.4,143.89,223.4S294.74,167.82,286.8,120.18A73.91,73.91,0,0,0,280,99.9Z"/><path class="cls-3" d="M143.89,279c38.82-.88,103.22-40.58,111.16-55.57,7.94-16.77,1.76-61.76-7.06-78.52s-104.1-88.22-104.1-88.22S48.62,128.12,40.68,144s-16.76,62.63-7.94,79.4C39.79,238.39,103.31,278.09,143.89,279Z"/><path class="cls-2" d="M143.87,73s-25.56,54-110.74,71L67.2,75.83l76.67-42.6,76.66,42.6L254.61,144C169.42,126.94,143.87,73,143.87,73Z"/><circle class="cls-4" cx="143.89" cy="125.47" r="39.7"/><path class="cls-5" d="M119.57,165.23c-5.1-1.49-9.95-3.22-14.26-4.93C103,167.74,101.38,180.75,112,193,111.87,179.33,116.09,170.32,119.57,165.23Z"/><path class="cls-5" d="M130.81,167.94a24.08,24.08,0,0,0,8,21.86c-1.29-9.7.84-16.53,2.88-20.58A76.51,76.51,0,0,1,130.81,167.94Z"/><path class="cls-5" d="M178.84,199.06a42.25,42.25,0,0,1-3,19.2c3.76.28,7.41.6,10.91.94A27.13,27.13,0,0,0,178.84,199.06Z"/><path class="cls-5" d="M86,191.16c-19.21,8.08-24.35,24.23-25.66,33.78,4.3-.82,10.6-1.92,18.41-3.05C78.42,214.26,79.71,203.66,86,191.16Z"/><path class="cls-5" d="M166.6,194a34.28,34.28,0,0,0,6.88-30.37,127.48,127.48,0,0,1-14.38,3.94C162.58,173,166.22,181.58,166.6,194Z"/><path class="cls-5" d="M80.88,161.76a48.16,48.16,0,0,1,.86,19.84,30.62,30.62,0,0,0,10.74-26.92c-2.59-1.26-4.09-2.06-4.09-2.06Q84.33,157.21,80.88,161.76Z"/><path class="cls-5" d="M100.8,198.28A28.61,28.61,0,0,0,93.12,220c3.7-.43,7.6-.83,11.66-1.19A44.27,44.27,0,0,1,100.8,198.28Z"/><path class="cls-5" d="M206.57,184.26c2.4,17.87-2.12,30-5.79,36.51,7.36.93,13.75,1.92,18.91,2.79C221.46,214.1,221.58,197.76,206.57,184.26Z"/><path class="cls-5" d="M199.39,152.62s-3.78,2-9.73,4.67A32.57,32.57,0,0,0,195,185.78c1.07-13.38,5.93-21.91,9.83-26.72C203.1,156.92,201.3,154.77,199.39,152.62Z"/><path class="cls-5" d="M152.57,193.71c-1,10.72-4.34,18.3-7.68,23.33,4.66,0,9.24.11,13.72.27A32.4,32.4,0,0,0,152.57,193.71Z"/><path class="cls-5" d="M127.13,201.75a23.68,23.68,0,0,0-8.43,16.06q4.47-.27,9.11-.45A37.48,37.48,0,0,1,127.13,201.75Z"/><path d="M144.89,217c3.34-5,6.71-12.61,7.68-23.33a32.4,32.4,0,0,1,6,23.6h0c6,.21,11.74.54,17.27.95h0a42.25,42.25,0,0,0,3-19.2,27.13,27.13,0,0,1,7.95,20.14h0c5,.49,9.65,1,14,1.57h0c3.67-6.52,8.19-18.64,5.79-36.51,15,13.5,14.89,29.84,13.12,39.3h0c9,1.51,14.18,2.68,14.18,2.68s-1.57-32.63-29.07-67.17c-3.89,4.8-8.75,13.33-9.82,26.71a32.57,32.57,0,0,1-5.32-28.49h0c-4.41,2-10,4.24-16.18,6.29A34.28,34.28,0,0,1,166.6,194c-.38-12.37-4-21-7.5-26.43a75.43,75.43,0,0,1-15.21,1.74c-.73,0-1.46,0-2.2,0-2,4.05-4.17,10.88-2.88,20.58a24.08,24.08,0,0,1-8-21.86,114.28,114.28,0,0,1-11.24-2.71c-3.48,5.09-7.7,14.1-7.55,27.75-10.64-12.23-9-25.24-6.71-32.68h0c-5.34-2.11-9.83-4.17-12.83-5.62A30.62,30.62,0,0,1,81.74,181.6a48.12,48.12,0,0,0-.86-19.83c-25.47,33.52-27,64.47-27,64.47s2.3-.51,6.45-1.3h0c1.31-9.55,6.45-25.7,25.66-33.78-6.31,12.5-7.6,23.1-7.25,30.73,4.34-.63,9.15-1.26,14.35-1.85h0a28.61,28.61,0,0,1,7.68-21.76,44.27,44.27,0,0,0,4,20.57h0c4.45-.4,9.11-.75,13.92-1h0a23.68,23.68,0,0,1,8.43-16.06,37.48,37.48,0,0,0,.68,15.61h0c5.23-.2,10.6-.32,16.08-.32Z"/></g></svg>