<svg xmlns="http://www.w3.org/2000/svg" viewBox="0 0 288 288"><defs><style>.cls-1{fill:none;}.cls-2{fill:#bbb;}</style></defs><g id="Border"><rect class="cls-1" width="288" height="288"/></g><g id="Main"><path class="cls-2" d="M248.53,107.43A28.63,28.63,0,0,0,233.8,160.6l-.13-.08c16.45,3.7,26.2-16.58,14.86-24.46,13.89-1.4,20.71,11.39,19.34,21.08l-.21.21a28.62,28.62,0,0,0-19.13-49.92Z"/><path class="cls-2" d="M39.47,107.43A28.63,28.63,0,0,1,54.2,160.6l.13-.08c-16.45,3.7-26.2-16.58-14.86-24.46-13.89-1.4-20.71,11.39-19.34,21.08l.21.21a28.62,28.62,0,0,1,19.13-49.92Z"/><path class="cls-2" d="M219.87,34.63a33.37,33.37,0,0,0-17.13,62l-.19-.13c19.17,4.32,30.54-19.32,17.32-28.51,16.19-1.62,24.14,13.28,22.54,24.58l-.36.35a33.37,33.37,0,0,0-22.18-58.3Z"/><path class="cls-2" d="M68.13,34.63a33.37,33.37,0,0,1,17.13,62l.19-.13C66.28,100.83,54.91,77.19,68.13,68,51.94,66.38,44,81.28,45.59,92.58l.36.35a33.37,33.37,0,0,1,22.18-58.3Z"/><path class="cls-2" d="M144,0a36.71,36.71,0,0,0-18.8,68.24l-.26-.17C146,72.82,158.54,46.82,144,36.71c17.8-1.79,26.55,14.6,24.79,27l-.55.52A36.7,36.7,0,0,0,144,0Z"/><path class="cls-2" d="M208,136.06a40.42,40.42,0,0,1,7.18-23A45.28,45.28,0,0,1,175,74.11a48.58,48.58,0,0,1-62.06,0A45.28,45.28,0,0,1,72.8,113a40.52,40.52,0,0,1-25.52,62.79v15.47a96.72,96.72,0,0,0,193.44,0V175.81A40.51,40.51,0,0,1,208,136.06ZM100.36,172.27V154.75h0v-.06a14.42,14.42,0,1,1,28.84,0v.06h0v17.52a14.42,14.42,0,1,1-28.84,0Zm44.05,64.13c-26.47,0-29.63-22.9-29.63-22.9,11.22,11,47.22,11,59.26,0C174,213.5,170.88,236.4,144.41,236.4Zm44.05-81.65v17.52a14.42,14.42,0,0,1-28.84,0V154.75h0v-.06a14.42,14.42,0,0,1,28.84,0v.06Z"/></g></svg>