<svg xmlns="http://www.w3.org/2000/svg" viewBox="0 0 288 288"><defs><style>.cls-1{fill:none;}.cls-2{fill:#1a1a1a;}.cls-3{fill:#e6e6e6;}.cls-4{fill:#fff;}</style></defs><g id="Border"><rect class="cls-1" width="288" height="288"/></g><g id="Main"><path class="cls-2" d="M12,195.31c41.25,57.56,222.72,57.57,264,0v0a128,128,0,0,0-9.5-20.64l-.54.47c-12.51,10.4-28,12.4-34.6,4.47s-1.8-22.8,10.71-33.2c.39-.33.79-.62,1.18-.93C190,96.18,97.79,96.22,44.6,145.6l.11-.08c.38.29.76.58,1.13.89,12.52,10.4,17.31,25.27,10.72,33.2S34.47,185.54,22,175.14l-.48-.42s0-.09.05-.13A128.14,128.14,0,0,0,12,195.31c.26,1.26.54,2.51.83,3.75C12.53,197.8,12.25,196.55,12,195.31Z"/><path class="cls-2" d="M143.49.45c-2.88,18.3-16.86,105.65-24.23,120.41h49.5C161.39,106.1,147.41,18.75,144.53.45A.53.53,0,0,0,143.49.45Z"/><path class="cls-3" d="M250.29,223.94l14.4-6.7L250,205.53l-.4,14.48-2.63,1.07L236.16,212l-.82,13.82-4.55,1.85-9.53-10.42-2.73,14.46-4.62,1.39-8.85-11.32-3.8,14.05-5.66.87-7.89-11.26-4.29,13.13-5.65.87-7.15-12.2L165,240.52l-6.26.21-6.3-12.6-6.52,13-1.94.07-1.89,0-6.53-13.06-6.4,12.79-6-.12-5.7-13.59-7.8,13.31-4.38-.09-4.91-15L91.2,238.46l-4-1.05L83,221.75l-9.43,12.07-3.83-1L66.8,217.22l-10,11-4-1.88L51.9,212l-10.59,9-2.81-1.31-.39-14.1L23.37,217.24l14.39,6.7-.22.2,8.73,3.73,35.06,28.32H208.56l37.13-30,4.83-2.07ZM38.6,223.23l0-1.58,1,.79Zm210.86-.07v.07l-.05,0Z"/><path class="cls-4" d="M266.54,174.66a123.39,123.39,0,0,0-23.26-29.19c-.4.31-.79.61-1.18.94-12.52,10.4-17.32,25.27-10.72,33.2s22.09,5.93,34.6-4.47Z"/><path class="cls-4" d="M21.45,174.72l.49.42c12.51,10.4,28,12.4,34.6,4.47s1.8-22.8-10.72-33.2c-.37-.31-.75-.6-1.13-.89A123.37,123.37,0,0,0,21.45,174.72Z"/><path class="cls-4" d="M276,195.31C251.28,318.9,36.74,318.9,12,195.31,53.24,252.88,234.78,252.88,276,195.31Z"/><circle class="cls-4" cx="76.6" cy="193.73" r="8.25"/><circle cx="76.6" cy="193.73" r="1.38"/><circle class="cls-4" cx="211.07" cy="194.65" r="8.25"/><circle cx="211.07" cy="194.65" r="1.38"/></g></svg>