<svg xmlns="http://www.w3.org/2000/svg" viewBox="0 0 288 288"><defs><style>.cls-1{fill:none;}.cls-2{fill:#1a1a1a;}.cls-3{fill:#b3b3b3;}.cls-4{fill:#fff;}.cls-5{fill:#8e0e18;}</style></defs><g id="Border"><rect class="cls-1" width="288" height="288"/></g><g id="Main"><path class="cls-2" d="M66.8,238.11,54.68,212.42a13.41,13.41,0,0,0-4.57-5.35l-2.32-1.56a13.54,13.54,0,0,1-5.69-8.91l-5.61-33a13.78,13.78,0,0,1,1.73-9.36L42,147.9a13.86,13.86,0,0,0,1.91-7.79c-.36-6.82-8.27-19.14-4.88-36.46C47,62.93,66.37,39.43,88.31,28.6c-1.56,4.76-2,13.2.12,18.54C99.19,24.35,131,3,144,0V233.35Z"/><path class="cls-2" d="M221.2,238.11l12.12-25.69a13.41,13.41,0,0,1,4.57-5.35l2.32-1.56a13.54,13.54,0,0,0,5.69-8.91l5.61-33a13.78,13.78,0,0,0-1.73-9.36L246,147.9a13.86,13.86,0,0,1-1.91-7.79c.36-6.82,8.27-19.14,4.88-36.46-8-40.72-27.33-64.22-49.27-75.05,1.56,4.76,2,13.2-.12,18.54C188.81,24.35,157,3,144,0L80.32,200.83Z"/><path class="cls-2" d="M144,288c16,0,77-49.89,77-49.89s20.24-52.11,20.24-91.46c0-57.37-41.66-100.39-97.2-100.39s-97.19,43-97.19,100.39C46.79,186,67,238.11,67,238.11S127.94,288,144,288Z"/><path class="cls-3" d="M144,164.08s-53.21,61.32-43.44,81.51c10.78,22.3,43.44,41.88,43.44,41.88Z"/><path class="cls-3" d="M144,164.08s53.21,61.32,43.44,81.51C176.64,267.89,144,287.47,144,287.47l-7.66-49.36Z"/><path class="cls-4" d="M196,183.13c-10.72,0-19.7-10.71-20.46-24.38a30,30,0,0,1,4-17.13L192,132.28a14.75,14.75,0,0,1,2.09-.27l.94,0c10.72,0,19.71,10.71,20.47,24.38.78,14.09-7.56,26.09-18.59,26.74C196.6,183.12,196.28,183.13,196,183.13Z"/><path class="cls-5" d="M195,135c9,0,16.8,9.67,17.46,21.55.7,12.44-6.38,23-15.77,23.58l-.76,0c-9,0-16.81-9.67-17.47-21.54a27.11,27.11,0,0,1,3.33-14.93l11.39-8.55c.35-.05.7-.08,1.05-.1s.51,0,.77,0m0-6c-.37,0-.74,0-1.11,0a18.58,18.58,0,0,0-3.19.46L177.3,139.55a32.86,32.86,0,0,0-4.79,19.37c.85,15.3,11.24,27.21,23.46,27.21.37,0,.74,0,1.12,0,12.7-.75,22.28-14.14,21.4-29.9C217.65,140.89,207.26,129,195,129Z"/><polygon class="cls-3" points="224.76 131.13 164.82 159.82 165.91 148.1 222.66 105.54 217.65 125.63 224.76 131.13"/><path class="cls-4" d="M92,183.13c-.31,0-.63,0-.94,0-11-.65-19.37-12.65-18.59-26.74C73.22,142.69,82.21,132,92.93,132l.94,0a14.75,14.75,0,0,1,2.09.27l12.45,9.34a29.88,29.88,0,0,1,4,17.13c-.75,13.67-9.74,24.38-20.46,24.38Z"/><path class="cls-5" d="M92.93,135l.76,0c.35,0,.7.05,1,.1l11.39,8.55a27.11,27.11,0,0,1,3.33,14.93c-.66,11.87-8.5,21.54-17.47,21.54l-.76,0c-9.39-.56-16.46-11.14-15.77-23.58C76.12,144.65,84,135,92.93,135m0-6c-12.22,0-22.61,11.91-23.46,27.21-.88,15.76,8.7,29.15,21.4,29.9.38,0,.75,0,1.12,0,12.22,0,22.61-11.91,23.46-27.21a32.78,32.78,0,0,0-4.79-19.37L97.23,129.48A18.58,18.58,0,0,0,94,129c-.37,0-.74,0-1.11,0Z"/><polygon class="cls-3" points="63.2 131.13 123.14 159.82 122.05 148.1 65.3 105.54 70.31 125.63 63.2 131.13"/></g></svg>