<svg xmlns="http://www.w3.org/2000/svg" viewBox="0 0 288 288"><defs><style>.cls-1{fill:none;}.cls-2{fill:#b7ada9;}.cls-3{fill:#635c5a;}.cls-4{fill:#5b0606;}.cls-5{fill:#160202;}</style></defs><g id="Border"><rect class="cls-1" width="288" height="288"/></g><g id="Main"><path class="cls-2" d="M144,0C98.59,0,49.91,29.51,37.68,58.24c-18.27,42.94-4.14,126.62-4.14,126.62,25.32,6.46,49,27.88,48.45,88.93,0,0,19.83,14.21,62,14.21Z"/><path class="cls-2" d="M144,0c45.41,0,94.09,29.51,106.32,58.24,18.27,42.94,4.14,126.62,4.14,126.62-25.32,6.46-49,27.88-48.45,88.93,0,0-19.83,14.21-62,14.21L107.53,140.52Z"/><path class="cls-3" d="M211.6,121.09c11.48,11.48,16.06,32.76,4.58,44.24s-34.66,8.8-46.14-2.68a29.39,29.39,0,0,1,41.56-41.56Z"/><path class="cls-3" d="M76.43,121.09C65,132.57,60.38,153.85,71.85,165.33s34.66,8.8,46.14-2.68a29.39,29.39,0,1,0-41.56-41.56Z"/><ellipse class="cls-4" cx="144" cy="229.26" rx="44.75" ry="32.73"/><circle class="cls-5" cx="123.77" cy="227.57" r="5.71"/><circle class="cls-5" cx="163.96" cy="227.57" r="5.71"/><path class="cls-2" d="M126.3,248.36a83.39,83.39,0,0,0,35.4,0s3.54,8.54-7.07,14.95H133.37C122.76,256.9,126.3,248.36,126.3,248.36Z"/><path class="cls-3" d="M115.74,70.62c4.71-.62,9.43-.94,14.14-1.16,2.35-.14,4.71-.17,7.07-.25l7.07-.09,7.06.08c2.36.09,4.72.11,7.07.25,4.71.22,9.43.55,14.14,1.17-4.71.63-9.43.95-14.14,1.17-2.35.14-4.71.17-7.07.25l-7.06.08L137,72c-2.36-.08-4.72-.11-7.07-.25C125.17,71.57,120.45,71.24,115.74,70.62Z"/><path class="cls-3" d="M144,16.72c.82,6.76,1.26,13.52,1.55,20.28s.45,13.51.44,20.27-.14,13.52-.43,20.28-.73,13.52-1.56,20.28c-.84-6.76-1.27-13.52-1.57-20.28S142,64,142,57.27s.15-13.51.44-20.27S143.19,23.48,144,16.72Z"/></g></svg>