<svg xmlns="http://www.w3.org/2000/svg" viewBox="0 0 288 288"><defs><style>.cls-1{fill:none;}.cls-2{fill:#161413;}.cls-3{fill:#f7e0cb;}.cls-4{fill:#d6d6d6;}.cls-5{fill:#fff;}.cls-6{fill:#565656;}.cls-7{fill:#b2b2b2;}.cls-8{fill:red;}</style></defs><g id="Border"><rect class="cls-1" width="288" height="288"/></g><g id="Main"><path class="cls-2" d="M146,210.15,120.22,0C83.44-.85,63.38,17.36,52.63,29.6c-15.18,17.27-17,37.11-24.88,43.57-5.4,4.45-12.91,2.35-13.47-3.72C6.8,77.52,6.79,94.11,22.08,97.8c-32.95,35.67-1,64.65-1,80.85,0,10.62-9.45,12.63-11.79,6.47-3.14,10.29,5.47,22.3,21.72,20.4-5,38.13,29,43.48,42.5,50.69,11.14,5.94,9.65,15.45,0,14.52,12.66,14.8,42.85,9,43.27-9C117,248.77,125.18,217,146,210.15Z" transform="translate(0 0)"/><path class="cls-3" d="M146,32.16C96,32.16,58.6,69.6,58.6,119.52s0,93.6,18.72,112.32C108.52,263,114.76,288,146,288L153,163Z" transform="translate(0 0)"/><polygon class="cls-4" points="145.96 288 145.96 24.58 215.73 46.9 245.63 107.19 234.55 170.66 231.42 173.47 220.28 237.32 168.49 283.88 145.96 288"/><path class="cls-5" d="M146,223h0c-27.14-.47-45.71,5-45.71,5s4.74-13.9,14-19.08A77.25,77.25,0,0,0,146,223Z" transform="translate(0 0)"/><path class="cls-3" d="M37.51,158.31c-.73-10.86,5-16.6,11.13-16.92,12.23-.62,19.08,9.92,19.08,9.92l2.57,38C52.68,201.13,39,180,37.51,158.31Z" transform="translate(0 0)"/><path class="cls-5" d="M131.28,154.11c-3.39-6.64-22.23-20.11-41.93-1C109.12,176.17,128.78,161.19,131.28,154.11Z" transform="translate(0 0)"/><circle cx="114.57" cy="153.67" r="5.64"/><polygon class="cls-2" points="134.91 151.42 88.56 141.84 74.55 151.42 85.44 126.98 134.91 141.26 134.91 151.42"/><path class="cls-2" d="M146,94.56c-44.82-4.85-53.88-11.39-61.87-8.8-4.81,1.56-3.25,9-7.56,15-4.13,5.78-5.7,3.68-9,9.31-3.71,6.3-5.82,36.42-3.34,64.46-6.38-14.49-7.27-39.16-7.27-39.16L49,79.71,120.22,0c22.76,0,38.07,23,38.07,53.36C158.29,85.06,146,94.56,146,94.56Z" transform="translate(0 0)"/><polygon class="cls-6" points="182.87 76.68 194.46 153.68 182.87 204.51 182.87 76.68"/><polygon class="cls-7" points="231.42 173.47 220.04 183.71 216.98 201.23 168.49 244.83 168.49 223.02 145.96 223.02 145.96 288 168.49 283.88 220.28 237.32 231.42 173.47"/><polygon class="cls-8" points="164 154.37 221.79 136.38 187.44 174.56 164 154.37"/></g></svg>