<svg xmlns="http://www.w3.org/2000/svg" viewBox="0 0 288 288"><defs><style>.cls-1{fill:none;}.cls-2{fill:#e8e8e8;}.cls-3{fill:#3f271e;}.cls-4{fill:#e6e6e6;}.cls-5{fill:#b7b7b7;}.cls-6{fill:#1e1e1e;}</style></defs><g id="Border"><rect class="cls-1" width="288" height="288"/></g><g id="Main"><path class="cls-2" d="M231.83,144.53C221.19,128.39,156.28,155,144,158.88h0c-12.26-3.84-77.17-30.49-87.8-14.35,8.35,5.88-24.76,22-6,55.56,0-4.05,4-10.65,7.56-11.71-4,14.37,0,57.74,35.91,70.52-2.27-5.11-1.63-14,1.74-17.17C100.48,271,144,288,144,288s43.53-17,48.62-46.27c3.38,3.12,4,12.06,1.75,17.17,35.91-12.78,39.92-56.15,35.91-70.52,3.51,1.06,7.56,7.66,7.56,11.71C256.56,166.49,223.45,150.41,231.83,144.53Z" transform="translate(0 0)"/><path class="cls-2" d="M225.26,37.92c1.28-18.49-20.67-33.32-38.59-36.73A71.61,71.61,0,0,0,144,6.58a71.59,71.59,0,0,0-42.67-5.39C83.4,4.6,61.45,19.43,62.72,37.92,63.94,55.52,44.94,64.55,59.66,87L144,56.1,228.33,87C243.05,64.55,224.05,55.52,225.26,37.92Z" transform="translate(0 0)"/><path class="cls-3" d="M67.25,107.54s5-6.81.23-2.47c-4.92,4.5-9.66,9.62-13,19.42C56,135.08,52,152.54,62.65,155.91c8.4,2.65,15.72-10.78,15.72-10.78Z" transform="translate(0 0)"/><path class="cls-4" d="M144,155.94c-36-7.69-31.52,16.92-48.29,16.43-12.53-.35-10-10.25-14.75-19.53-4.5-8.71-7.56-18.47-5.69-33.5,4.87-39-9.53,2.71-9.53,2.71,5.44,19.69,4,32.72,4,32.72L74,188.41l15.14,29.3L118.39,223l25.6-3.88Z" transform="translate(0 0)"/><path class="cls-3" d="M144,19.81c-59,.49-84.37,20.7-84.37,70.37,0,49,4.6,47.94,12.19,63.89,10.44,22,4,38.3,16.18,52.68,7.17,8.48,29.26,12,56,12.12,26.75-.13,48.84-3.64,56-12.12,12.16-14.38,5.75-30.72,16.19-52.68,7.59-15.95,12.18-14.84,12.18-63.89C228.36,40.51,203,20.3,144,19.81Z" transform="translate(0 0)"/><path class="cls-3" d="M220.74,107.54s-5-6.81-.24-2.47c4.92,4.5,9.66,9.62,13,19.42-1.48,10.59,2.49,28.05-8.17,31.42-8.41,2.65-15.72-10.78-15.72-10.78Z" transform="translate(0 0)"/><path class="cls-2" d="M222.26,122.05s-14.4-41.76-9.54-2.71c1.87,15-1.19,24.79-5.68,33.5-4.78,9.28-2.22,19.18-14.75,19.53-16.77.49-12.26-23.32-48.3-15.63-36-7.69-31.52,16.12-48.29,15.63-12.53-.35-10-10.25-14.75-19.53-4.5-8.71-7.56-18.47-5.69-33.5,4.87-39-9.53,2.71-9.53,2.71,5.44,19.69,4,32.72,4,32.72L74,188.41l15.14,29.3L118.39,223l25.6-3.88L169.6,223l29.24-5.29L214,188.41l4.29-33.64S216.82,141.74,222.26,122.05Z" transform="translate(0 0)"/><path class="cls-5" d="M166.2,16.37,144,27.13,121.78,16.37,71.9,48.87s42.81-6.48,72.09-6.72c29.28.24,72.09,6.72,72.09,6.72Z" transform="translate(0 0)"/><path class="cls-2" d="M221.57,40,185.14,9.72,144,16.37,102.85,9.72,66.42,40,58.34,71.21,59.66,87l8,1.22s-.58-10,5.4-11.53c7.64-2,15.67,0,31.33-9.85,16.59-10.44,6.16-33.56,26.08-35.08,9.22-.71,11.89,7.54,13.53,10.42,1.65-2.88,4.32-11.13,13.54-10.42,19.92,1.52,9.48,24.64,26.08,35.08,15.66,9.85,23.69,7.84,31.32,9.85,6,1.57,5.41,11.53,5.41,11.53l8-1.22,1.31-15.76Z" transform="translate(0 0)"/><path class="cls-3" d="M174.08,178.23S163.79,167.72,144,167.72s-30.08,10.51-30.08,10.51S128.76,177,144,177,174.08,178.23,174.08,178.23Z" transform="translate(0 0)"/><path class="cls-6" d="M228.33,87S204,78.2,144,78c-60,.2-84.33,9-84.33,9s-10.37,24.46-4.77,50.73c7.39-5.21,29.57-6.62,61.36-7a32,32,0,0,0,10.38-2.7c4.88-2.8,11.43-7.17,17.36-7.17s12.28,4.18,17,7a32,32,0,0,0,10.7,2.88c31.8.41,54,1.82,61.35,7C238.7,111.43,228.33,87,228.33,87Z" transform="translate(0 0)"/></g></svg>