<?xml version="1.0" encoding="UTF-8"?><svg xmlns="http://www.w3.org/2000/svg" viewBox="0 0 288 288"><defs><style>.cls-1{fill:none;}.cls-2{fill:#bbb;}</style></defs><g id="Border"><rect class="cls-1" width="288" height="288"/></g><g id="Main"><polygon class="cls-2" points="150.99 101.67 150.99 88.55 192.96 79.46 200.9 103.69 188.42 96.62 150.99 101.67"/><polygon class="cls-2" points="137.01 101.67 137.01 88.55 95.04 79.46 87.1 103.69 99.58 96.62 137.01 101.67"/><polygon class="cls-2" points="130.32 103.76 105.25 101.82 113.73 108.86 130.32 103.76"/><polygon class="cls-2" points="157.68 103.76 182.75 101.82 174.27 108.86 157.68 103.76"/><path class="cls-2" d="M223.81,143.69l8.03-40.63-10.38-8.98,3.84-24.06-12.88-26.98,1.76-10.47-9.71-16.8-23.56-6.32L168.06,0l-24.06,5.22L119.94,0l-12.85,9.45-23.56,6.32-9.71,16.8,1.76,10.47-12.88,26.98,3.84,24.06-10.38,8.98,8.03,40.63,10,5.04-12.42,23.44,13.35,49.84,7.02-24.73,1.35,37.6,26.34,23.13,4.26-28.79,7.19,38.84,22.71,19.94,22.71-19.94,7.19-38.84,4.26,28.79,26.34-23.13,1.35-37.6,7.02,24.73,13.35-49.84-12.42-23.44,10-5.04Zm-146.75-.38l-.56,1.06-8.22-4.14-6.96-35.21,5.26-4.55h0l3.72-3.22,4.54,3.82,3.1,40.56-.89,1.69Zm77.01,39.15l-10.07-4.66-22.8,10.56,4.35-31.64,18.45-6,18.45,6,4.35,31.64-12.73-5.89Zm51.27-37.63l-16.35,11.14-13.04,32.39-3.66-39.93-10.54-12.43-17.75,6.99-17.75-6.99-10.54,12.43-3.66,39.93-13.04-32.39-16.35-11.14-3.13-57.74,11.21-21.96-5.92-22.09,10.98-11.26,48.21,5.95,48.21-5.95,10.98,11.26-5.92,22.09,11.21,21.96-3.13,57.74Zm4.7-3.2l3.1-40.56,4.54-3.82,3.72,3.22h0l5.26,4.55-6.96,35.21-3.98,2-4.24,2.13-1.45-2.74Z"/></g></svg>