<svg xmlns="http://www.w3.org/2000/svg" viewBox="0 0 288 288"><defs><style>.cls-1{fill:none;}.cls-2{fill:#161413;}.cls-3{fill:#f7e0cb;}.cls-4{fill:#fff;}.cls-5{fill:#4c0303;}</style></defs><g id="Border"><rect class="cls-1" width="288" height="288"/></g><g id="Main"><path class="cls-2" d="M144,37.53c-42.34-12.2-77.38,6.87-92,31.9-19.33,33-6.77,101.83-52,96.63C7,194,29.84,201.47,47.61,199c-3.06,6.41-11.64,10.47-22.15,10.47,10.42,25,45.77,25.31,58.15,17.95,1,4.54-2.71,10.72-7.59,12.43,14.67,12.57,45.27,8.9,50.68-17.21,3.65-17.64,17.16-28.3,17.3-28.41.14.11,13.65,10.77,17.3,28.41,5.41,26.11,36,29.78,50.68,17.21-4.88-1.71-8.55-7.89-7.59-12.43,12.38,7.36,47.73,7,58.15-17.95-10.51,0-19.09-4.06-22.15-10.47,17.77,2.47,40.6-5,47.61-32.94-45.19,5.2-32.63-63.6-52-96.63-14.65-25-49.7-44.1-92-31.9"/><path class="cls-3" d="M144,247.64c17.38,0,29-8.34,56-35.26,16.15-16.15,19.42-41.58,19.42-84.65S187.08,52.35,144,52.35s-75.38,32.3-75.38,75.38,3.27,68.5,19.42,84.65C115,239.3,126.62,247.64,144,247.64Z"/><path class="cls-4" d="M120.53,213.56S130,209.1,144,209.1s23.47,4.46,23.47,4.46c10.38-5.93,14.9-19,14.9-19A232.64,232.64,0,0,1,144,197.76a232.85,232.85,0,0,1-38.38-3.17S110.15,207.63,120.53,213.56Z"/><path class="cls-3" d="M52.19,159.38c-.53-7.59,3.66-11.6,8.12-11.82,8.93-.43,13.92,6.93,13.92,6.93L76.11,181C63.26,189.27,53.26,174.54,52.19,159.38Z"/><path class="cls-3" d="M235.82,159.38c.53-7.59-3.66-11.6-8.12-11.82-8.92-.43-13.92,6.93-13.92,6.93L211.91,181C224.76,189.27,234.75,174.54,235.82,159.38Z"/><path class="cls-2" d="M129.43,133.85c-8.38-6.51-21.88-12.93-31.91-6.95-3.16,2-5.39,5.35-7.1,9A18.82,18.82,0,0,1,92.17,130c7.78-15,29.69-7.68,37.26,3.83Z"/><path d="M110.27,134.38C100,134,94.9,147.2,88.1,145c.78,7.75,9.34,15.58,23.27,16.05,8.93.29,17.84-2.51,20.59-4.56l.83-.62-.22-1c-1.71-7.86-12.37-20.17-22.3-20.51Z"/><path class="cls-4" d="M131,155.23c-2.47-11.38-27.08-35.81-35.66-2C105.05,163.89,126.76,158.39,131,155.23Z"/><path d="M115.91,160.45a14.88,14.88,0,0,1-2-4.75,21.88,21.88,0,0,1-.54-4.74,20.85,20.85,0,0,1,.54-4.75,14.47,14.47,0,0,1,2-4.74,14.73,14.73,0,0,1,2,4.74,21.31,21.31,0,0,1,0,9.49A14.65,14.65,0,0,1,115.91,160.45Z"/><path d="M177.12,134.38c-9.93.34-20.6,12.65-22.3,20.51l-.22,1,.83.62c2.74,2,11.65,4.85,20.59,4.56,13.93-.47,22.49-8.3,23.27-16.05-6.81,2.17-11.85-11-22.17-10.65Z"/><path class="cls-4" d="M156.4,155.23c2.46-11.38,27.07-35.81,35.65-2C182.34,163.89,160.62,158.39,156.4,155.23Z"/><path d="M171.47,160.45a14.88,14.88,0,0,1-2-4.75A21.88,21.88,0,0,1,169,151a20.85,20.85,0,0,1,.54-4.75,14.47,14.47,0,0,1,2-4.74,14.73,14.73,0,0,1,2,4.74,21.31,21.31,0,0,1,0,9.49A14.43,14.43,0,0,1,171.47,160.45Z"/><path class="cls-2" d="M157.77,133.85C165.33,122.34,187.25,115,195,130a18.82,18.82,0,0,1,1.75,5.92c-1.71-3.69-3.95-7-7.1-9-10-6-23.52.44-31.91,6.95Z"/><path class="cls-2" d="M191.72,76.18H96.27s-15.74,21.16-8.69,42.31c28.21-7,84.62-7,112.83,0C207.46,97.34,191.72,76.18,191.72,76.18Z"/><path class="cls-2" d="M69,149.87a61.27,61.27,0,0,1,1,21.66,53.78,53.78,0,0,0,2.82-24.46c7.24-5,12.79-29.53,14.06-49.73H144V47.48l-49.24,2.8L61.55,85.66l-9.4,36.43Z"/><path class="cls-5" d="M144,254.25c20.19,0,66.19-39.2,71-70.07-4.8,8.8-12.15,1.44,4-34.31-23.53,43.11-52.14,25.94-74.21,25.94S92.5,193,69,149.87c16.15,35.75,8.79,43.11,4,34.31C77.78,215.05,123.82,254.25,144,254.25Z"/><path class="cls-2" d="M219,149.87a61.56,61.56,0,0,0-1,21.66,53.9,53.9,0,0,1-2.81-24.46c-7.24-5-12.79-29.53-14.06-49.73H144L128.7,66,144,47.48l49.25,2.8,33.2,35.38,9.4,36.43Z"/><path class="cls-3" d="M144,87.59c-4.34,20.84-1.19,46.3-1.19,46.3h2.52S148.35,108.42,144,87.59Z"/></g></svg>