<?xml version="1.0" encoding="UTF-8"?><svg xmlns="http://www.w3.org/2000/svg" viewBox="0 0 288.96 288"><defs><style>.cls-1{fill:#ffe41d;}.cls-2{fill:none;}</style></defs><g id="Border"><rect class="cls-2" x=".5" width="288" height="288"/></g><g id="Bedlam"><path class="cls-1" d="m201.02,127.02l-40.74-70.56-22.84,10.85c-13.69-8.44-29.82-13.31-47.08-13.31-49.63,0-89.86,40.23-89.86,89.86,0,49.63,40.23,89.86,89.86,89.86,49.63,0,89.86-40.23,89.86-89.86,0-.83-.01-1.65-.04-2.47l20.83-14.37Zm-110.66-49.3c11.83,0,22.92,3.12,32.53,8.56l-17.64,31.22c-4.4-2.49-9.48-3.92-14.89-3.92s-10.49,1.43-14.89,3.92l-17.64-31.22c9.61-5.44,20.7-8.56,32.53-8.56Zm-33.6,123.1c-19.3-11.41-32.3-32.35-32.52-56.34l35.85-.34c.1,10.98,6.05,20.57,14.89,25.79l-18.22,30.89Zm33.6-41.32c-8.63,0-15.65-7.02-15.65-15.65,0-8.63,7.02-15.65,15.65-15.65s15.65,7.02,15.65,15.65c0,8.63-7.02,15.65-15.65,15.65Zm33.6,41.32l-18.22-30.89c8.84-5.22,14.79-14.81,14.89-25.79l35.85.34c-.22,24-13.22,44.93-32.52,56.34Z"/><path class="cls-1" d="m275.66,105.63h-44.52c-7.09,0-12.84-5.75-12.84-12.84s5.75-12.84,12.84-12.84,12.84-5.75,12.84-12.84-5.75-12.84-12.84-12.84h-54.74s37.65,65.21,37.65,65.21l6.95,12.03-11.44,7.89-14.43,9.95c-1.87,35.97-21.94,67.2-51.16,84.64h66.98c7.09,0,12.84-5.75,12.84-12.84s-5.75-12.84-12.84-12.84h.38c-7.09,0-12.84-5.75-12.84-12.84s5.75-12.84,12.84-12.84h45.8c7.09,0,12.84-5.75,12.84-12.84s-5.75-12.84-12.84-12.84-12.84-5.75-12.84-12.84,5.75-12.84,12.84-12.84h18.53c7.09,0,12.84-5.75,12.84-12.84s-5.75-12.84-12.84-12.84Z"/></g></svg>