<svg xmlns="http://www.w3.org/2000/svg" viewBox="0 0 288 288"><defs><style>.cls-1{fill:none;}.cls-2{fill:#ffe41d;}</style></defs><g id="Border"><rect class="cls-1" width="288" height="288"/></g><g id="Main"><path class="cls-2" d="M200.52,127,159.78,56.46,136.94,67.31a89.87,89.87,0,1,0,42.78,76.55c0-.83,0-1.65,0-2.48ZM89.86,77.72a65.81,65.81,0,0,1,32.53,8.56L104.75,117.5a30.24,30.24,0,0,0-29.78,0L57.33,86.28A65.81,65.81,0,0,1,89.86,77.72Zm-33.6,123.1a66.1,66.1,0,0,1-32.52-56.34l35.85-.34a30.23,30.23,0,0,0,14.89,25.79Zm33.6-41.32a15.65,15.65,0,1,1,15.65-15.64A15.66,15.66,0,0,1,89.86,159.5Zm33.6,41.32-18.22-30.89a30.23,30.23,0,0,0,14.89-25.79l35.85.34A66.1,66.1,0,0,1,123.46,200.82Z"/><path class="cls-2" d="M275.16,105.63H230.65a12.84,12.84,0,1,1,0-25.67,12.84,12.84,0,0,0,0-25.68H175.9l37.65,65.21,6.95,12-11.44,7.89-14.43,10A105,105,0,0,1,143.47,234h67a12.84,12.84,0,1,0,0-25.67h.37a12.84,12.84,0,0,1,0-25.68h45.8a12.84,12.84,0,1,0,0-25.67,12.84,12.84,0,0,1,0-25.68h18.53a12.84,12.84,0,1,0,0-25.67Z"/></g></svg>