<?xml version="1.0" encoding="UTF-8"?><svg xmlns="http://www.w3.org/2000/svg" viewBox="0 0 288.96 288"><defs><style>.cls-1{fill:#fff;}.cls-2{fill:none;}</style></defs><g id="Border"><rect class="cls-2" x=".5" width="288" height="288"/></g><g id="Eclipse"><path d="m241.23,115.6c-3.64-27.11-17.23-41.07-35.44-54.43,16.14,18.98,8.4,48.77-12.62,42.05-14.81-4.73-10.63-34.44-33.62-47.57-19.69-11.25-24.84-34.57-6.43-55.36-39.6,15.17-48.57,45.1-42.79,75.13,3.4,17.7-7.02,36.55-25.15,40.75-12.06,2.79-26.55-11.6-10.97-30.79-14.3,7.15-27.27,21.92-27.23,44.18.05,30.37,10.72,32.82,10.72,70.22,0,48.72,39.5,88.22,88.22,88.22s88.22-39.5,88.22-88.22c0-34.97,10.98-55.42,7.12-84.18Z"/><path class="cls-1" d="m198.78,199.61c0-8.88,5.08-16.56,12.48-20.34-6.37-20.3-21.93-36.53-41.8-43.82-.01,0-.02,0-.03-.01-7.34-2.68-15.27-4.15-23.54-4.15s-16.2,1.47-23.54,4.15c-.01,0-.02,0-.03.01-19.88,7.28-35.44,23.52-41.8,43.82,7.4,3.78,12.48,11.46,12.48,20.34s-5.13,16.63-12.58,20.39c.32,1.05.67,2.08,1.04,3.11.07.19.14.38.21.58.31.84.64,1.66.98,2.48.06.15.12.29.18.44.82,1.93,1.73,3.81,2.72,5.64.09.16.17.32.26.47.44.81.9,1.61,1.38,2.39.06.1.12.2.18.3,1.1,1.8,2.28,3.55,3.54,5.24.07.1.15.2.22.3.6.8,1.21,1.58,1.84,2.35.03.04.06.07.09.11,1.37,1.66,2.82,3.26,4.35,4.78.04.04.08.07.11.11,10.79,10.77,25.16,17.95,41.17,19.62v-46.46c-9.08-3.02-15.63-11.57-15.63-21.66,0-12.62,10.23-22.84,22.84-22.84s22.84,10.23,22.84,22.84c0,10.09-6.55,18.64-15.63,21.66v46.46c16.01-1.67,30.37-8.86,41.17-19.62.04-.04.08-.07.11-.11,1.52-1.52,2.97-3.12,4.35-4.78.03-.04.06-.07.09-.11.63-.77,1.25-1.55,1.84-2.35.07-.1.15-.2.22-.3,1.26-1.69,2.44-3.44,3.54-5.24.06-.1.12-.2.18-.3.47-.79.93-1.59,1.38-2.39.09-.16.17-.32.26-.47.99-1.83,1.89-3.71,2.72-5.64.06-.15.12-.29.18-.44.34-.82.67-1.65.98-2.48.07-.19.14-.38.21-.58.37-1.03.72-2.06,1.04-3.11-7.46-3.76-12.58-11.47-12.58-20.39Z"/></g></svg>