<svg xmlns="http://www.w3.org/2000/svg" viewBox="0 0 288 288"><defs><style>.cls-1{fill:none;}.cls-2{fill:#fff;}</style></defs><g id="Border"><rect class="cls-1" width="288" height="288"/></g><g id="Main"><path d="M240.73,115.6c-3.64-27.12-17.24-41.07-35.45-54.43,17.2,23.27,4.21,49.35-16.76,42.22-19.38-6.59-3.23-32.24-34.9-50.62-30-17.41-27-43.33-8.23-52.77-23.23,3-55.61,38.58-42.25,70.55,12.62,30.21-.93,47.53-18.48,48.63C72.3,120,63.24,101.94,75.18,86,58.76,95.3,46.41,110.3,46.45,132.56c0,30.37,10.72,29.82,10.72,67.22a88.22,88.22,0,0,0,176.44,0C233.61,164.81,244.59,144.36,240.73,115.6Z"/><path class="cls-2" d="M145.39,137.62a62.16,62.16,0,0,0-6.54,124V219.43a20.72,20.72,0,1,1,13.08,0v42.16a62.16,62.16,0,0,0-6.54-124Z"/></g></svg>