<svg xmlns="http://www.w3.org/2000/svg" viewBox="0 0 288 288"><defs><style>.cls-1{fill:none;}.cls-2{fill:#8ff4ff;}</style></defs><g id="Border"><rect class="cls-1" width="288" height="288"/></g><g id="True"><path class="cls-2" d="M144,225a119.45,119.45,0,0,1-52.64-12.1L144,288l52.59-75.1A119.52,119.52,0,0,1,144,225Z"/><path class="cls-2" d="M94.81,67.92l-3.76,6.5a61.29,61.29,0,0,0-3.35,54.4l25.37-14.64A32.29,32.29,0,0,1,136.5,73.61V28.86H144a76.43,76.43,0,0,1,61.86,31.75l25.08-14.48a105,105,0,0,0-173.88,0Z"/><path class="cls-2" d="M136.5,166.1H144a61.37,61.37,0,0,0,48.78-24.29l-25.36-14.65a32.23,32.23,0,0,1-46.84,0l-32.2,18.6-6.48,3.89-3.83-6.59a76.25,76.25,0,0,1-3.43-69.47L49.55,59.11a105,105,0,0,0,87,150.59Z"/><path class="cls-2" d="M238.45,59.11,200.7,80.91,197,74.42A61.4,61.4,0,0,0,151.5,44.33V73.61a32.29,32.29,0,0,1,23.43,40.57l32.36,18.68,6.33,3.8-3.69,6.4a76.47,76.47,0,0,1-58.43,37.67v29A105,105,0,0,0,238.45,59.11Z"/></g></svg>