<?xml version="1.0" encoding="UTF-8"?><svg xmlns="http://www.w3.org/2000/svg" viewBox="0 0 288.96 288"><defs><style>.cls-1{fill:#fda6ff;}.cls-2{fill:none;}</style></defs><g id="Border"><rect class="cls-2" x=".5" y="0" width="288" height="288"/></g><g id="Spire"><path class="cls-1" d="m234.74,150.14s-.07-.06-.11-.09c-.44-.35-.89-.7-1.35-1.03-.06-.04-.11-.08-.17-.12-.46-.33-.92-.65-1.38-.96-.02-.01-.04-.03-.06-.04-.04-.02-.07-.04-.11-.07-.43-.28-.87-.56-1.31-.83-.03-.02-.07-.04-.1-.06-.78-.46-1.56-.93-2.37-1.32-.71-.34-1.43-.7-2.15-1.01-.11-.05-.23-.1-.35-.14-.48-.2-.96-.4-1.44-.58-.02,0-.04-.02-.06-.02-.56-.21-1.24-.45-1.8-.64l-.09-.03c-2.46-.8-4.97-1.35-7.49-1.66-.03,0-.06,0-.09-.01-.57-.07-1.13-.12-1.7-.17-.12,0-.23-.02-.35-.03-.49-.03-.97-.06-1.46-.07-.15,0-.3-.01-.45-.02-.53-.01-1.06-.01-1.59,0-.28,0-.56.02-.84.03-.38.01-.76.02-1.14.05-11.81.96-23.19-4.57-29.11-14.82l-.5-.86c-6.16-10.66-5.91-23.59.51-33.8l.05-.08c.55-.8,1.06-1.62,1.54-2.45.07-.12.14-.24.2-.35.48-.84.93-1.69,1.35-2.55.01-.02.03-.05.04-.07,1.66-3.47,2.77-7.1,3.37-10.76.03-.16.05-.32.07-.48.06-.41.12-.82.17-1.23.04-.35.08-.7.11-1.06.02-.2.04-.39.05-.59.75-9.2-1.64-18.71-7.45-26.79L144.49,0l-32.45,45.08c-.64.87-1.24,1.77-1.81,2.7-.09.14-.17.28-.26.42-.13.21-.26.42-.39.63-.09.15-.15.3-.24.45-.29.51-.56,1.03-.83,1.56-3.85,7.62-5.05,15.94-3.9,23.87.01.1.03.2.04.3.11.69.23,1.38.37,2.07.07.35.14.7.22,1.04.09.38.18.75.28,1.12.16.6.32,1.19.51,1.78.1.3.2.61.3.91.16.46.32.92.5,1.38.16.41.32.82.49,1.23.18.43.37.86.56,1.28.16.35.32.7.49,1.05.25.5.51,1,.78,1.49.24.43.48.85.73,1.28.13.22.27.44.4.66s.24.43.38.64c6.97,10.27,7.51,23.58,1.32,34.3h0c-6.09,10.55-17.6,16.87-29.75,16.06-.18-.01-.35,0-.53-.02-.65-.04-1.29-.05-1.93-.06-.29,0-.58,0-.86,0-.81.01-1.61.04-2.41.1-.26.02-.51.05-.76.07-.6.05-1.19.13-1.78.21-.3.04-.6.08-.9.13-.76.12-1.52.26-2.28.43-.31.07-.62.15-.92.23s-.61.14-.92.23c-.55.16-1.1.31-1.64.49-.59.19-1.18.39-1.77.61-.47.17-.93.36-1.39.55-.37.15-.75.31-1.12.48-.41.18-.82.37-1.22.56-.4.19-.79.4-1.18.61-.61.32-1.22.66-1.81,1.02-.3.18-.6.36-.89.55-.4.25-.8.51-1.19.78-.47.32-.93.66-1.38,1-.44.33-.87.67-1.29,1.02-.31.25-.62.51-.92.77-.32.28-.65.56-.97.85-.53.49-1.05,1-1.55,1.52-.2.2-.39.41-.59.63-.39.43-.79.86-1.16,1.31-.24.29-.49.57-.73.87-.49.61-.97,1.25-1.43,1.9-.17.24-.34.49-.5.74-.32.47-.64.95-.93,1.44-.22.37-.45.73-.67,1.11-.36.63-.71,1.27-1.04,1.93-.09.19-.2.36-.3.55-.32.66-.62,1.33-.9,2l-22.57,50.11,54.71,5.51c12.58,1.57,25.39-2.9,34.26-12.27.16-.16.31-.32.47-.49.19-.21.37-.42.56-.63.26-.29.51-.59.77-.89.13-.16.27-.32.4-.49.37-.46.74-.94,1.09-1.42.01-.02.03-.04.04-.05.41-.56.81-1.14,1.19-1.73.01-.02.03-.05.04-.07.35-.54.69-1.1,1.02-1.66.03-.04.05-.09.08-.13.02-.03.03-.07.05-.1.44-.76.85-1.54,1.24-2.34v-.04c1.12-10.71,12.17-17.67,22.94-17.67h4.54c13.36,0,24.98,6.78,30.18,17.97.23.5.52.98.79,1.46.03.05.05.09.08.14,3.42,6.18,8.49,11.55,15.05,15.34,7.1,4.1,14.92,5.78,22.53,5.32.17,0,.34-.02.51-.04.37-.03.75-.05,1.12-.09.02,0,.04,0,.05,0l55.69-5.61-22.99-51.03c-2.7-5.99-6.68-10.99-11.48-14.84Zm-140.1,44.59c-1.59-.81-3.5-1.08-5.49-.58-2.34.58-4.28,2.31-5.17,4.56-.34.86-.52,1.71-.56,2.53-.1,1.94-1.63,3.5-3.58,3.5h-.3c-2.09,0-3.75-1.6-3.89-3.64-.12-1.76-.86-3.53-2.28-4.98-1.76-1.79-4.36-2.56-6.82-2.09-.79.15-1.5.4-2.14.72-1.73.88-3.84.34-4.82-1.35l-.14-.24c-1.03-1.79-.45-4.1,1.23-5.24,1.8-1.22,3.13-3.24,3.42-5.9.16-1.44-.18-2.91-.92-4.15s-1.6-2.13-2.57-2.78c-1.65-1.1-2.27-3.24-1.3-4.97.04-.07.08-.14.12-.21l.09-.15c.97-1.67,3.17-2.33,4.89-1.45,1.6.82,3.51,1.09,5.51.59,2.34-.59,4.29-2.32,5.17-4.56.34-.86.52-1.71.56-2.53.1-1.94,1.63-3.5,3.58-3.5h.43c1.96,0,3.64,1.6,3.75,3.56.1,1.78.82,3.56,2.24,5.03,1.76,1.82,4.39,2.61,6.88,2.14.78-.15,1.49-.4,2.13-.72,1.73-.88,3.85-.34,4.82,1.35l.17.29c1.02,1.77.47,4.04-1.18,5.13-1.48.98-2.65,2.49-3.21,4.46-.69,2.43-.05,5.1,1.6,7.01.52.6,1.08,1.09,1.68,1.47,1.63,1.06,2.21,3.16,1.24,4.85l-.15.26-.08.14c-.97,1.68-3.19,2.34-4.92,1.46Zm64.53-45.77c-3.65,10.52-16.51,13.97-24.93,6.68-4.68-4.05-6.46-10.69-4.43-16.54,3.65-10.52,16.51-13.97,24.93-6.68,4.68,4.05,6.46,10.69,4.43,16.54Zm.44-66.27c-1.41-.73-3.08-1.03-4.84-.74-2.86.48-5.26,2.59-6.08,5.37-.17.59-.28,1.18-.31,1.75-.11,1.7-1.5,3.06-3.2,3.12-.43.01-.86.01-1.29,0-1.71-.04-3.18-1.4-3.29-3.11s-.83-3.55-2.27-5.01c-1.73-1.76-4.26-2.58-6.69-2.14-.86.15-1.64.43-2.34.79-1.51.79-3.4.28-4.32-1.14-.21-.33-.41-.66-.61-1-.93-1.61-.43-3.62,1.13-4.63s2.78-2.61,3.31-4.7c.6-2.37-.03-4.93-1.64-6.78-.62-.72-1.32-1.28-2.06-1.7-1.57-.9-2.06-2.91-1.22-4.51.15-.29.31-.58.48-.87.02-.04.05-.08.07-.12.94-1.6,3.03-2.06,4.64-1.15,1.69.96,3.78,1.29,5.96.69,2.45-.67,4.42-2.59,5.18-5.01.28-.9.4-1.78.38-2.63-.05-1.85,1.57-3.35,3.42-3.38.37,0,.75,0,1.13,0,1.84.05,3.23,1.65,3.2,3.49s.59,3.7,1.96,5.26c1.96,2.23,5.12,3.14,7.96,2.27.6-.18,1.15-.43,1.65-.72,1.64-.94,3.71-.34,4.65,1.3.19.33.37.67.55,1.01.79,1.55.12,3.54-1.38,4.42-1.65.97-2.97,2.57-3.56,4.71-.65,2.35-.08,4.91,1.46,6.79.57.7,1.2,1.25,1.88,1.68,1.49.95,2.01,2.91,1.14,4.45-.03.05-.06.1-.09.15-.17.29-.34.58-.52.86-.96,1.5-2.87,2.05-4.46,1.23Zm64.96,112.04c-1.53-.78-3.36-1.06-5.27-.63-2.51.56-4.59,2.41-5.47,4.83-.27.74-.42,1.46-.47,2.16-.15,2.03-1.75,3.64-3.79,3.65-.06,0-.13,0-.19,0-2.02,0-3.67-1.57-3.8-3.58-.11-1.7-.78-3.4-2.09-4.83-1.74-1.89-4.39-2.76-6.92-2.31-.76.14-1.46.37-2.09.67-1.84.89-4.04.3-5.07-1.47-.02-.03-.03-.05-.05-.08-1-1.74-.56-4.03,1.12-5.13,1.52-.99,2.73-2.55,3.28-4.58.64-2.35.04-4.91-1.51-6.78-.51-.62-1.08-1.12-1.67-1.53-1.66-1.12-2.3-3.29-1.31-5.03.03-.06.06-.11.1-.17.01-.02.03-.05.04-.07,1-1.71,3.2-2.41,4.96-1.52,1.53.78,3.36,1.06,5.28.63,2.51-.56,4.59-2.42,5.47-4.84.27-.73.42-1.46.47-2.16.15-2.03,1.75-3.65,3.79-3.66.06,0,.13,0,.19,0,2.02,0,3.68,1.58,3.8,3.59.1,1.7.77,3.4,2.09,4.83,1.74,1.89,4.39,2.77,6.92,2.32.77-.14,1.47-.37,2.1-.67,1.84-.89,4.04-.3,5.07,1.47.01.03.03.05.04.08,1,1.74.56,4.03-1.12,5.13-1.52.99-2.73,2.55-3.28,4.58-.64,2.35-.04,4.91,1.51,6.78.51.62,1.08,1.12,1.67,1.53,1.66,1.13,2.3,3.29,1.31,5.03-.03.05-.06.11-.09.16-.02.03-.03.05-.05.08-1,1.71-3.19,2.41-4.96,1.52Z"/><path class="cls-1" d="m159.63,215.2c-12.13-7.65-28.37-4.9-37.33,6.3-8.24,10.3-8.09,24.39-.89,34.43l23.09,32.07,23.09-32.07c9.53-13.24,6.05-31.89-7.96-40.72Zm-7.59,25.89c-1.55,6.02-8.84,7.97-13.19,3.53-1.82-1.86-2.55-4.59-1.9-7.11,1.55-6.02,8.84-7.97,13.19-3.53,1.82,1.86,2.55,4.6,1.9,7.11Z"/><path class="cls-1" d="m64.82,124.67c17.21-1.73,29.28-18.46,24.58-35.92-3.63-13.46-16.83-22.06-30.7-20.66l-38.91,3.92,16.23,36.04c4.9,10.83,16.32,17.88,28.8,16.63Zm-10.4-30.1c1.55-6.02,8.84-7.97,13.19-3.53,1.82,1.86,2.55,4.59,1.9,7.11-1.55,6.02-8.84,7.97-13.19,3.53-1.82-1.86-2.55-4.59-1.91-7.11Z"/><path class="cls-1" d="m219.67,123.85c14.17,3.71,27.83-3.68,33.32-15.81l16.23-36.04-39.32-3.96c-17.07-1.72-32.13,12.02-31.28,29.86.59,12.24,9.19,22.85,21.05,25.95Zm-.17-29.29c1.55-6.02,8.84-7.97,13.19-3.53,1.82,1.86,2.55,4.59,1.9,7.11-1.55,6.02-8.84,7.97-13.18,3.53-1.82-1.86-2.55-4.59-1.91-7.11Z"/></g></svg>