<svg xmlns="http://www.w3.org/2000/svg" viewBox="0 0 288 288"><defs><style>.cls-1{fill:none;}.cls-2{fill:#bbb;}</style></defs><g id="Border"><rect class="cls-1" width="288" height="288"/></g><g id="Simple"><path class="cls-2" d="M136.5,219.75c0-57.16-59.3-88.95-80.08-95.58l-1.27-.41A98.51,98.51,0,0,0,136.5,264.48Z"/><path class="cls-2" d="M117.29,144.63c12,11.69,21,24.58,26.71,38.24,5.74-13.66,14.71-26.55,26.71-38.24a158.25,158.25,0,0,1,44.86-30.33,88.39,88.39,0,0,0-143.14,0A158.25,158.25,0,0,1,117.29,144.63Z"/><path class="cls-2" d="M281.27,99a11.11,11.11,0,0,1-5.28,2.24,13.21,13.21,0,0,1-2.81,0,9.86,9.86,0,0,1-2.6-.54c-3.31-1.2-6-4.2-8.12-7.6a76.66,76.66,0,0,1-5.61-11.21c-3.31-7.9-6.15-16.23-9.74-24.55a112.29,112.29,0,0,0-6.2-12.49,55,55,0,0,0-9.2-11.94,36.65,36.65,0,0,0-6.6-5A32.62,32.62,0,0,0,217,24.48c-.74-.22-1.41-.35-2.09-.49s-1.37-.27-2.08-.36a35.11,35.11,0,0,0-4.27-.37,35.75,35.75,0,0,0-8.72.81,40.78,40.78,0,0,0-15.45,7.24,61.4,61.4,0,0,0-11.27,11.08,108.26,108.26,0,0,0-13.08,21.66,102.91,102.91,0,0,1,22.88,6.35,82.85,82.85,0,0,1,7.4-15.54c3.92-6.26,8.78-11.15,14.19-13a17.76,17.76,0,0,1,4.27-.93,15.8,15.8,0,0,1,2.29-.07,9.33,9.33,0,0,1,1.18.06c.41,0,.82.06,1.15.11a17.54,17.54,0,0,1,8.41,3.48,40.33,40.33,0,0,1,7.91,7.92,100.25,100.25,0,0,1,6.91,10.29c4.36,7.29,8.26,15.17,12.79,23a83.1,83.1,0,0,0,7.74,11.41,32.5,32.5,0,0,0,5.21,5.06,17.74,17.74,0,0,0,6.93,3.3,14.26,14.26,0,0,0,3.9.28,15.53,15.53,0,0,0,3.7-.78,14.37,14.37,0,0,0,6.09-4.07,19.16,19.16,0,0,0,3.49-6,25.13,25.13,0,0,0,1.5-6.5C286.74,92.55,284.48,96.51,281.27,99Z"/><path class="cls-2" d="M58.26,52.4a40.57,40.57,0,0,1,7.9-7.92A17.62,17.62,0,0,1,74.58,41c.33,0,.74-.08,1.15-.11a9.33,9.33,0,0,1,1.18-.06,15.8,15.8,0,0,1,2.29.07,17.76,17.76,0,0,1,4.27.93c5.41,1.88,10.27,6.77,14.19,13a82.85,82.85,0,0,1,7.4,15.54A103.48,103.48,0,0,1,127.94,64a108.47,108.47,0,0,0-13.08-21.65,61.4,61.4,0,0,0-11.27-11.08,40.78,40.78,0,0,0-15.45-7.24,35.75,35.75,0,0,0-8.72-.81,35.11,35.11,0,0,0-4.27.37c-.71.09-1.4.22-2.08.36s-1.35.27-2.09.49a32.62,32.62,0,0,0-8.09,3.41,36.65,36.65,0,0,0-6.6,5,55,55,0,0,0-9.2,11.94,112.29,112.29,0,0,0-6.2,12.49C37.3,65.69,34.46,74,31.15,81.92a76.66,76.66,0,0,1-5.61,11.21c-2.16,3.4-4.81,6.4-8.12,7.6a9.86,9.86,0,0,1-2.6.54,13.21,13.21,0,0,1-2.81,0A11.11,11.11,0,0,1,6.73,99C3.52,96.51,1.26,92.55,0,88.37a25.13,25.13,0,0,0,1.5,6.5,19.16,19.16,0,0,0,3.49,6,14.37,14.37,0,0,0,6.09,4.07,15.53,15.53,0,0,0,3.7.78,14.26,14.26,0,0,0,3.9-.28,17.74,17.74,0,0,0,6.93-3.3,32.5,32.5,0,0,0,5.21-5.06,83.1,83.1,0,0,0,7.74-11.41C43.09,77.86,47,70,51.35,62.69A100.25,100.25,0,0,1,58.26,52.4Z"/><path class="cls-2" d="M232.85,123.76l-1.27.41c-20.78,6.63-80.08,38.41-80.08,95.58v44.73a98.51,98.51,0,0,0,81.35-140.72Z"/><polygon class="cls-2" points="144 264.76 144 264.76 144 264.76 144 264.76"/></g></svg>