<?xml version="1.0" encoding="UTF-8"?><svg xmlns="http://www.w3.org/2000/svg" viewBox="0 0 288.96 288"><defs><style>.cls-1{fill:none;}</style></defs><g id="Border"><rect class="cls-1" x=".5" y="0" width="288" height="288"/></g><g id="Eclipse"><path d="m171.96,61.45c3.77-10.52,3.36-21.91-2.32-31.5-3.33-5.6-8.24-9.98-14.11-12.64-7.9-3.44-17.71-1.6-23.75,4.35-6.12,5.63-7.57,14.42-2.77,21.43,5.05,7.55,14.93,8.64,21.33,2.01,4.98-5.04,4.35-13.15-.79-18.33,8.89,3.13,12.06,14.72,7.33,22.83-4.62,8.95-16.22,13.62-25.97,10.73-10.06-2.77-17.82-11.77-19.76-21.98-2.2-10.28,1.83-21.18,9.41-28.3,10.71-10.58,28.42-13.02,41.43-5.41,7.99,4.69,14.28,12.24,17.29,21,4.26,12.12,1.83,26.69-7.33,35.8h0Z"/><path d="m112.13,213.79c-6.79,14.92-5.26,33.15,4.98,45.85,9.13,11.52,24.12,17.57,37.86,11.48,6.96-2.96,13.03-9.01,15.25-16.25,2.41-7.93-.47-17.17-7.03-22.26-7.13-6.11-18.16-4.46-23.46,3.28-4.24,5.84-2,14.79,4.24,18.37,4.85,2.91,11.57,1.12,14.81-3.49,3.06-4.23,2.07-10.57-2.05-14.12,5.89,2.49,8.66,10.15,6.04,16.2-3.34,8.37-13.79,12.61-22.23,9.36-8.8-3.17-14.73-12.28-14.59-21.63-.07-6.62,3.1-13.12,7.75-17.75,10.9-11.21,29.44-11.37,40.98-.87,9.57,8,14.17,21.26,11.95,33.5-2.49,13.65-13.16,25.2-26.06,29.88-20.45,7.54-41.3-1.49-52.22-19.78-9.63-15.89-8.6-37.87,3.78-51.76h0Z"/><path d="m62.72,156.8c-11,1.99-20.65,8.05-26.12,17.76-3.19,5.69-4.53,12.13-3.89,18.54.97,8.56,7.47,16.14,15.65,18.39,7.93,2.48,16.27-.66,19.94-8.32,4.01-8.16.03-17.23-8.92-19.48-6.86-1.79-13.57,2.81-15.48,9.85-1.74-9.26,6.72-17.8,16.1-17.76,10.06-.47,19.91,7.24,22.28,17.13,2.63,10.1-1.28,21.32-9.16,28.1-7.8,7.05-19.26,9-29.21,6-14.52-3.99-25.48-18.1-25.4-33.17.06-9.27,3.46-18.48,9.54-25.48,8.36-9.75,22.2-14.93,34.67-11.55h0Z"/><path d="m224.47,133.14c16.32-1.58,31.33-12.02,37.22-27.23,5.41-13.66,3.15-29.68-8.99-38.53-6.04-4.54-14.31-6.78-21.7-5.08-8.07,1.88-14.63,8.99-15.76,17.22-1.72,9.23,5.21,17.95,14.57,18.68,7.18.75,13.8-5.66,13.79-12.85.09-5.66-4.81-10.58-10.42-11.08-5.19-.53-10.18,3.49-11.2,8.84-.79-6.35,4.46-12.57,11.01-13.33,8.91-1.3,17.82,5.64,19.22,14.57,1.66,9.2-3.27,18.9-11.44,23.45-5.69,3.37-12.91,3.88-19.25,2.17-15.16-3.84-24.57-19.81-21.24-35.06,2.14-12.29,11.33-22.9,23.04-27.1,13.07-4.67,28.4-1.2,38.91,7.62,16.75,13.94,19.36,36.51,8.98,55.12-8.94,16.28-28.5,26.38-46.72,22.6h0Z"/><path d="m199.53,203.83c7.22,8.53,17.3,13.86,28.44,13.74,6.52-.08,12.76-2.14,18-5.9,6.93-5.12,10.24-14.54,8.1-22.74-1.81-8.11-8.7-13.76-17.18-13.11-9.06.59-14.94,8.61-12.41,17.46,1.88,6.83,9.22,10.34,16.27,8.48-7.15,6.13-18.77,3.08-23.43-5.07-5.44-8.47-3.68-20.86,3.7-27.86,7.43-7.32,19.1-9.55,28.92-6.12,10,3.23,17.43,12.18,19.8,22.3,3.81,14.57-2.94,31.12-16.03,38.58-8.06,4.58-17.74,6.25-26.84,4.47-12.62-2.37-24.03-11.76-27.34-24.25h0Z"/><path d="m98.46,76.18c-9.53-13.34-26.08-21.12-42.19-18.62-14.54,2.15-27.28,12.11-28.87,27.05-.91,7.52,1.28,15.77,6.45,21.33,5.67,6.05,15.1,8.18,22.79,5.04,8.85-3.12,12.94-13.49,8.89-21.95-2.94-6.6-11.81-9.12-18.02-5.51-4.95,2.75-6.76,9.46-4.38,14.57,2.14,4.76,8.12,7.07,13.26,5.28-5.1,3.86-13.12,2.42-17.05-2.87-5.58-7.07-4.03-18.25,3.01-23.93,7.14-6.04,18-6.62,26.03-1.82,5.38,3.01,9.21,8.44,11.12,14.25,5.05,15.44-3.91,32.3-19.36,37.27-11.71,4.29-25.5,1.64-34.99-6.4-10.58-8.98-15.24-24-12.85-37.51,3.7-21.48,21.94-35.03,43.25-35.33,18.57-.39,37.09,11.49,42.93,29.16h0Z"/><path d="m182.38,95.01c-1.63-1.94-3.51-3.52-5.56-4.77-27.85-17.45-64.62-9.21-82.33,18.55-1.58,2.47-2.95,5.02-4.12,7.61,12.86-9.87,37.67-16.22,57.58,7.5,7.98,9.51,22.16,10.75,31.66,2.77,9.51-7.98,10.75-22.16,2.77-31.66Z"/><path d="m166.2,196.4c2.49-.44,4.81-1.28,6.91-2.43,29.04-15.4,40.28-51.36,25.1-80.58-1.35-2.6-2.87-5.06-4.53-7.37,2.11,16.07-4.79,40.74-35.28,46.11-12.22,2.16-20.38,13.81-18.23,26.04,2.16,12.22,13.81,20.38,26.04,18.23Z"/><path d="m86.48,131.69c-.86,2.38-1.3,4.8-1.35,7.2-1.18,32.85,24.33,60.56,57.23,62.02,2.93.13,5.82.04,8.65-.24-14.98-6.21-32.88-24.51-22.3-53.61,4.24-11.66-1.77-24.56-13.43-28.8-11.66-4.24-24.56,1.77-28.8,13.43Z"/></g></svg>