<svg xmlns="http://www.w3.org/2000/svg" viewBox="0 0 288 288"><defs><style>.cls-1{fill:none;}</style></defs><g id="Border"><rect class="cls-1" width="288" height="288"/></g><g id="Main"><path d="M43.24,246.86c.89.87,1.78,1.73,2.69,2.57l.19.18c.93.86,1.88,1.72,2.84,2.56l0,0A144.23,144.23,0,0,0,61.46,262l.1.07c1,.72,2.06,1.42,3.1,2.11l.58.38c.89.6,1.8,1.17,2.72,1.73l.3.2a144,144,0,0,0,191.89-37.37h0l.44-.61q2.94-4,5.6-8.29h0q2.81-4.5,5.29-9.21l.07-.13.72-1.37h0v0c.55-1.07,1.08-2.15,1.61-3.24l.42-.91c.38-.8.75-1.6,1.11-2.41.17-.37.33-.74.49-1.1l.24-.55.05-.12c.23-.53.46-1.06.68-1.6s.32-.78.48-1.17c.31-.75.61-1.5.91-2.26l.44-1.17c.29-.77.58-1.54.86-2.32l.4-1.14.15-.42h0c.23-.66.45-1.33.67-2,.12-.36.23-.72.35-1.08.27-.84.53-1.69.79-2.55.1-.32.19-.65.29-1,.27-.91.52-1.83.77-2.75.07-.27.15-.54.22-.81.27-1,.52-2,.77-3,0-.19.09-.38.13-.56.28-1.16.54-2.31.78-3.48,0-.05,0-.11,0-.16A144.12,144.12,0,0,0,156.36.53h0L153.54.32l-.56,0L150.52.15,149.2.1,147.35,0c-1.11,0-2.23,0-3.35,0s-2.31,0-3.45,0l-1.25,0-2.16.09-1.56.08-1.79.11-1,.07h0L132,.5l-1.28.11-1.22.11-.9.1-.89.1-1.62.19-1.56.21-1.81.25-1.62.25-1.74.29-1.64.29L116,2.73q-.83.15-1.65.33c-.55.11-1.09.23-1.64.36l-1.66.37-1.59.39-1.68.41-1,.27c-1.3.34-3.41.95-4.7,1.33l-.51.16c-.61.18-1.22.38-1.82.57l-1.33.44L96.65,8l-1.3.45-1.81.67-1.25.47c-.61.24-1.22.47-1.82.72-.4.15-.79.32-1.18.48l-1.86.77-1,.45-2,.88h0A144.06,144.06,0,0,0,21.49,219.7l.31.5A24.6,24.6,0,0,0,23.6,223c.18.23.33.48.5.73q1.66,2.51,3.44,4.93l.08.12c.5.67,1,1.34,1.5,2l.52.69.32.41v0c.58.75,1.17,1.5,1.77,2.24l.63.78a144.22,144.22,0,0,0,10.74,11.77ZM54.63,58A124.42,124.42,0,0,1,88.05,33.27c12.63-6.4,27.58-7,40.28-.77,1.16.57,2.29,1.19,3.41,1.86C153.9,47.6,161.68,74.71,145,95.93c-5.55,6.55-13,11.87-21.57,13.2-13.84,2.47-28.66-5.07-35-17.72-8.9-17.5,4.88-40.93,25.17-38.93C133.4,54.89,142.33,78.85,124.79,91c12.3-6.26,15.2-22.67,6.58-33.39-18-22.47-50-9-55.6,16.93-5.94,26.49,17.89,50.88,43.83,51.81,22.91,1.4,44.27-14.48,53.31-35,9.77-21.48,6-46.75-8.08-65.5-1.19-1.64-2.44-3.2-3.74-4.72A124,124,0,0,1,268,144c0,2.48-.07,4.94-.22,7.4-.87,14.71-8.61,28.34-21.25,35.93-.48.3-1,.58-1.46.85-22.55,12.57-49.91,5.76-60-19.27-2.89-8.08-3.78-17.18-.65-25.28,4.78-13.22,18.73-22.29,32.84-21.42,19.59,1.05,33,24.69,21.13,41.26-12,15.88-37.17,11.64-39-9.64-.73,13.78,12,24.49,25.63,22.39,28.45-4.34,32.76-38.79,13.13-56.62-20-18.38-53-9.94-66.79,12.06-12.65,19.14-9.59,45.57,3.67,63.66,13.71,19.21,37.46,28.61,60.76,25.76,2-.21,4-.48,5.92-.79a128.37,128.37,0,0,1-12.56,13.79A124.09,124.09,0,0,1,75.44,247.36a44.81,44.81,0,0,1-20.25-36.2q0-.87,0-1.74c.39-25.81,20-46.1,46.67-42.3,8.45,1.54,16.78,5.32,22.22,12.08,9.06,10.75,10,27.36,2.13,39.15-10.69,16.44-37.89,16.23-46.29-2.34-7.77-18.3,8.5-38,27.83-28.91-11.63-7.52-27.19-1.85-32.21,11C65.08,224.91,92.75,245.86,118,237.78c25.9-8.1,35.11-40.93,23-63.87-10.25-20.53-34.67-31.09-57-28.66C60.51,147.53,40.48,163.39,31.31,185c-.84,1.88-1.58,3.77-2.25,5.68A124.25,124.25,0,0,1,54.63,58Z"/></g></svg>